<?xml version="1.0" standalone="no"?>
<!DOCTYPE svg PUBLIC "-//W3C//DTD SVG 1.1//EN" "http://www.w3.org/Graphics/SVG/1.1/DTD/svg11.dtd" >
<svg xmlns="http://www.w3.org/2000/svg" xmlns:xlink="http://www.w3.org/1999/xlink" version="1.1">
<metadata>
Created by FontForge 20201107 at Thu Dec 15 12:25:39 2016
 By 
Copyright 2012 The Scada Project Authors (lemonad@jovanny.ru)
</metadata>
<defs>
<font id="Scada-Italic" horiz-adv-x="510" >
  <font-face 
    font-family="Scada"
    font-weight="400"
    font-style="italic"
    font-stretch="normal"
    units-per-em="1000"
    panose-1="0 0 5 0 0 0 0 0 0 0"
    ascent="800"
    descent="-200"
    x-height="500"
    cap-height="700"
    bbox="-321 -275 1314 930"
    underline-thickness="50"
    underline-position="-100"
    slope="-10"
    unicode-range="U+000D-F8FF"
  />
<missing-glyph horiz-adv-x="270" 
 />
    <glyph glyph-name=".notdef" horiz-adv-x="270" 
 />
    <glyph glyph-name=".null" horiz-adv-x="0" 
 />
    <glyph glyph-name="nonmarkingreturn" unicode="&#xd;" horiz-adv-x="290" 
 />
    <glyph glyph-name="NULL" horiz-adv-x="0" 
 />
    <glyph glyph-name="NULL" horiz-adv-x="0" 
 />
    <glyph glyph-name="space" unicode=" " horiz-adv-x="290" 
 />
    <glyph glyph-name="exclam" unicode="!" horiz-adv-x="290" 
d="M183 700h120l-112 -520h-80zM88 89q21 21 51 21q22 0 36 -13t14 -34q0 -31 -20.5 -52t-50.5 -21q-23 0 -37 13t-14 34q0 31 21 52z" />
    <glyph glyph-name="quotedbl" unicode="&#x22;" horiz-adv-x="340" 
d="M138 700h105l-62 -240h-65zM293 700h105l-62 -240h-65z" />
    <glyph glyph-name="numbersign" unicode="#" horiz-adv-x="660" 
d="M365 520h140l73 180h100l-73 -180h101l-12 -70h-117l-81 -200h103l-13 -70h-119l-72 -180h-100l72 180h-140l-72 -180h-100l72 180h-101l13 70h117l81 200h-103l12 70h119l73 180h100zM256 250h140l81 200h-140z" />
    <glyph glyph-name="dollar" unicode="$" horiz-adv-x="495" 
d="M163 -7q-63 6 -113 30q-13 6 -38 22l46 60h10q14 -12 37 -23q48 -22 105 -22q67 0 109.5 33t51.5 87q2 12 2 18q0 29 -16 50t-40 36t-65 35q-48 23 -78 42.5t-50.5 50t-20.5 73.5q0 17 3 35q12 69 60 117.5t122 65.5l12 67h105l-11 -62q63 -6 111 -30q21 -10 35 -23
l-46 -60h-10q-14 12 -32 22q-48 23 -100 23q-40 0 -73.5 -18t-53 -47.5t-19.5 -62.5q0 -29 16 -50t40 -36t65 -35q48 -23 78 -42.5t50.5 -50t20.5 -73.5q0 -17 -3 -35q-14 -79 -66.5 -130t-137.5 -65l-12 -65h-105z" />
    <glyph glyph-name="percent" unicode="%" horiz-adv-x="800" 
d="M129 384.5q-35 34.5 -35 99.5q0 23 4 46q15 85 67 132.5t125 47.5q62 0 97 -34.5t35 -99.5q0 -23 -4 -46q-15 -85 -67 -132.5t-125 -47.5q-62 0 -97 34.5zM85 0l593 700h110l-593 -700h-110zM328 530q5 32 5 48q0 72 -54 72q-70 0 -91 -120q-5 -32 -5 -49q0 -71 54 -71
q70 0 91 120zM485.5 25q-35.5 35 -35.5 99q0 25 4 46q16 86 67.5 133t124.5 47q61 0 97 -35t36 -98q0 -19 -5 -47q-15 -86 -66.5 -133t-124.5 -47q-62 0 -97.5 35zM684 170q5 32 5 49q0 71 -53 71q-71 0 -92 -120q-5 -32 -5 -48q0 -72 54 -72q70 0 91 120z" />
    <glyph glyph-name="ampersand" unicode="&#x26;" horiz-adv-x="615" 
d="M80.5 32q-47.5 42 -47.5 111q0 18 3 37q11 61 58 108t123 92q-22 27 -34 51q-24 46 -24 92q0 18 2 27q13 73 67.5 116.5t136.5 43.5q68 0 107 -34t39 -88q0 -47 -26 -86.5t-68 -77.5q-34 -29 -77 -54l118 -180q28 47 43 130h90q-18 -104 -89 -195l83 -125h-120l-40 60
q-100 -70 -212 -70q-85 0 -132.5 42zM350 471q49 45 58 89q3 14 3 24q0 29 -16 45t-42 16q-35 0 -59 -24t-33 -71q-1 -5 -1 -14q0 -26 18 -64q12 -22 23 -37q25 15 49 36zM389 110l-134 205q-60 -38 -90.5 -74t-30.5 -85q0 -44 29 -70t82 -26q85 0 144 50z" />
    <glyph glyph-name="quotesingle" unicode="'" horiz-adv-x="185" 
d="M138 700h105l-62 -240h-65z" />
    <glyph glyph-name="parenleft" unicode="(" horiz-adv-x="285" 
d="M171.5 530q70.5 120 177.5 205l33 -40q-79 -92 -130 -192t-73 -223q-12 -72 -12 -134q0 -152 69 -281l-47 -40q-60 66 -90 153.5t-30 186.5q0 59 10 115q22 130 92.5 250z" />
    <glyph glyph-name="parenright" unicode=")" horiz-adv-x="285" 
d="M161.5 30q-70.5 -120 -177.5 -205l-32 40q79 92 129.5 192t72.5 223q12 71 12 133q0 149 -69 282l47 40q60 -66 90 -153.5t30 -186.5q0 -59 -10 -115q-22 -130 -92.5 -250z" />
    <glyph glyph-name="asterisk" unicode="*" horiz-adv-x="410" 
d="M152 640l95 -60l21 120h70l-21 -120l115 60l25 -60l-116 -60l95 -60l-46 -60l-94 60l-22 -120h-70l22 120l-116 -60l-24 60l115 60l-94 60z" />
    <glyph glyph-name="plus" unicode="+" horiz-adv-x="470" 
d="M192 125l29 165h-165l14 80h165l29 165h80l-29 -165h165l-14 -80h-165l-29 -165h-80z" />
    <glyph glyph-name="comma" unicode="," horiz-adv-x="200" 
d="M42 88.5q20 21.5 47 21.5q26 0 40 -13.5t14 -39.5q0 -11 -1 -17q-13 -71 -68 -128q-25 -26 -52 -42l-24 35q16 12 32 26q34 34 38 59q-20 0 -33 13t-13 34q0 30 20 51.5z" />
    <glyph glyph-name="hyphen" unicode="-" horiz-adv-x="440" 
d="M56 290l14 80h380l-14 -80h-380z" />
    <glyph glyph-name="period" unicode="." horiz-adv-x="200" 
d="M43 89q21 21 51 21q22 0 36 -13t14 -34q0 -31 -20.5 -52t-50.5 -21q-23 0 -37 13t-14 34q0 31 21 52z" />
    <glyph glyph-name="slash" unicode="/" horiz-adv-x="410" 
d="M408 700h100l-433 -700h-100z" />
    <glyph glyph-name="zero" unicode="0" horiz-adv-x="580" 
d="M127.5 46q-48.5 56 -48.5 174q0 57 12 130q32 185 111.5 272.5t187.5 87.5q87 0 135.5 -55.5t48.5 -173.5q0 -60 -13 -131q-32 -185 -111 -272.5t-187 -87.5q-87 0 -135.5 56zM385.5 125q47.5 65 75.5 225q14 80 14 141q0 81 -25.5 115t-72.5 34q-63 0 -110.5 -65
t-75.5 -225q-14 -80 -14 -141q0 -81 25.5 -115t72.5 -34q63 0 110.5 65z" />
    <glyph glyph-name="one" unicode="1" horiz-adv-x="390" 
d="M25 0l12 70h110l92 520l-112 -65l-30 55l171 120h90l-111 -630h110l-12 -70h-320z" />
    <glyph glyph-name="two" unicode="2" horiz-adv-x="500" 
d="M17 70q9 48 40.5 91t71.5 77t104 82q60 44 95 73.5t61.5 64t33.5 72.5q2 12 2 18q0 40 -31.5 66t-86.5 26q-52 0 -108 -23q-27 -13 -40 -22h-10l-24 60q23 15 54 27q65 28 151 28q94 0 144 -42t50 -112q0 -18 -3 -36q-9 -51 -43 -96.5t-77 -82t-111 -87.5
q-82 -61 -124 -101t-49 -83h325l-12 -70h-425z" />
    <glyph glyph-name="three" unicode="3" horiz-adv-x="500" 
d="M41 17q-28 13 -44 28l46 60h10q12 -12 32 -23q46 -22 100 -22q160 0 185 140q3 20 3 35q0 52 -34 78.5t-105 26.5h-105l13 70l264 220h-290l12 70h410l-12 -70l-264 -220q106 0 159 -42.5t53 -120.5q0 -24 -4 -47q-18 -101 -89.5 -155.5t-197.5 -54.5q-86 0 -142 27z" />
    <glyph glyph-name="four" unicode="4" horiz-adv-x="540" 
d="M315 0l29 170h-330l13 70l411 460h100l-81 -460h80l-13 -70h-80l-29 -170h-100zM357 240l46 260q1 6 4.5 20t6.5 24l9 26h-4l-18 -26l-15 -21t-18 -23l-231 -260h220z" />
    <glyph glyph-name="five" unicode="5" horiz-adv-x="505" 
d="M51 17q-28 13 -44 28l46 60h10q12 -12 32 -23q46 -22 100 -22q155 0 182 150q4 30 4 40q0 110 -133 110h-120l-25 30l55 310h379l-12 -70h-279l-36 -200h65q103 0 155 -42.5t52 -124.5q0 -21 -5 -53q-19 -107 -90 -163.5t-194 -56.5q-86 0 -142 27z" />
    <glyph glyph-name="six" unicode="6" horiz-adv-x="535" 
d="M64 162q0 32 6 68l32 180q27 152 101.5 226t186.5 74q76 0 128 -28q25 -12 42 -27l-46 -60h-10q-11 11 -30 22q-42 23 -87 23q-68 0 -116 -54.5t-69 -175.5q18 11 38 20q44 20 99 20q84 0 130 -42.5t46 -121.5q0 -31 -5 -56q-21 -119 -87 -179.5t-169 -60.5
q-190 0 -190 172zM356 102q39 42 54 128q5 27 5 44q0 52 -28.5 79t-79.5 27q-47 0 -85 -20q-16 -8 -33 -20l-19 -110q-5 -26 -5 -57q0 -113 100 -113q52 0 91 42z" />
    <glyph glyph-name="seven" unicode="7" horiz-adv-x="440" 
d="M130 90q28 160 106.5 304.5t169.5 235.5h-320l12 70h430l-12 -70q-94 -94 -176 -238t-110 -302l-15 -90h-100z" />
    <glyph glyph-name="eight" unicode="8" horiz-adv-x="560" 
d="M139.5 11.5q-47.5 21.5 -71.5 59t-24 82.5q0 9 2 27q10 53 38.5 91t66.5 62q38 25 84 37q-34 12 -57 34q-42 38 -42 98q0 15 3 33q8 48 41 88t85 63.5t115 23.5q86 0 133.5 -41t47.5 -105q0 -19 -2 -29q-15 -82 -86 -131q-30 -21 -68 -34q42 -12 71 -37
q24 -19 38.5 -48.5t14.5 -68.5q0 -16 -3 -36q-8 -50 -45 -94t-96.5 -70t-131.5 -26q-66 0 -113.5 21.5zM414 456q36 31 45 79q2 12 2 17q0 37 -27 62.5t-67 25.5q-45 0 -82.5 -31.5t-45.5 -73.5q-2 -8 -2 -23q0 -71 90 -102q51 15 87 46zM374.5 93q42.5 33 51.5 87
q2 16 2 22q0 46 -30.5 75.5t-84.5 52.5q-78 -29 -123.5 -68.5t-45.5 -105.5q0 -45 31 -70.5t90 -25.5q67 0 109.5 33z" />
    <glyph glyph-name="nine" unicode="9" horiz-adv-x="535" 
d="M89 17q-26 12 -42 28l46 60h10q10 -11 30 -23q40 -22 87 -22q147 0 186 230q-21 -12 -39 -20q-44 -20 -98 -20q-85 0 -131 43t-46 122q0 23 5 55q21 119 87.5 179.5t169.5 60.5q94 0 142 -42.5t48 -128.5q0 -34 -7 -69l-31 -180q-27 -153 -101 -226.5t-187 -73.5
q-79 0 -129 27zM386 340q18 9 32 20l19 110q6 32 6 58q0 57 -26.5 84.5t-74.5 27.5q-52 0 -91 -42t-54 -128q-4 -20 -4 -42q0 -53 28 -80.5t80 -27.5q47 0 85 20z" />
    <glyph glyph-name="colon" unicode=":" horiz-adv-x="200" 
d="M113.5 489q20.5 21 50.5 21q23 0 37 -13t14 -34q0 -31 -21 -52t-51 -21q-22 0 -36 13t-14 34q0 31 20.5 52zM43 89q21 21 51 21q22 0 36 -13t14 -34q0 -31 -20.5 -52t-50.5 -21q-23 0 -37 13t-14 34q0 31 21 52z" />
    <glyph glyph-name="semicolon" unicode=";" horiz-adv-x="200" 
d="M113.5 489q20.5 21 50.5 21q23 0 37 -13t14 -34q0 -31 -21 -52t-51 -21q-22 0 -36 13t-14 34q0 31 20.5 52zM42 88.5q20 21.5 47 21.5q26 0 40 -13.5t14 -39.5q0 -11 -1 -17q-13 -71 -68 -128q-25 -26 -52 -42l-24 35q16 12 32 26q34 34 38 59q-20 0 -33 13t-13 34
q0 30 20 51.5z" />
    <glyph glyph-name="less" unicode="&#x3c;" horiz-adv-x="470" 
d="M405 0l-353 215l13 70l428 215l-17 -95l-307 -155l252 -155z" />
    <glyph glyph-name="equal" unicode="=" horiz-adv-x="470" 
d="M77 380l14 80h400l-14 -80h-400zM45 200l14 80h400l-14 -80h-400z" />
    <glyph glyph-name="greater" unicode="&#x3e;" horiz-adv-x="445" 
d="M10 0l16 95l308 155l-253 155l17 95l352 -215l-13 -70z" />
    <glyph glyph-name="question" unicode="?" horiz-adv-x="460" 
d="M142 180l7 40q8 41 27.5 72t42.5 51.5t60 47.5q50 37 76 65.5t33 73.5q2 12 2 18q0 40 -31.5 66t-86.5 26q-52 0 -108 -23q-27 -13 -40 -22h-10l-24 60q22 15 54 27q65 28 151 28q94 0 144 -42t50 -112q0 -18 -3 -36q-7 -43 -27 -74t-45 -52t-65 -47q-51 -35 -77 -61
t-33 -66l-7 -40h-90zM124 89q21 21 51 21q22 0 36 -13t14 -34q0 -31 -20.5 -52t-50.5 -21q-23 0 -37 13t-14 34q0 31 21 52z" />
    <glyph glyph-name="at" unicode="@" horiz-adv-x="930" 
d="M230 -76.5q-78 43.5 -121.5 120.5t-43.5 175q0 42 7 81q21 118 93 214t177.5 151t223.5 55q105 0 185 -43t124 -120.5t44 -175.5q0 -42 -7 -81q-21 -119 -82.5 -182t-140.5 -63q-66 0 -100 27q-18 13 -25 28h-5q-17 -16 -40 -28q-45 -27 -100 -27q-65 0 -102 41t-37 123
q0 37 7 76q21 119 79.5 179.5t137.5 60.5q52 0 91 -33q16 -13 27 -32h5l20 55h70l-68 -385q4 -4 12 -10q14 -10 30 -10q40 0 77.5 43.5t53.5 136.5q7 36 7 76q0 83 -34 145t-96.5 95.5t-144.5 33.5q-95 0 -177.5 -43.5t-139.5 -123t-75 -183.5q-7 -36 -7 -76
q0 -83 34.5 -145t97 -95.5t144.5 -33.5q59 0 121 22q31 13 47 23h10l24 -60q-24 -15 -60 -28q-70 -27 -165 -27q-100 0 -178 43.5zM525 152q19 12 30 23l41 230q-9 15 -21 27q-28 28 -59 28q-45 0 -79.5 -40t-49.5 -125q-6 -36 -6 -63q0 -53 20 -77.5t56 -24.5q30 0 68 22z
" />
    <glyph glyph-name="A" unicode="A" horiz-adv-x="570" 
d="M-10 0l328 700h130l82 -700h-100l-24 180h-230l-86 -180h-100zM399 250l-32 275q-2 12 -2 27.5v19.5q0 16 1 23h-4q-4 -16 -7 -24q-9 -26 -18 -46l-128 -275h190z" />
    <glyph glyph-name="B" unicode="B" horiz-adv-x="575" 
d="M188 700h190q93 0 142.5 -39t49.5 -103q0 -16 -3 -33q-15 -81 -80 -126q-29 -20 -62 -29q38 -9 64 -32q47 -43 47 -111q0 -17 -3 -37q-16 -89 -85.5 -139.5t-192.5 -50.5h-190zM325 400q57 0 94 30.5t46 84.5q3 15 3 27q0 42 -26.5 65t-75.5 23h-90l-41 -230h90zM267 70
q145 0 168 130q3 18 3 34q0 96 -125 96h-90l-46 -260h90z" />
    <glyph glyph-name="C" unicode="C" horiz-adv-x="515" 
d="M132.5 45.5q-53.5 55.5 -53.5 176.5q0 56 12 128q32 186 113.5 273t200.5 87q72 0 124 -28q25 -13 41 -27l-46 -60h-10q-12 10 -30 22q-40 23 -82 23q-158 0 -211 -290q-13 -68 -13 -122q0 -168 132 -168q44 0 90 22q26 14 38 23h10l24 -60q-21 -15 -51 -28
q-58 -27 -133 -27q-102 0 -155.5 55.5z" />
    <glyph glyph-name="D" unicode="D" horiz-adv-x="585" 
d="M188 700h150q120 0 179.5 -55t59.5 -176q0 -58 -11 -119q-33 -184 -119 -267t-232 -83h-150zM227 70q95 0 153.5 64t85.5 216q11 68 11 111q0 90 -38 129.5t-113 39.5h-50l-99 -560h50z" />
    <glyph glyph-name="E" unicode="E" 
d="M65 0l123 700h390l-12 -70h-290l-41 -230h230l-12 -70h-230l-46 -260h290l-12 -70h-390z" />
    <glyph glyph-name="F" unicode="F" horiz-adv-x="500" 
d="M65 0l123 700h390l-12 -70h-290l-43 -240h230l-12 -70h-230l-56 -320h-100z" />
    <glyph glyph-name="G" unicode="G" horiz-adv-x="565" 
d="M136 51q-56 61 -56 183q0 57 11 116q21 121 68 202t110.5 119.5t135.5 38.5t124 -28q25 -13 41 -27l-46 -60h-10q-12 10 -30 22q-40 23 -82 23q-158 0 -211 -290q-13 -68 -13 -122q0 -168 132 -168q17 0 35 4.5t29.5 9t14.5 6.5l40 230h-115l13 70h185l24 -30l-54 -305
q-22 -15 -54 -28q-63 -27 -140 -27q-96 0 -152 61z" />
    <glyph glyph-name="H" unicode="H" horiz-adv-x="630" 
d="M65 0l123 700h100l-55 -310h250l55 310h100l-123 -700h-100l56 320h-250l-56 -320h-100z" />
    <glyph glyph-name="I" unicode="I" horiz-adv-x="280" 
d="M65 0l123 700h100l-123 -700h-100z" />
    <glyph glyph-name="J" unicode="J" horiz-adv-x="425" 
d="M14 12q-22 12 -33 23l41 65h10q14 -14 22 -20q27 -20 56 -20q58 0 92 31.5t46 98.5l90 510h100l-90 -510q-17 -99 -77.5 -149.5t-162.5 -50.5q-48 0 -94 22z" />
    <glyph glyph-name="K" unicode="K" horiz-adv-x="555" 
d="M65 0l123 700h100l-58 -330l283 330h115l-290 -340l177 -360h-115l-174 350l-61 -350h-100z" />
    <glyph glyph-name="L" unicode="L" horiz-adv-x="490" 
d="M65 0l123 700h100l-111 -630h290l-12 -70h-390z" />
    <glyph glyph-name="M" unicode="M" horiz-adv-x="840" 
d="M188 700h100l135 -425q6 -17 7 -31l2 -19h4l9 19q10 22 18 31l285 425h100l-123 -700h-100l74 420l11 54l8 31h-4l-15 -31q-18 -37 -30 -54l-202 -295h-100l-98 295q-5 14 -11 54q-2 11 -4 31h-4l-4 -31l-3 -26q-2 -20 -4 -28l-74 -420h-100z" />
    <glyph glyph-name="N" unicode="N" horiz-adv-x="630" 
d="M188 700h110l131 -445q4 -16 11 -54q2 -11 4 -31h4l4 31l3 27q2 18 4 27l79 445h100l-123 -700h-110l-132 445q-5 14 -11 54q-2 11 -4 31h-4l-4 -31l-3 -26q-2 -20 -4 -28l-78 -445h-100z" />
    <glyph glyph-name="O" unicode="O" horiz-adv-x="600" 
d="M130 46q-51 56 -51 175q0 57 12 129q32 186 113 273t196 87q92 0 142.5 -55.5t50.5 -174.5q0 -56 -12 -130q-32 -186 -112.5 -273t-195.5 -87q-92 0 -143 56zM400.5 128.5q52.5 68.5 80.5 221.5q13 69 13 124q0 86 -30 126t-77 40q-64 0 -116 -68t-80 -222
q-13 -71 -13 -126q0 -86 29.5 -125t77.5 -39q63 0 115.5 68.5z" />
    <glyph glyph-name="P" unicode="P" horiz-adv-x="565" 
d="M188 700h180q215 0 215 -169q0 -28 -6 -61q-20 -115 -91.5 -172.5t-198.5 -57.5h-80l-42 -240h-100zM299 310q76 0 120 39t58 121q5 30 5 50q0 57 -31 83.5t-95 26.5h-80l-57 -320h80z" />
    <glyph glyph-name="Q" unicode="Q" horiz-adv-x="600" 
d="M255.5 -124q-34.5 31 -34.5 86q0 15 3 33q-69 12 -107 68t-38 159q0 56 12 128q32 186 113 273t196 87q92 0 142.5 -55.5t50.5 -174.5q0 -56 -12 -130q-29 -164 -96.5 -252t-160.5 -103q-3 -15 -3 -26q0 -54 54 -54q12 0 25 5l11 5h10l9 -65l-24 -8q-26 -7 -54 -7
q-62 0 -96.5 31zM400.5 128.5q52.5 68.5 80.5 221.5q13 69 13 124q0 86 -30 126t-77 40q-64 0 -116 -68t-80 -222q-13 -71 -13 -126q0 -86 29.5 -125t77.5 -39q63 0 115.5 68.5z" />
    <glyph glyph-name="R" unicode="R" horiz-adv-x="575" 
d="M188 700h170q216 0 216 -166q0 -22 -5 -54q-27 -160 -173 -205l119 -275h-115l-110 260h-80l-45 -260h-100zM293 330q151 0 176 150q4 20 4 42q0 108 -127 108h-70l-53 -300h70z" />
    <glyph glyph-name="S" unicode="S" horiz-adv-x="505" 
d="M66 17q-32 13 -49 28l46 60h10q14 -12 37 -23q48 -22 105 -22q67 0 109.5 33t51.5 87q2 12 2 18q0 29 -16 50t-40 36t-65 35q-48 23 -78 42.5t-50.5 50t-20.5 73.5q0 17 3 35q9 55 42.5 98t85.5 67.5t116 24.5q83 0 141 -28q27 -13 44 -27l-46 -60h-10q-14 12 -32 22
q-48 23 -100 23q-37 0 -69.5 -18t-52 -47.5t-19.5 -62.5q0 -29 16 -50t40 -36t65 -35q48 -23 78 -42.5t50.5 -50t20.5 -73.5q0 -17 -3 -35q-16 -92 -85.5 -146t-179.5 -54q-88 0 -147 27z" />
    <glyph glyph-name="T" unicode="T" horiz-adv-x="480" 
d="M165 0l111 630h-180l12 70h460l-12 -70h-180l-111 -630h-100z" />
    <glyph glyph-name="U" unicode="U" horiz-adv-x="620" 
d="M141 33q-49 43 -49 126q0 28 6 61l85 480h100l-85 -480q-5 -30 -5 -50q0 -56 26.5 -83t75.5 -27q59 0 99 39.5t54 120.5l85 480h100l-85 -480q-20 -113 -88 -171.5t-177 -58.5q-93 0 -142 43z" />
    <glyph glyph-name="V" unicode="V" horiz-adv-x="550" 
d="M113 700h100l52 -525q2 -30 2 -46t-1 -24h4l8 24q11 34 17 46l238 525h100l-318 -700h-130z" />
    <glyph glyph-name="W" unicode="W" horiz-adv-x="860" 
d="M113 700h100l29 -490q0 -19 -2 -51l-3 -29h4l8 29q12 38 18 51l201 490h120l29 -490q0 -19 -2 -51l-2 -29h4l8 29q2 6 7 23t10 28l201 490h100l-288 -700h-120l-29 490l-1 26l1 25q0 19 1 29h-4l-9 -29q-12 -38 -18 -51l-201 -490h-120z" />
    <glyph glyph-name="X" unicode="X" horiz-adv-x="530" 
d="M237 355l-119 345h110l75 -225q2 -7 3.5 -14.5t3.5 -14.5l3 -16h4l8 16q11 20 18 29l155 225h110l-241 -345l123 -355h-110l-79 235q-2 7 -3.5 14.5t-3.5 14.5l-3 16h-4l-9 -16q-2 -4 -7 -13.5t-10 -15.5l-161 -235h-110z" />
    <glyph glyph-name="Y" unicode="Y" horiz-adv-x="530" 
d="M230 230l-132 470h105l86 -305q6 -25 7 -39q1 -7 1 -21h4l8 21q7 17 20 39l194 305h105l-298 -470l-40 -230h-100z" />
    <glyph glyph-name="Z" unicode="Z" horiz-adv-x="485" 
d="M0 0l13 75l408 555h-310l12 70h430l-13 -75l-408 -555h315l-12 -70h-435z" />
    <glyph glyph-name="bracketleft" unicode="[" horiz-adv-x="310" 
d="M235 -170h-200l158 900h200l-12 -70h-100l-134 -760h100z" />
    <glyph glyph-name="backslash" unicode="\" horiz-adv-x="410" 
d="M385 0h-100l-187 700h100z" />
    <glyph glyph-name="bracketright" unicode="]" horiz-adv-x="310" 
d="M-23 -100h100l134 760h-100l12 70h200l-158 -900h-199z" />
    <glyph glyph-name="asciicircum" unicode="^" horiz-adv-x="430" 
d="M52 440l229 280h70l131 -280h-100l-83 180l-147 -180h-100z" />
    <glyph glyph-name="underscore" unicode="_" horiz-adv-x="380" 
d="M-47 -130l14 80h379l-14 -80h-379z" />
    <glyph glyph-name="grave" unicode="`" horiz-adv-x="175" 
d="M171 550l-63 150h110l18 -150h-65z" />
    <glyph glyph-name="a" unicode="a" 
d="M78.5 21.5q-36.5 31.5 -36.5 88.5q0 17 3 35q13 71 71.5 110.5t170.5 39.5h80l4 25q4 26 4 35q0 42 -23 63.5t-65 21.5q-34 0 -82 -23q-22 -12 -36 -22h-10l-24 60q24 16 49 27q58 28 125 28q76 0 120.5 -42.5t44.5 -110.5q0 -17 -3 -37l-56 -320h-70v60h-5
q-17 -20 -41 -35q-50 -35 -116 -35q-68 0 -104.5 31.5zM260.5 73q18.5 8 40.5 22q18 13 36 30l17 100h-80q-65 0 -98 -28t-33 -71q0 -30 19.5 -45.5t58.5 -15.5q21 0 39.5 8z" />
    <glyph glyph-name="b" unicode="b" horiz-adv-x="535" 
d="M174 25q-18 15 -29 35h-5l-20 -60h-70l118 670l35 30h70l-39 -220l35 15q45 15 80 15q75 0 118.5 -47t43.5 -138q0 -37 -7 -75q-15 -84 -50 -143t-81 -88t-95 -29q-65 0 -104 35zM349.5 110q37.5 45 54.5 140q7 39 7 73q0 61 -24 89t-65 28q-32 0 -70 -10q-18 -5 -28 -10
l-52 -295q11 -16 24 -30q32 -30 70 -30q46 0 83.5 45z" />
    <glyph glyph-name="c" unicode="c" horiz-adv-x="455" 
d="M109 36q-47 46 -47 137q0 38 7 77q23 128 90.5 194t164.5 66q65 0 115 -28q24 -13 41 -27l-46 -60h-10q-14 12 -29 22q-18 11 -35 17t-38 6q-56 0 -96 -45t-57 -145q-7 -39 -7 -73q0 -62 26 -89.5t77 -27.5q35 0 81 22q22 12 37 23h10l24 -60q-20 -15 -50 -28
q-56 -27 -124 -27q-87 0 -134 46z" />
    <glyph glyph-name="d" unicode="d" horiz-adv-x="535" 
d="M101 36.5q-40 46.5 -40 134.5q0 33 8 79q21 127 88 193.5t157 66.5q34 0 75 -15l30 -15l34 190l35 30h70l-123 -700h-70v60h-5q-17 -20 -41 -35q-50 -35 -116 -35q-62 0 -102 46.5zM280.5 73q18.5 8 40.5 22q18 14 36 30l52 295q-7 4 -25 10q-32 10 -67 10
q-53 0 -92 -45.5t-56 -144.5q-7 -38 -7 -71q0 -58 21.5 -86t57.5 -28q21 0 39.5 8z" />
    <glyph glyph-name="e" unicode="e" horiz-adv-x="505" 
d="M109 36q-47 46 -47 137q0 38 7 77q21 127 88.5 193.5t161.5 66.5q78 0 122.5 -47t44.5 -138q0 -28 -7 -75l-3 -15l-24 -20h-290q-5 -28 -5 -46q0 -54 28.5 -81.5t79.5 -27.5q35 0 81 22q22 12 37 23h10l24 -60q-20 -15 -50 -28q-56 -27 -124 -27q-87 0 -134 46zM385 285
q5 33 5 53q0 52 -22 77t-61 25q-48 0 -83 -38.5t-49 -116.5h210z" />
    <glyph glyph-name="f" unicode="f" horiz-adv-x="340" 
d="M135 430h-65l13 70h65l8 50q12 72 65.5 116t128.5 44q56 0 99 -28q20 -12 36 -27l-46 -60h-10q-9 10 -24 22q-31 23 -58 23q-35 0 -59 -23t-32 -67l-8 -50h135l-13 -70h-135l-75 -430h-100z" />
    <glyph glyph-name="g" unicode="g" horiz-adv-x="535" 
d="M67 -183q-26 14 -40 28l46 60h10q11 -12 28 -23q38 -22 74 -22q64 0 100 31t48 99l5 30q-16 -9 -35 -15q-39 -15 -80 -15q-74 0 -118 46.5t-44 135.5q0 32 8 78q14 84 49 142.5t81 88t95 29.5q61 0 104 -35q20 -18 29 -35h5l21 60h70l-90 -510q-16 -91 -83 -145.5
t-168 -54.5q-66 0 -115 27zM320 70q17 5 29 10l52 295q-9 14 -25 30q-32 30 -70 30q-46 0 -83 -45t-54 -140q-7 -39 -7 -74q0 -116 88 -116q32 0 70 10z" />
    <glyph glyph-name="h" unicode="h" horiz-adv-x="545" 
d="M168 670l35 30h70l-42 -240q20 17 37 25q50 25 101 25q65 0 104.5 -37t39.5 -97q0 -10 -4 -36l-59 -340h-100l59 340q2 14 2 21q0 33 -22 53.5t-58 20.5q-38 0 -80 -30q-20 -15 -35 -30l-66 -375h-100z" />
    <glyph glyph-name="i" unicode="i" horiz-adv-x="250" 
d="M165 593q-14 13 -14 34q0 31 21 52t51 21q22 0 36 -13t14 -34q0 -31 -20.5 -52t-50.5 -21q-23 0 -37 13zM50 0l88 500h100l-88 -500h-100z" />
    <glyph glyph-name="j" unicode="j" horiz-adv-x="250" 
d="M165 593q-14 13 -14 34q0 31 21 52t51 21q22 0 36 -13t14 -34q0 -31 -20.5 -52t-50.5 -21q-23 0 -37 13zM-120 -185q-14 6 -24 15l36 65h10q7 -9 14 -13q15 -12 37 -12q34 0 57.5 23t31.5 67l96 540h100l-96 -540q-12 -72 -65 -116t-127 -44q-40 0 -70 15z" />
    <glyph glyph-name="k" unicode="k" horiz-adv-x="480" 
d="M50 0l118 670l35 30h70l-76 -430l211 230h115l-223 -240l145 -260h-115l-136 250l-44 -250h-100z" />
    <glyph glyph-name="l" unicode="l" horiz-adv-x="250" 
d="M50 0l118 670l35 30h70l-123 -700h-100z" />
    <glyph glyph-name="m" unicode="m" horiz-adv-x="805" 
d="M138 500h70l-1 -60h5q16 16 42 35q56 35 105 35q56 0 95 -35q16 -15 23 -35q16 15 47 35q60 35 115 35q60 0 97 -37t37 -97q0 -10 -4 -36l-59 -340h-100l59 340q2 12 2 18q0 34 -20 55.5t-50 21.5q-29 0 -71 -25q-15 -9 -33 -25l-67 -385h-100l59 340q2 12 2 18
q0 34 -20 55.5t-50 21.5q-31 0 -71 -30q-16 -12 -34 -30l-66 -375h-100z" />
    <glyph glyph-name="n" unicode="n" horiz-adv-x="545" 
d="M138 500h70l-1 -60h5q14 16 41 35q56 35 116 35q65 0 104.5 -37t39.5 -97q0 -10 -4 -36l-59 -340h-100l59 340q2 14 2 21q0 33 -22 53.5t-58 20.5q-38 0 -80 -30q-20 -15 -35 -30l-66 -375h-100z" />
    <glyph glyph-name="o" unicode="o" horiz-adv-x="530" 
d="M108 36q-46 46 -46 137q0 38 7 77q23 129 91 194.5t169 65.5q84 0 130.5 -47t46.5 -139q0 -27 -7 -74q-23 -128 -91.5 -194t-169.5 -66q-84 0 -130 46zM342 105.5q40 45.5 57 144.5q7 39 7 73q0 61 -24 89t-65 28q-53 0 -92 -45.5t-56 -144.5q-7 -39 -7 -74
q0 -116 88 -116q52 0 92 45.5z" />
    <glyph glyph-name="p" unicode="p" horiz-adv-x="535" 
d="M138 500h70l-1 -60h5q14 16 41 35q56 35 116 35q64 0 103 -47t39 -137q0 -37 -7 -76q-23 -127 -89.5 -193.5t-156.5 -66.5q-39 0 -75 15q-16 6 -30 15l-33 -190l-36 -30h-70zM347 105.5q40 45.5 57 144.5q7 36 7 70q0 59 -22.5 87t-57.5 28q-38 0 -80 -30
q-20 -15 -35 -30l-52 -295q7 -4 25 -10q32 -10 66 -10q52 0 92 45.5z" />
    <glyph glyph-name="q" unicode="q" horiz-adv-x="535" 
d="M305 -170l33 190q-16 -9 -35 -15q-39 -15 -80 -15q-74 0 -118 46.5t-44 135.5q0 32 8 78q14 84 49 142.5t81 88t95 29.5q61 0 104 -35q20 -18 29 -35h5l21 60h70l-124 -700h-70zM320 70q17 5 29 10l52 295q-9 14 -25 30q-32 30 -70 30q-46 0 -83 -45t-54 -140
q-7 -39 -7 -74q0 -116 88 -116q32 0 70 10z" />
    <glyph glyph-name="r" unicode="r" horiz-adv-x="365" 
d="M138 500h70l-1 -60h5q13 15 40 35q56 35 112 35q25 0 45 -5l19 -5l-29 -80h-10q-7 1 -21 5q-20 5 -43 5q-34 0 -76 -30q-16 -12 -34 -30l-65 -370h-100z" />
    <glyph glyph-name="s" unicode="s" horiz-adv-x="460" 
d="M60 17q-28 13 -43 28l46 60h10q12 -12 31 -23q40 -22 91 -22q115 0 127 70q1 4 1 11q0 27 -25 42.5t-77 33.5q-44 15 -72 29t-47.5 37t-19.5 58q0 8 2 24q12 67 66 106t149 39q72 0 124 -28q26 -12 42 -27l-46 -60h-10q-12 10 -30 22q-40 23 -82 23q-50 0 -77.5 -18
t-33.5 -47q-1 -4 -1 -11q0 -27 24.5 -42t76.5 -34q46 -17 73.5 -30.5t47 -37t19.5 -58.5q0 -6 -2 -22q-13 -71 -69.5 -110.5t-161.5 -39.5q-81 0 -133 27z" />
    <glyph glyph-name="t" unicode="t" horiz-adv-x="400" 
d="M130.5 24.5q-37.5 34.5 -37.5 92.5q0 17 3 33l49 280h-75l11 60l153 130h45l-21 -120h125l-13 -70h-125l-49 -280q-3 -15 -3 -26q0 -32 16.5 -48t45.5 -16q32 0 63 20q14 9 29 20h10l25 -60q-26 -17 -45 -25q-52 -25 -104 -25q-65 0 -102.5 34.5z" />
    <glyph glyph-name="u" unicode="u" horiz-adv-x="550" 
d="M113.5 26.5q-38.5 36.5 -38.5 97.5q0 18 3 36l60 340h100l-60 -340q-2 -14 -2 -21q0 -33 22 -53.5t58 -20.5q21 0 39.5 8t40.5 22q18 14 36 30l66 375h100l-88 -500h-70v60h-5q-17 -20 -41 -35q-50 -35 -116 -35t-104.5 36.5z" />
    <glyph glyph-name="v" unicode="v" horiz-adv-x="470" 
d="M78 500h100l46 -330q2 -12 2 -27v-19q0 -16 -1 -24h4q4 16 7 24q7 25 18 46l164 330h100l-248 -500h-120z" />
    <glyph glyph-name="w" unicode="w" horiz-adv-x="710" 
d="M78 500h95l26 -305q1 -8 1 -23q0 -14 -1 -21l-2 -21h4q4 14 7 21q11 34 16 44l134 305h120l26 -305q2 -31 1 -44l-2 -21h4q2 11 6 21q11 34 16 44l134 305h95l-218 -500h-110l-30 315q-2 10 -2 24.5v19.5q0 17 1 26h-4q-2 -6 -4 -12.5t-4 -13.5q-5 -16 -17 -44l-140 -315
h-110z" />
    <glyph glyph-name="x" unicode="x" horiz-adv-x="460" 
d="M189 255l-106 245h110l55 -140q2 -7 4 -13.5t4 -12.5l3 -14h4l8 14q2 3 7 11.5t10 14.5l105 140h110l-194 -245l111 -255h-110l-60 145q-2 5 -4 13t-4 13l-3 14h-4l-8 -14q-2 -3 -7 -11.5t-10 -14.5l-110 -145h-110z" />
    <glyph glyph-name="y" unicode="y" horiz-adv-x="475" 
d="M2 -195q-14 6 -24 15l36 65h10q7 -9 14 -13q15 -12 37 -12q26 0 49 19.5t38 50.5l33 70h-40l-77 500h100l51 -330q3 -13 5 -51l2 -29h4l12 29l9 23q8 20 12 28l150 330h100l-261 -570q-28 -63 -78 -101.5t-112 -38.5q-40 0 -70 15z" />
    <glyph glyph-name="z" unicode="z" horiz-adv-x="440" 
d="M10 0l13 75l307 355h-245l13 70h365l-14 -75l-307 -355h250l-12 -70h-370z" />
    <glyph glyph-name="braceleft" unicode="{" horiz-adv-x="325" 
d="M130.5 336.5q21.5 21.5 31.5 73.5l32 180q12 62 62 101t127 39h35l-12 -70h-35q-30 0 -51 -18.5t-26 -51.5l-32 -180q-14 -77 -59 -110q-18 -15 -44 -20q20 -4 36 -20q25 -27 25 -72q0 -19 -4 -38l-32 -180q-2 -12 -2 -18q0 -25 14.5 -38.5t40.5 -13.5h35l-12 -70h-35
q-69 0 -106 31.5t-37 83.5q0 9 2 25l32 180q3 21 3 36q0 32 -15 45.5t-46 13.5l12 70q39 0 60.5 21.5z" />
    <glyph glyph-name="bar" unicode="|" horiz-adv-x="280" 
d="M29 -200l159 900h100l-159 -900h-100z" />
    <glyph glyph-name="braceright" unicode="}" horiz-adv-x="325" 
d="M242 223.5q-22 -21.5 -31 -73.5l-32 -180q-12 -62 -62 -101t-127 -39h-34l12 70h34q30 0 50.5 18.5t26.5 51.5l32 180q13 72 59 110q20 16 44 20q-22 5 -36 20q-25 25 -25 72q0 19 4 38l32 180q1 6 1 17q0 26 -14 39.5t-40 13.5h-35l12 70h35q69 0 106 -31.5t37 -83.5
q0 -9 -2 -25l-32 -180q-4 -19 -4 -37q0 -31 15 -44.5t47 -13.5l-12 -70q-39 0 -61 -21.5z" />
    <glyph glyph-name="asciitilde" unicode="~" horiz-adv-x="490" 
d="M300.5 254q-19.5 9 -44.5 27q-19 14 -34 21.5t-33 7.5q-20 0 -38.5 -12.5t-31.5 -27.5t-11 -15h-9l-46 50q20 38 61.5 66.5t90.5 28.5q28 0 47 -9t45 -27q20 -15 34 -22t33 -7q20 0 38 12t28.5 25.5t13.5 17.5h9l46 -50q-17 -37 -59.5 -66t-91.5 -29q-28 0 -47.5 9z" />
    <glyph glyph-name="uni00A0" unicode="&#xa0;" horiz-adv-x="290" 
 />
    <glyph glyph-name="exclamdown" unicode="&#xa1;" horiz-adv-x="290" 
d="M158.5 489q20.5 21 50.5 21q23 0 37 -13t14 -34q0 -31 -21 -52t-51 -21q-22 0 -36 13t-14 34q0 31 20.5 52zM136 320h80l-72 -520h-120z" />
    <glyph glyph-name="cent" unicode="&#xa2;" horiz-adv-x="455" 
d="M184 -3q-123 30 -123 175q0 33 8 78q20 110 73.5 174.5t131.5 80.5l9 55h100l-9 -55q40 -8 78 -30q19 -12 28 -20l-46 -60h-10q-14 12 -29 22q-18 11 -35 17t-38 6q-56 0 -96 -45t-57 -145q-7 -39 -7 -73q0 -62 26 -89.5t77 -27.5q35 0 81 22q22 12 37 23h10l24 -60
q-22 -14 -38 -22q-48 -24 -96 -30l-11 -63h-100z" />
    <glyph glyph-name="sterling" unicode="&#xa3;" horiz-adv-x="475" 
d="M12 70q24 8 43 30q45 49 64 150l14 80h-65l12 70h65l25 140q8 47 37.5 86t74 61.5t93.5 22.5q72 0 119 -28q22 -12 36 -27l-46 -60h-10q-10 12 -25 22q-36 23 -77 23q-35 0 -64.5 -28t-37.5 -72l-25 -140h135l-12 -70h-135l-14 -80q-19 -97 -61 -146q-22 -25 -41 -34h335
l-12 -70h-440z" />
    <glyph glyph-name="currency" unicode="&#xa4;" horiz-adv-x="575" 
d="M104 170h-80l11 60h80l7 40h-80l11 60h80l65 370h180q216 0 216 -166q0 -22 -5 -54q-18 -101 -89.5 -155.5t-197.5 -54.5h-80l-7 -40h250l-11 -60h-250l-29 -170h-100zM313 330q151 0 176 150q4 20 4 42q0 108 -127 108h-80l-53 -300h80z" />
    <glyph glyph-name="yen" unicode="&#xa5;" horiz-adv-x="530" 
d="M221 180h-150l13 70h141l-16 55h-116l13 70h84l-92 325h105l86 -305q6 -25 7 -39q1 -7 1 -21h4l8 21q7 17 20 39l194 305h105l-206 -325h84l-13 -70h-116l-34 -55h141l-13 -70h-150l-31 -180h-100z" />
    <glyph glyph-name="brokenbar" unicode="&#xa6;" horiz-adv-x="280" 
d="M121 320l67 380h100l-67 -380h-100zM29 -200l67 380h100l-67 -380h-100z" />
    <glyph glyph-name="section" unicode="&#xa7;" 
d="M44 -183q-26 12 -42 28l46 60h10q12 -12 31 -23q40 -22 91 -22q62 0 97.5 26.5t44.5 73.5q1 5 1 15q0 35 -27 55.5t-85 45.5q-48 21 -77 38.5t-50 46.5t-21 72q0 16 3 32q19 100 101 146q-46 37 -46 93q0 15 3 31q15 81 76.5 128t164.5 47q72 0 124 -28q25 -13 41 -27
l-46 -60h-10q-12 10 -30 22q-40 23 -82 23q-58 0 -93.5 -26t-42.5 -69q-1 -5 -1 -15q0 -35 28 -56t84 -45q49 -22 77.5 -39.5t49.5 -46.5t21 -71q0 -15 -3 -32q-18 -102 -99 -148q44 -37 44 -91q0 -15 -3 -31q-15 -85 -77.5 -132.5t-169.5 -47.5q-81 0 -133 27zM363.5 182.5
q22.5 29.5 22.5 64.5q0 43 -37.5 70.5t-99.5 47.5q-37 -13 -59.5 -42.5t-22.5 -64.5q0 -43 37.5 -70.5t99.5 -47.5q37 13 59.5 42.5z" />
    <glyph glyph-name="dieresis" unicode="&#xa8;" horiz-adv-x="305" 
d="M105.5 576.5q-12.5 11.5 -12.5 31.5q0 8 1 12q4 24 22.5 39.5t42.5 15.5q21 0 33.5 -12.5t12.5 -32.5q0 -6 -1 -10q-5 -24 -23 -39.5t-42 -15.5q-21 0 -33.5 11.5zM280.5 576.5q-12.5 11.5 -12.5 31.5q0 8 1 12q4 24 22.5 39.5t42.5 15.5q21 0 33.5 -12.5t12.5 -32.5
q0 -6 -1 -10q-5 -24 -23 -39.5t-42 -15.5q-21 0 -33.5 11.5z" />
    <glyph glyph-name="copyright" unicode="&#xa9;" horiz-adv-x="860" 
d="M224.5 8.5q-74.5 38.5 -115 107t-40.5 158.5q0 40 7 76q20 109 84.5 195.5t161.5 135.5t211 49q100 0 174.5 -38.5t115 -107.5t40.5 -159q0 -39 -7 -75q-20 -109 -84.5 -195.5t-161.5 -135.5t-211 -49q-100 0 -174.5 38.5zM571.5 80q75.5 40 127 111t67.5 159q6 32 6 62
q0 73 -31.5 129t-88.5 87.5t-131 31.5q-85 0 -160.5 -40t-127 -110.5t-67.5 -159.5q-6 -31 -6 -62q0 -73 31.5 -129t88.5 -87.5t132 -31.5q84 0 159.5 40zM322.5 165.5q-42.5 40.5 -42.5 120.5q0 30 6 64q20 109 80.5 167t144.5 58q53 0 101 -25q18 -10 35 -25l-39 -50h-9
q-13 10 -26 17q-32 18 -64 18q-48 0 -83.5 -39t-49.5 -121q-5 -26 -5 -57q0 -103 92 -103q34 0 70 17q18 8 32 18h9l21 -50q-23 -16 -44 -25q-52 -25 -109 -25q-77 0 -119.5 40.5z" />
    <glyph glyph-name="ordfeminine" unicode="&#xaa;" horiz-adv-x="360" 
d="M115.5 373.5q-27.5 23.5 -27.5 61.5q0 6 2 20q9 51 51.5 80.5t122.5 29.5h45l5 25q1 4 1 12q0 22 -15 35t-41 13q-27 0 -59 -15q-12 -7 -21 -15h-10l-18 45q15 11 37 22q48 23 97 23q59 0 90 -25.5t31 -70.5q0 -8 -2 -24l-41 -230h-69l1 40h-5q-14 -16 -27 -25
q-33 -25 -71 -25q-49 0 -76.5 23.5zM268 425q12 7 19 15l12 65h-45q-33 0 -51.5 -13t-22.5 -37q-1 -3 -1 -9q0 -16 11.5 -26t31.5 -10q24 0 46 15z" />
    <glyph glyph-name="guillemotleft" unicode="&#xab;" horiz-adv-x="475" 
d="M275 60l-75 -60l-171 250l259 250l54 -60l-193 -190zM446 465l55 -60l-157 -155l102 -155l-75 -60l-147 215z" />
    <glyph glyph-name="logicalnot" unicode="&#xac;" horiz-adv-x="460" 
d="M357 240l16 90h-310l14 80h400l-30 -170h-90z" />
    <glyph glyph-name="uni00AD" unicode="&#xad;" horiz-adv-x="440" 
d="M56 290l14 80h380l-14 -80h-380z" />
    <glyph glyph-name="registered" unicode="&#xae;" horiz-adv-x="860" 
d="M224.5 8.5q-74.5 38.5 -115 107t-40.5 158.5q0 40 7 76q20 109 84.5 195.5t161.5 135.5t211 49q100 0 174.5 -38.5t115 -107.5t40.5 -159q0 -39 -7 -75q-20 -109 -84.5 -195.5t-161.5 -135.5t-211 -49q-100 0 -174.5 38.5zM571.5 80q75.5 40 127 111t67.5 159q6 32 6 62
q0 73 -31.5 129t-88.5 87.5t-131 31.5q-85 0 -160.5 -40t-127 -110.5t-67.5 -159.5q-6 -31 -6 -62q0 -73 31.5 -129t88.5 -87.5t132 -31.5q84 0 159.5 40zM354 565h146q80 0 119 -28.5t39 -81.5q0 -58 -33 -99.5t-82 -55.5l71 -165h-95l-63 150h-61l-27 -150h-90zM462 350
q48 0 72.5 18t30.5 57q2 16 2 21q0 28 -18.5 41t-59.5 13h-56l-27 -150h56z" />
    <glyph glyph-name="macron" unicode="&#xaf;" horiz-adv-x="310" 
d="M99 590l12 70h270l-12 -70h-270z" />
    <glyph glyph-name="degree" unicode="&#xb0;" horiz-adv-x="380" 
d="M125.5 406.5q-38.5 36.5 -38.5 97.5q0 18 3 36q12 75 68.5 122.5t131.5 47.5q66 0 104.5 -37.5t38.5 -99.5q0 -16 -3 -33q-13 -75 -69.5 -122.5t-130.5 -47.5q-66 0 -104.5 36.5zM303.5 462q27.5 27 36.5 78q3 17 3 30q0 37 -17.5 56t-47.5 19q-35 0 -62 -27t-36 -78
q-3 -18 -3 -32q0 -36 17.5 -54.5t46.5 -18.5q35 0 62.5 27z" />
    <glyph glyph-name="plusminus" unicode="&#xb1;" horiz-adv-x="490" 
d="M31 95l14 80h165l24 135h-165l14 80h165l29 165h80l-29 -165h165l-14 -80h-165l-24 -135h165l-14 -80h-410z" />
    <glyph glyph-name="uni00B2" unicode="&#xb2;" horiz-adv-x="330" 
d="M80 400q6 35 25.5 59t42 38.5t59.5 32.5q36 17 55 31t22 34q2 12 2 16q0 39 -49 39q-29 0 -57 -15q-12 -7 -21 -15h-10l-18 45q15 11 37 22q48 23 97 23q52 0 81.5 -25.5t29.5 -67.5q0 -38 -18.5 -64.5t-44 -42t-64.5 -32.5q-37 -16 -55 -28t-20 -30h170l-11 -60h-260z
" />
    <glyph glyph-name="uni00B3" unicode="&#xb3;" horiz-adv-x="321" 
d="M93 372q-20 12 -29 23l34 45h10q6 -9 16 -15q21 -15 54 -15q63 0 74 50q1 4 1 10q0 40 -63 40h-66l9 50l134 80h-144l11 60h234l-12 -65l-121 -65q52 0 80.5 -24t28.5 -65q0 -35 -20 -65t-57 -48t-85 -18q-51 0 -89 22z" />
    <glyph glyph-name="acute" unicode="&#xb4;" horiz-adv-x="175" 
d="M81 550l72 150h110l-117 -150h-65z" />
    <glyph glyph-name="uni00B5" unicode="&#xb5;" horiz-adv-x="550" 
d="M138 500h100l-60 -340q-2 -14 -2 -21q0 -33 22 -53.5t58 -20.5q39 0 79 25q15 9 35 25l68 385h100l-88 -500h-70l-2 50h-5q-20 -17 -42 -30q-54 -30 -98 -30q-31 0 -59 15q-12 6 -21 15l-33 -190l-36 -30h-70z" />
    <glyph glyph-name="paragraph" unicode="&#xb6;" horiz-adv-x="565" 
d="M251 290q-47 0 -85.5 21.5t-60 60t-21.5 86.5q0 18 3 37q9 56 44.5 103t86.5 74.5t105 27.5h330l-12 -70h-80l-147 -830h-90l147 830h-70l-147 -830h-90z" />
    <glyph glyph-name="periodcentered" unicode="&#xb7;" horiz-adv-x="290" 
d="M141 389q21 21 51 21q22 0 36 -13t14 -34q0 -31 -20.5 -52t-50.5 -21q-23 0 -37 13t-14 34q0 31 21 52z" />
    <glyph glyph-name="cedilla" unicode="&#xb8;" horiz-adv-x="195" 
d="M-25 -180q-14 6 -19 10l22 40h9q1 -1 6.5 -4.5t15 -7t20.5 -3.5q18 0 31 10t15 25q3 16 -7 25.5t-32 9.5h-40l17 95h60l-9 -50q36 0 56.5 -18t20.5 -47q0 -40 -30.5 -67.5t-79.5 -27.5q-32 0 -56 10z" />
    <glyph glyph-name="uni00B9" unicode="&#xb9;" horiz-adv-x="325" 
d="M88 360l11 60h75l33 190l-66 -35l-22 45l109 80h85l-49 -280h75l-11 -60h-240z" />
    <glyph glyph-name="ordmasculine" unicode="&#xba;" horiz-adv-x="390" 
d="M134 384.5q-35 34.5 -35 99.5q0 23 4 46q15 85 67 132.5t125 47.5q62 0 97 -34.5t35 -99.5q0 -23 -4 -46q-15 -85 -67 -132.5t-125 -47.5q-62 0 -97 34.5zM333 530q5 32 5 48q0 72 -54 72q-70 0 -91 -120q-5 -32 -5 -49q0 -71 54 -71q70 0 91 120z" />
    <glyph glyph-name="guillemotright" unicode="&#xbb;" horiz-adv-x="475" 
d="M364 250l-127 190l76 60l171 -250l-259 -250l-55 60zM289 250l-223 -215l-55 60l158 155l-103 155l75 60z" />
    <glyph glyph-name="onequarter" unicode="&#xbc;" horiz-adv-x="760" 
d="M80 0l593 700h110l-593 -700h-110zM88 360l11 60h75l33 190l-66 -35l-22 45l109 80h85l-49 -280h75l-11 -60h-240zM560 0l12 70h-170l10 60l207 210h90l-37 -210h50l-10 -60h-50l-12 -70h-90zM582 130l16 90q1 5 8 27l6 16h-4l-9 -17q-10 -18 -18 -26l-89 -90h90z" />
    <glyph glyph-name="onehalf" unicode="&#xbd;" horiz-adv-x="750" 
d="M80 0l593 700h110l-593 -700h-110zM88 360l11 60h75l33 190l-66 -35l-22 45l109 80h85l-49 -280h75l-11 -60h-240zM437 40q9 50 41 77t86 53q38 18 56 31.5t21 33.5q1 5 1 14q0 41 -48 41q-26 0 -58 -15q-12 -7 -21 -15h-10l-18 45q15 11 37 22q48 23 97 23
q52 0 82 -26.5t30 -68.5q0 -38 -18.5 -64t-44 -41.5t-65.5 -33.5q-38 -17 -55 -28t-20 -28h170l-10 -60h-260z" />
    <glyph glyph-name="threequarters" unicode="&#xbe;" horiz-adv-x="750" 
d="M70 0l593 700h110l-593 -700h-110zM108 372q-20 12 -29 23l34 45h10q6 -9 16 -15q21 -15 54 -15q63 0 74 50q1 4 1 10q0 40 -63 40h-66l9 50l134 80h-144l11 60h234l-12 -65l-121 -65q52 0 80.5 -24t28.5 -65q0 -35 -20 -65t-57 -48t-85 -18q-51 0 -89 22zM550 0l12 70
h-170l10 60l207 210h90l-37 -210h50l-10 -60h-50l-12 -70h-90zM572 130l16 90q1 5 8 27l6 16h-4l-9 -17q-10 -18 -18 -26l-89 -90h90z" />
    <glyph glyph-name="questiondown" unicode="&#xbf;" horiz-adv-x="460" 
d="M373 411q-21 -21 -51 -21q-22 0 -36 13t-14 34q0 31 20.5 52t50.5 21q23 0 37 -13t14 -34q0 -31 -21 -52zM355 320l-7 -40q-10 -59 -41.5 -95.5t-87.5 -76.5q-35 -26 -54.5 -42.5t-35 -40.5t-20.5 -55q-2 -12 -2 -18q0 -40 31.5 -66t86.5 -26q54 0 108 22q28 13 40 23h10
l24 -60q-21 -15 -54 -28q-63 -27 -151 -27q-94 0 -144 42t-50 112q0 18 3 36q7 43 27 74t44.5 51t65.5 48q50 34 76.5 60t33.5 67l7 40h90z" />
    <glyph glyph-name="Agrave" unicode="&#xc0;" horiz-adv-x="570" 
d="M-10 0l328 700h130l82 -700h-100l-24 180h-230l-86 -180h-100zM399 250l-32 275q-2 12 -2 27.5v19.5q0 16 1 23h-4q-4 -16 -7 -24q-9 -26 -18 -46l-128 -275h190zM363 750l-63 150h110l18 -150h-65z" />
    <glyph glyph-name="Aacute" unicode="&#xc1;" horiz-adv-x="570" 
d="M-10 0l328 700h130l82 -700h-100l-24 180h-230l-86 -180h-100zM399 250l-32 275q-2 12 -2 27.5v19.5q0 16 1 23h-4q-4 -16 -7 -24q-9 -26 -18 -46l-128 -275h190zM343 750l72 150h110l-117 -150h-65z" />
    <glyph glyph-name="Acircumflex" unicode="&#xc2;" horiz-adv-x="570" 
d="M-10 0l328 700h130l82 -700h-100l-24 180h-230l-86 -180h-100zM399 250l-32 275q-2 12 -2 27.5v19.5q0 16 1 23h-4q-4 -16 -7 -24q-9 -26 -18 -46l-128 -275h190zM251 750l128 130h70l82 -130h-65l-63 65l-87 -65h-65z" />
    <glyph glyph-name="Atilde" unicode="&#xc3;" horiz-adv-x="570" 
d="M-10 0l328 700h130l82 -700h-100l-24 180h-230l-86 -180h-100zM399 250l-32 275q-2 12 -2 27.5v19.5q0 16 1 23h-4q-4 -16 -7 -24q-9 -26 -18 -46l-128 -275h190zM402 757q-11 7 -22 20q-2 2 -7 7.5t-11 8t-12 2.5q-26 -1 -39.5 -20.5l-13.5 -19.5h-9l-36 25q20 39 45 62
t60 23q19 0 30.5 -7t22.5 -20q8 -9 14.5 -13.5t15.5 -4.5q13 0 25 9t18.5 18.5t8.5 12.5h9l36 -25q-20 -39 -45 -62t-60 -23q-19 0 -30 7z" />
    <glyph glyph-name="Adieresis" unicode="&#xc4;" horiz-adv-x="570" 
d="M-10 0l328 700h130l82 -700h-100l-24 180h-230l-86 -180h-100zM399 250l-32 275q-2 12 -2 27.5v19.5q0 16 1 23h-4q-4 -16 -7 -24q-9 -26 -18 -46l-128 -275h190zM268.5 766.5q-12.5 11.5 -12.5 31.5q0 8 1 12q4 24 22.5 39.5t42.5 15.5q21 0 33.5 -12.5t12.5 -32.5
q0 -6 -1 -10q-5 -24 -23 -39.5t-42 -15.5q-21 0 -33.5 11.5zM443.5 766.5q-12.5 11.5 -12.5 31.5q0 8 1 12q4 24 22.5 39.5t42.5 15.5q21 0 33.5 -12.5t12.5 -32.5q0 -6 -1 -10q-5 -24 -23 -39.5t-42 -15.5q-21 0 -33.5 11.5z" />
    <glyph glyph-name="Aring" unicode="&#xc5;" horiz-adv-x="570" 
d="M-10 0l328 700h130l82 -700h-100l-24 180h-230l-86 -180h-100zM399 250l-32 275q-2 12 -2 27.5v19.5q0 16 1 23h-4q-4 -16 -7 -24q-9 -26 -18 -46l-128 -275h190zM328 761q-23 21 -23 56q0 12 1 18q8 42 40 68.5t77 26.5q39 0 62 -20.5t23 -54.5q0 -49 -34 -82t-84 -33
q-39 0 -62 21zM428.5 801.5q13.5 11.5 17.5 33.5q1 4 1 12q0 16 -9.5 24.5t-23.5 8.5q-16 0 -29.5 -11.5t-18.5 -33.5q-1 -4 -1 -10q0 -17 9.5 -26t24.5 -9q16 0 29.5 11.5z" />
    <glyph glyph-name="AE" unicode="&#xc6;" horiz-adv-x="815" 
d="M-45 0l418 700h510l-12 -70h-290l-41 -230h230l-12 -70h-230l-46 -260h290l-12 -70h-390l35 200h-230l-120 -200h-100zM217 270h200l64 360h-50z" />
    <glyph glyph-name="Ccedilla" unicode="&#xc7;" horiz-adv-x="515" 
d="M570 655l-46 -60h-10q-12 10 -30 22q-40 23 -82 23q-158 0 -211 -290q-13 -68 -13 -122q0 -168 132 -168q44 0 90 22q26 14 38 23h10l24 -60q-21 -15 -51 -28q-58 -27 -133 -27l-4 -20q36 0 56.5 -18t20.5 -47q0 -40 -30.5 -67.5t-79.5 -27.5q-32 0 -56 10q-14 6 -19 10
l22 40h9q1 -1 6.5 -4.5t15 -7t20.5 -3.5q18 0 31 10t15 25q3 16 -7 25.5t-32 9.5h-40l13 70q-150 30 -150 227q0 56 12 128q32 186 113.5 273t200.5 87q72 0 124 -28q25 -13 41 -27z" />
    <glyph glyph-name="Egrave" unicode="&#xc8;" 
d="M65 0l123 700h390l-12 -70h-290l-41 -230h230l-12 -70h-230l-46 -260h290l-12 -70h-390zM376 750l-63 150h110l18 -150h-65z" />
    <glyph glyph-name="Eacute" unicode="&#xc9;" 
d="M65 0l123 700h390l-12 -70h-290l-41 -230h230l-12 -70h-230l-46 -260h290l-12 -70h-390zM336 750l72 150h110l-117 -150h-65z" />
    <glyph glyph-name="Ecircumflex" unicode="&#xca;" 
d="M65 0l123 700h390l-12 -70h-290l-41 -230h230l-12 -70h-230l-46 -260h290l-12 -70h-390zM255 760l128 130h70l82 -130h-65l-63 65l-87 -65h-65z" />
    <glyph glyph-name="Edieresis" unicode="&#xcb;" 
d="M65 0l123 700h390l-12 -70h-290l-41 -230h230l-12 -70h-230l-46 -260h290l-12 -70h-390zM272.5 776.5q-12.5 11.5 -12.5 31.5q0 8 1 12q4 24 22.5 39.5t42.5 15.5q21 0 33.5 -12.5t12.5 -32.5q0 -6 -1 -10q-5 -24 -23 -39.5t-42 -15.5q-21 0 -33.5 11.5zM447.5 776.5
q-12.5 11.5 -12.5 31.5q0 8 1 12q4 24 22.5 39.5t42.5 15.5q21 0 33.5 -12.5t12.5 -32.5q0 -6 -1 -10q-5 -24 -23 -39.5t-42 -15.5q-21 0 -33.5 11.5z" />
    <glyph glyph-name="Igrave" unicode="&#xcc;" horiz-adv-x="278" 
d="M65 0l123 700h100l-123 -700h-100zM216 750l-63 150h110l18 -150h-65z" />
    <glyph glyph-name="Iacute" unicode="&#xcd;" horiz-adv-x="277" 
d="M65 0l123 700h100l-123 -700h-100zM208 750l72 150h110l-117 -150h-65z" />
    <glyph glyph-name="Icircumflex" unicode="&#xce;" horiz-adv-x="270" 
d="M65 0l123 700h100l-123 -700h-100zM103 760l128 130h70l82 -130h-65l-63 65l-87 -65h-65z" />
    <glyph glyph-name="Idieresis" unicode="&#xcf;" horiz-adv-x="260" 
d="M65 0l123 700h100l-123 -700h-100zM115.5 776.5q-12.5 11.5 -12.5 31.5q0 8 1 12q4 24 22.5 39.5t42.5 15.5q21 0 33.5 -12.5t12.5 -32.5q0 -6 -1 -10q-5 -24 -23 -39.5t-42 -15.5q-21 0 -33.5 11.5zM290.5 776.5q-12.5 11.5 -12.5 31.5q0 8 1 12q4 24 22.5 39.5
t42.5 15.5q21 0 33.5 -12.5t12.5 -32.5q0 -6 -1 -10q-5 -24 -23 -39.5t-42 -15.5q-21 0 -33.5 11.5z" />
    <glyph glyph-name="Eth" unicode="&#xd0;" horiz-adv-x="585" 
d="M121 320h-55l14 80h55l53 300h150q120 0 179.5 -55t59.5 -176q0 -58 -11 -119q-33 -184 -119 -267t-232 -83h-150zM227 70q95 0 153.5 64t85.5 216q11 68 11 111q0 90 -38 129.5t-113 39.5h-50l-41 -230h115l-14 -80h-115l-44 -250h50z" />
    <glyph glyph-name="Ntilde" unicode="&#xd1;" horiz-adv-x="630" 
d="M188 700h110l131 -445q4 -16 11 -54q2 -11 4 -31h4l4 31l3 27q2 18 4 27l79 445h100l-123 -700h-110l-132 445q-5 14 -11 54q-2 11 -4 31h-4l-4 -31l-3 -26q-2 -20 -4 -28l-78 -445h-100zM432 757q-11 7 -22 20q-2 2 -7 7.5t-11 8t-12 2.5q-26 -1 -39.5 -20.5
l-13.5 -19.5h-9l-36 25q20 39 45 62t60 23q19 0 30.5 -7t22.5 -20q8 -9 14.5 -13.5t15.5 -4.5q13 0 25 9t18.5 18.5t8.5 12.5h9l36 -25q-20 -39 -45 -62t-60 -23q-19 0 -30 7z" />
    <glyph glyph-name="Ograve" unicode="&#xd2;" horiz-adv-x="600" 
d="M130 46q-51 56 -51 175q0 57 12 129q32 186 113 273t196 87q92 0 142.5 -55.5t50.5 -174.5q0 -56 -12 -130q-32 -186 -112.5 -273t-195.5 -87q-92 0 -143 56zM400.5 128.5q52.5 68.5 80.5 221.5q13 69 13 124q0 86 -30 126t-77 40q-64 0 -116 -68t-80 -222
q-13 -71 -13 -126q0 -86 29.5 -125t77.5 -39q63 0 115.5 68.5zM388 750l-63 150h110l18 -150h-65z" />
    <glyph glyph-name="Oacute" unicode="&#xd3;" horiz-adv-x="600" 
d="M130 46q-51 56 -51 175q0 57 12 129q32 186 113 273t196 87q92 0 142.5 -55.5t50.5 -174.5q0 -56 -12 -130q-32 -186 -112.5 -273t-195.5 -87q-92 0 -143 56zM400.5 128.5q52.5 68.5 80.5 221.5q13 69 13 124q0 86 -30 126t-77 40q-64 0 -116 -68t-80 -222
q-13 -71 -13 -126q0 -86 29.5 -125t77.5 -39q63 0 115.5 68.5zM358 750l72 150h110l-117 -150h-65z" />
    <glyph glyph-name="Ocircumflex" unicode="&#xd4;" horiz-adv-x="600" 
d="M130 46q-51 56 -51 175q0 57 12 129q32 186 113 273t196 87q92 0 142.5 -55.5t50.5 -174.5q0 -56 -12 -130q-32 -186 -112.5 -273t-195.5 -87q-92 0 -143 56zM400.5 128.5q52.5 68.5 80.5 221.5q13 69 13 124q0 86 -30 126t-77 40q-64 0 -116 -68t-80 -222
q-13 -71 -13 -126q0 -86 29.5 -125t77.5 -39q63 0 115.5 68.5zM268 760l128 130h70l82 -130h-65l-63 65l-87 -65h-65z" />
    <glyph glyph-name="Otilde" unicode="&#xd5;" horiz-adv-x="600" 
d="M130 46q-51 56 -51 175q0 57 12 129q32 186 113 273t196 87q92 0 142.5 -55.5t50.5 -174.5q0 -56 -12 -130q-32 -186 -112.5 -273t-195.5 -87q-92 0 -143 56zM400.5 128.5q52.5 68.5 80.5 221.5q13 69 13 124q0 86 -30 126t-77 40q-64 0 -116 -68t-80 -222
q-13 -71 -13 -126q0 -86 29.5 -125t77.5 -39q63 0 115.5 68.5zM419 767q-11 7 -22 20q-2 2 -7 7.5t-11 8t-12 2.5q-26 -1 -39.5 -20.5l-13.5 -19.5h-9l-36 25q20 39 45 62t60 23q19 0 30.5 -7t22.5 -20q8 -9 14.5 -13.5t15.5 -4.5q13 0 25 9t18.5 18.5t8.5 12.5h9l36 -25
q-20 -39 -45 -62t-60 -23q-19 0 -30 7z" />
    <glyph glyph-name="Odieresis" unicode="&#xd6;" horiz-adv-x="600" 
d="M130 46q-51 56 -51 175q0 57 12 129q32 186 113 273t196 87q92 0 142.5 -55.5t50.5 -174.5q0 -56 -12 -130q-32 -186 -112.5 -273t-195.5 -87q-92 0 -143 56zM400.5 128.5q52.5 68.5 80.5 221.5q13 69 13 124q0 86 -30 126t-77 40q-64 0 -116 -68t-80 -222
q-13 -71 -13 -126q0 -86 29.5 -125t77.5 -39q63 0 115.5 68.5zM285.5 776.5q-12.5 11.5 -12.5 31.5q0 8 1 12q4 24 22.5 39.5t42.5 15.5q21 0 33.5 -12.5t12.5 -32.5q0 -6 -1 -10q-5 -24 -23 -39.5t-42 -15.5q-21 0 -33.5 11.5zM460.5 776.5q-12.5 11.5 -12.5 31.5q0 8 1 12
q4 24 22.5 39.5t42.5 15.5q21 0 33.5 -12.5t12.5 -32.5q0 -6 -1 -10q-5 -24 -23 -39.5t-42 -15.5q-21 0 -33.5 11.5z" />
    <glyph glyph-name="multiply" unicode="&#xd7;" horiz-adv-x="437" 
d="M104 157l-47 56l138 117l-97 117l67 56l97 -116l136 116l47 -56l-137 -117l96 -117l-67 -56l-95 116z" />
    <glyph glyph-name="Oslash" unicode="&#xd8;" horiz-adv-x="600" 
d="M141 35l-26 -35h-80l66 89q-23 52 -23 127q0 60 13 134q32 186 113 273t196 87q82 0 132 -45l26 35h80l-67 -90q23 -51 23 -127q0 -61 -13 -133q-32 -186 -112.5 -273t-195.5 -87q-86 0 -132 45zM473 586q-26 54 -86 54q-64 0 -116 -68t-80 -222q-12 -73 -12 -125
q0 -21 1 -31zM400.5 128.5q52.5 68.5 80.5 221.5q13 72 13 128q0 18 -1 27l-294 -392q27 -53 86 -53q63 0 115.5 68.5z" />
    <glyph glyph-name="Ugrave" unicode="&#xd9;" horiz-adv-x="620" 
d="M141 33q-49 43 -49 126q0 28 6 61l85 480h100l-85 -480q-5 -30 -5 -50q0 -56 26.5 -83t75.5 -27q59 0 99 39.5t54 120.5l85 480h100l-85 -480q-20 -113 -88 -171.5t-177 -58.5q-93 0 -142 43zM394 730l-63 150h110l18 -150h-65z" />
    <glyph glyph-name="Uacute" unicode="&#xda;" horiz-adv-x="620" 
d="M141 33q-49 43 -49 126q0 28 6 61l85 480h100l-85 -480q-5 -30 -5 -50q0 -56 26.5 -83t75.5 -27q59 0 99 39.5t54 120.5l85 480h100l-85 -480q-20 -113 -88 -171.5t-177 -58.5q-93 0 -142 43zM374 730l72 150h110l-117 -150h-65z" />
    <glyph glyph-name="Ucircumflex" unicode="&#xdb;" horiz-adv-x="620" 
d="M141 33q-49 43 -49 126q0 28 6 61l85 480h100l-85 -480q-5 -30 -5 -50q0 -56 26.5 -83t75.5 -27q59 0 99 39.5t54 120.5l85 480h100l-85 -480q-20 -113 -88 -171.5t-177 -58.5q-93 0 -142 43zM278 760l128 130h70l82 -130h-65l-63 65l-87 -65h-65z" />
    <glyph glyph-name="Udieresis" unicode="&#xdc;" horiz-adv-x="620" 
d="M141 33q-49 43 -49 126q0 28 6 61l85 480h100l-85 -480q-5 -30 -5 -50q0 -56 26.5 -83t75.5 -27q59 0 99 39.5t54 120.5l85 480h100l-85 -480q-20 -113 -88 -171.5t-177 -58.5q-93 0 -142 43zM295.5 776.5q-12.5 11.5 -12.5 31.5q0 8 1 12q4 24 22.5 39.5t42.5 15.5
q21 0 33.5 -12.5t12.5 -32.5q0 -6 -1 -10q-5 -24 -23 -39.5t-42 -15.5q-21 0 -33.5 11.5zM470.5 776.5q-12.5 11.5 -12.5 31.5q0 8 1 12q4 24 22.5 39.5t42.5 15.5q21 0 33.5 -12.5t12.5 -32.5q0 -6 -1 -10q-5 -24 -23 -39.5t-42 -15.5q-21 0 -33.5 11.5z" />
    <glyph glyph-name="Yacute" unicode="&#xdd;" horiz-adv-x="530" 
d="M230 230l-132 470h105l86 -305q6 -25 7 -39q1 -7 1 -21h4l8 21q7 17 20 39l194 305h105l-298 -470l-40 -230h-100zM329 730l72 150h110l-117 -150h-65z" />
    <glyph glyph-name="Thorn" unicode="&#xde;" horiz-adv-x="615" 
d="M191 720h100l-14 -80h90q120 0 183 -55.5t63 -160.5q0 -38 -7 -74q-24 -140 -112.5 -215t-228.5 -75h-90l-14 -80h-100zM277 130q89 0 150 56.5t79 163.5q6 33 6 62q0 77 -42 117.5t-115 40.5h-90l-78 -440h90z" />
    <glyph glyph-name="germandbls" unicode="&#xdf;" horiz-adv-x="620" 
d="M284 5q-15 5 -26 15l36 65h10q7 -9 15 -13q19 -12 46 -12q49 0 82 28.5t42 81.5q2 12 2 18q0 29 -15 51t-45 51q-34 33 -52 60.5t-18 68.5q0 15 3 31q3 17 9 30t17 30q11 18 16.5 30.5t8.5 29.5q1 5 1 13q0 25 -15.5 41t-38.5 16q-35 0 -59 -23t-32 -67l-96 -550h-100
l74 420h-65l12 70h65l10 60q12 72 65.5 116t128.5 44t113.5 -31.5t38.5 -83.5q0 -9 -2 -25q-4 -21 -12 -35.5t-22 -29.5q-15 -19 -22 -33.5t-7 -37.5q0 -26 15 -45.5t47 -47.5q39 -33 59.5 -61t20.5 -70q0 -13 -3 -30q-16 -87 -77 -138.5t-151 -51.5q-47 0 -79 15z" />
    <glyph glyph-name="agrave" unicode="&#xe0;" 
d="M78.5 21.5q-36.5 31.5 -36.5 88.5q0 17 3 35q13 71 71.5 110.5t170.5 39.5h80l4 25q4 26 4 35q0 42 -23 63.5t-65 21.5q-34 0 -82 -23q-22 -12 -36 -22h-10l-24 60q24 16 49 27q58 28 125 28q76 0 120.5 -42.5t44.5 -110.5q0 -17 -3 -37l-56 -320h-70v60h-5
q-17 -20 -41 -35q-50 -35 -116 -35q-68 0 -104.5 31.5zM260.5 73q18.5 8 40.5 22q18 13 36 30l17 100h-80q-65 0 -98 -28t-33 -71q0 -30 19.5 -45.5t58.5 -15.5q21 0 39.5 8zM298 550l-63 150h110l18 -150h-65z" />
    <glyph glyph-name="aacute" unicode="&#xe1;" 
d="M78.5 21.5q-36.5 31.5 -36.5 88.5q0 17 3 35q13 71 71.5 110.5t170.5 39.5h80l4 25q4 26 4 35q0 42 -23 63.5t-65 21.5q-34 0 -82 -23q-22 -12 -36 -22h-10l-24 60q24 16 49 27q58 28 125 28q76 0 120.5 -42.5t44.5 -110.5q0 -17 -3 -37l-56 -320h-70v60h-5
q-17 -20 -41 -35q-50 -35 -116 -35q-68 0 -104.5 31.5zM260.5 73q18.5 8 40.5 22q18 13 36 30l17 100h-80q-65 0 -98 -28t-33 -71q0 -30 19.5 -45.5t58.5 -15.5q21 0 39.5 8zM278 550l72 150h110l-117 -150h-65z" />
    <glyph glyph-name="acircumflex" unicode="&#xe2;" 
d="M78.5 21.5q-36.5 31.5 -36.5 88.5q0 17 3 35q13 71 71.5 110.5t170.5 39.5h80l4 25q4 26 4 35q0 42 -23 63.5t-65 21.5q-34 0 -82 -23q-22 -12 -36 -22h-10l-24 60q24 16 49 27q58 28 125 28q76 0 120.5 -42.5t44.5 -110.5q0 -17 -3 -37l-56 -320h-70v60h-5
q-17 -20 -41 -35q-50 -35 -116 -35q-68 0 -104.5 31.5zM260.5 73q18.5 8 40.5 22q18 13 36 30l17 100h-80q-65 0 -98 -28t-33 -71q0 -30 19.5 -45.5t58.5 -15.5q21 0 39.5 8zM188 560l128 130h70l82 -130h-65l-63 65l-87 -65h-65z" />
    <glyph glyph-name="atilde" unicode="&#xe3;" 
d="M78.5 21.5q-36.5 31.5 -36.5 88.5q0 17 3 35q13 71 71.5 110.5t170.5 39.5h80l4 25q4 26 4 35q0 42 -23 63.5t-65 21.5q-34 0 -82 -23q-22 -12 -36 -22h-10l-24 60q24 16 49 27q58 28 125 28q76 0 120.5 -42.5t44.5 -110.5q0 -17 -3 -37l-56 -320h-70v60h-5
q-17 -20 -41 -35q-50 -35 -116 -35q-68 0 -104.5 31.5zM260.5 73q18.5 8 40.5 22q18 13 36 30l17 100h-80q-65 0 -98 -28t-33 -71q0 -30 19.5 -45.5t58.5 -15.5q21 0 39.5 8zM339 568q-11 7 -22 20q-2 2 -7 7.5t-11 8t-12 2.5q-26 -1 -39.5 -20.5l-13.5 -19.5h-9l-36 25
q20 39 45 62t60 23q19 0 30.5 -7t22.5 -20q8 -9 14.5 -13.5t15.5 -4.5q13 0 25 9t18.5 18.5t8.5 12.5h9l36 -25q-20 -39 -45 -62t-60 -23q-19 0 -30 7z" />
    <glyph glyph-name="adieresis" unicode="&#xe4;" 
d="M78.5 21.5q-36.5 31.5 -36.5 88.5q0 17 3 35q13 71 71.5 110.5t170.5 39.5h80l4 25q4 26 4 35q0 42 -23 63.5t-65 21.5q-34 0 -82 -23q-22 -12 -36 -22h-10l-24 60q24 16 49 27q58 28 125 28q76 0 120.5 -42.5t44.5 -110.5q0 -17 -3 -37l-56 -320h-70v60h-5
q-17 -20 -41 -35q-50 -35 -116 -35q-68 0 -104.5 31.5zM260.5 73q18.5 8 40.5 22q18 13 36 30l17 100h-80q-65 0 -98 -28t-33 -71q0 -30 19.5 -45.5t58.5 -15.5q21 0 39.5 8zM205.5 576.5q-12.5 11.5 -12.5 31.5q0 8 1 12q4 24 22.5 39.5t42.5 15.5q21 0 33.5 -12.5
t12.5 -32.5q0 -6 -1 -10q-5 -24 -23 -39.5t-42 -15.5q-21 0 -33.5 11.5zM380.5 576.5q-12.5 11.5 -12.5 31.5q0 8 1 12q4 24 22.5 39.5t42.5 15.5q21 0 33.5 -12.5t12.5 -32.5q0 -6 -1 -10q-5 -24 -23 -39.5t-42 -15.5q-21 0 -33.5 11.5z" />
    <glyph glyph-name="aring" unicode="&#xe5;" 
d="M78.5 21.5q-36.5 31.5 -36.5 88.5q0 17 3 35q13 71 71.5 110.5t170.5 39.5h80l4 25q4 26 4 35q0 42 -23 63.5t-65 21.5q-34 0 -82 -23q-22 -12 -36 -22h-10l-24 60q24 16 49 27q58 28 125 28q76 0 120.5 -42.5t44.5 -110.5q0 -17 -3 -37l-56 -320h-70v60h-5
q-17 -20 -41 -35q-50 -35 -116 -35q-68 0 -104.5 31.5zM260.5 73q18.5 8 40.5 22q18 13 36 30l17 100h-80q-65 0 -98 -28t-33 -71q0 -30 19.5 -45.5t58.5 -15.5q21 0 39.5 8zM266 581q-23 21 -23 56q0 12 1 18q8 42 40 68.5t77 26.5q39 0 62 -20.5t23 -54.5q0 -49 -34 -82
t-84 -33q-39 0 -62 21zM366.5 621.5q13.5 11.5 17.5 33.5q1 4 1 12q0 16 -9.5 24.5t-23.5 8.5q-16 0 -29.5 -11.5t-18.5 -33.5q-1 -4 -1 -10q0 -17 9.5 -26t24.5 -9q16 0 29.5 11.5z" />
    <glyph glyph-name="ae" unicode="&#xe6;" horiz-adv-x="785" 
d="M78.5 21.5q-36.5 31.5 -36.5 88.5q0 17 3 35q13 71 71.5 110.5t170.5 39.5h80l4 25q4 26 4 35q0 42 -23 63.5t-65 21.5q-34 0 -82 -23q-22 -12 -36 -22h-10l-24 60q24 16 49 27q58 28 125 28q55 0 89.5 -20t47.5 -55q34 35 74 55t84 20q75 0 118.5 -47t43.5 -138
q0 -37 -7 -75l-3 -15l-24 -20h-280q-5 -28 -5 -46q0 -54 26.5 -81.5t71.5 -27.5q35 0 81 22q22 12 37 23h10l24 -60q-20 -15 -50 -28q-56 -27 -124 -27q-51 0 -90 20t-59 60q-23 -21 -54 -40q-70 -40 -137 -40q-68 0 -104.5 31.5zM665 285q5 33 5 54q0 51 -21 76t-57 25
q-44 0 -78.5 -38.5t-48.5 -116.5h200zM260.5 73q18.5 8 40.5 22q18 13 36 30l17 100h-80q-65 0 -98 -28t-33 -71q0 -30 19.5 -45.5t58.5 -15.5q21 0 39.5 8z" />
    <glyph glyph-name="ccedilla" unicode="&#xe7;" horiz-adv-x="455" 
d="M480 455l-46 -60h-10q-14 12 -29 22q-18 11 -35 17t-38 6q-56 0 -96 -45t-57 -145q-7 -39 -7 -73q0 -62 26 -89.5t77 -27.5q35 0 81 22q22 12 37 23h10l24 -60q-20 -15 -50 -28q-55 -26 -117 -27l-4 -20q36 0 56.5 -18t20.5 -47q0 -40 -30.5 -67.5t-79.5 -27.5
q-32 0 -56 10q-14 6 -19 10l22 40h9q1 -1 6.5 -4.5t15 -7t20.5 -3.5q18 0 31 10t15 25q3 16 -7 25.5t-32 9.5h-40l12 70q-62 12 -95 56.5t-33 121.5q0 38 7 77q23 128 90.5 194t164.5 66q65 0 115 -28q24 -13 41 -27z" />
    <glyph glyph-name="egrave" unicode="&#xe8;" horiz-adv-x="505" 
d="M109 36q-47 46 -47 137q0 38 7 77q21 127 88.5 193.5t161.5 66.5q78 0 122.5 -47t44.5 -138q0 -28 -7 -75l-3 -15l-24 -20h-290q-5 -28 -5 -46q0 -54 28.5 -81.5t79.5 -27.5q35 0 81 22q22 12 37 23h10l24 -60q-20 -15 -50 -28q-56 -27 -124 -27q-87 0 -134 46zM385 285
q5 33 5 53q0 52 -22 77t-61 25q-48 0 -83 -38.5t-49 -116.5h210zM296 550l-63 150h110l18 -150h-65z" />
    <glyph glyph-name="eacute" unicode="&#xe9;" horiz-adv-x="505" 
d="M109 36q-47 46 -47 137q0 38 7 77q21 127 88.5 193.5t161.5 66.5q78 0 122.5 -47t44.5 -138q0 -28 -7 -75l-3 -15l-24 -20h-290q-5 -28 -5 -46q0 -54 28.5 -81.5t79.5 -27.5q35 0 81 22q22 12 37 23h10l24 -60q-20 -15 -50 -28q-56 -27 -124 -27q-87 0 -134 46zM385 285
q5 33 5 53q0 52 -22 77t-61 25q-48 0 -83 -38.5t-49 -116.5h210zM286 550l72 150h110l-117 -150h-65z" />
    <glyph glyph-name="ecircumflex" unicode="&#xea;" horiz-adv-x="505" 
d="M109 36q-47 46 -47 137q0 38 7 77q21 127 88.5 193.5t161.5 66.5q78 0 122.5 -47t44.5 -138q0 -28 -7 -75l-3 -15l-24 -20h-290q-5 -28 -5 -46q0 -54 28.5 -81.5t79.5 -27.5q35 0 81 22q22 12 37 23h10l24 -60q-20 -15 -50 -28q-56 -27 -124 -27q-87 0 -134 46zM385 285
q5 33 5 53q0 52 -22 77t-61 25q-48 0 -83 -38.5t-49 -116.5h210zM185 560l128 130h70l82 -130h-65l-63 65l-87 -65h-65z" />
    <glyph glyph-name="edieresis" unicode="&#xeb;" horiz-adv-x="505" 
d="M109 36q-47 46 -47 137q0 38 7 77q21 127 88.5 193.5t161.5 66.5q78 0 122.5 -47t44.5 -138q0 -28 -7 -75l-3 -15l-24 -20h-290q-5 -28 -5 -46q0 -54 28.5 -81.5t79.5 -27.5q35 0 81 22q22 12 37 23h10l24 -60q-20 -15 -50 -28q-56 -27 -124 -27q-87 0 -134 46zM385 285
q5 33 5 53q0 52 -22 77t-61 25q-48 0 -83 -38.5t-49 -116.5h210zM202.5 576.5q-12.5 11.5 -12.5 31.5q0 8 1 12q4 24 22.5 39.5t42.5 15.5q21 0 33.5 -12.5t12.5 -32.5q0 -6 -1 -10q-5 -24 -23 -39.5t-42 -15.5q-21 0 -33.5 11.5zM377.5 576.5q-12.5 11.5 -12.5 31.5
q0 8 1 12q4 24 22.5 39.5t42.5 15.5q21 0 33.5 -12.5t12.5 -32.5q0 -6 -1 -10q-5 -24 -23 -39.5t-42 -15.5q-21 0 -33.5 11.5z" />
    <glyph glyph-name="igrave" unicode="&#xec;" horiz-adv-x="258" 
d="M176 550l-63 150h110l18 -150h-65zM58 0l88 500h100l-88 -500h-100z" />
    <glyph glyph-name="iacute" unicode="&#xed;" horiz-adv-x="257" 
d="M158 550l72 150h110l-117 -150h-65zM50 0l88 500h100l-88 -500h-100z" />
    <glyph glyph-name="icircumflex" unicode="&#xee;" horiz-adv-x="260" 
d="M63 560l128 130h70l82 -130h-65l-63 65l-87 -65h-65zM55 0l88 500h100l-88 -500h-100z" />
    <glyph glyph-name="idieresis" unicode="&#xef;" horiz-adv-x="260" 
d="M80.5 576.5q-12.5 11.5 -12.5 31.5q0 8 1 12q4 24 22.5 39.5t42.5 15.5q21 0 33.5 -12.5t12.5 -32.5q0 -6 -1 -10q-5 -24 -23 -39.5t-42 -15.5q-21 0 -33.5 11.5zM255.5 576.5q-12.5 11.5 -12.5 31.5q0 8 1 12q4 24 22.5 39.5t42.5 15.5q21 0 33.5 -12.5t12.5 -32.5
q0 -6 -1 -10q-5 -24 -23 -39.5t-42 -15.5q-21 0 -33.5 11.5zM55 0l88 500h100l-88 -500h-100z" />
    <glyph glyph-name="eth" unicode="&#xf0;" horiz-adv-x="515" 
d="M95 36q-47 46 -47 129q0 29 6 60q13 73 47.5 126t81.5 81t98 28q55 0 88.5 -16.5t48.5 -53.5q6 30 6 56q0 73 -51 111l-41 -63l-58 30l41 63q-16 6 -50 13l-53 10l22 70l59 -10q38 -7 65 -16l38 59l59 -29l-38 -59q43 -29 64 -76t21 -116q0 -51 -10 -108l-18 -100
q-20 -111 -87.5 -173t-163.5 -62q-81 0 -128 46zM321.5 101.5q38.5 41.5 52.5 123.5q5 32 5 51q0 54 -24 81.5t-63 27.5q-48 0 -86 -40.5t-52 -119.5q-5 -25 -5 -54q0 -55 23.5 -83t62.5 -28q48 0 86.5 41.5z" />
    <glyph glyph-name="ntilde" unicode="&#xf1;" horiz-adv-x="545" 
d="M138 500h70l-1 -60h5q14 16 41 35q56 35 116 35q65 0 104.5 -37t39.5 -97q0 -10 -4 -36l-59 -340h-100l59 340q2 14 2 21q0 33 -22 53.5t-58 20.5q-38 0 -80 -30q-20 -15 -35 -30l-66 -375h-100zM368 578q-11 7 -22 20q-2 2 -7 7.5t-11 8t-12 2.5q-26 -1 -39.5 -20.5
l-13.5 -19.5h-9l-36 25q20 39 45 62t60 23q19 0 30.5 -7t22.5 -20q8 -9 14.5 -13.5t15.5 -4.5q13 0 25 9t18.5 18.5t8.5 12.5h9l36 -25q-20 -39 -45 -62t-60 -23q-19 0 -30 7z" />
    <glyph glyph-name="ograve" unicode="&#xf2;" horiz-adv-x="530" 
d="M108 36q-46 46 -46 137q0 38 7 77q23 129 91 194.5t169 65.5q84 0 130.5 -47t46.5 -139q0 -27 -7 -74q-23 -128 -91.5 -194t-169.5 -66q-84 0 -130 46zM342 105.5q40 45.5 57 144.5q7 39 7 73q0 61 -24 89t-65 28q-53 0 -92 -45.5t-56 -144.5q-7 -39 -7 -74
q0 -116 88 -116q52 0 92 45.5zM308 550l-63 150h110l18 -150h-65z" />
    <glyph glyph-name="oacute" unicode="&#xf3;" horiz-adv-x="530" 
d="M108 36q-46 46 -46 137q0 38 7 77q23 129 91 194.5t169 65.5q84 0 130.5 -47t46.5 -139q0 -27 -7 -74q-23 -128 -91.5 -194t-169.5 -66q-84 0 -130 46zM342 105.5q40 45.5 57 144.5q7 39 7 73q0 61 -24 89t-65 28q-53 0 -92 -45.5t-56 -144.5q-7 -39 -7 -74
q0 -116 88 -116q52 0 92 45.5zM298 550l72 150h110l-117 -150h-65z" />
    <glyph glyph-name="ocircumflex" unicode="&#xf4;" horiz-adv-x="530" 
d="M108 36q-46 46 -46 137q0 38 7 77q23 129 91 194.5t169 65.5q84 0 130.5 -47t46.5 -139q0 -27 -7 -74q-23 -128 -91.5 -194t-169.5 -66q-84 0 -130 46zM342 105.5q40 45.5 57 144.5q7 39 7 73q0 61 -24 89t-65 28q-53 0 -92 -45.5t-56 -144.5q-7 -39 -7 -74
q0 -116 88 -116q52 0 92 45.5zM198 560l128 130h70l82 -130h-65l-63 65l-87 -65h-65z" />
    <glyph glyph-name="otilde" unicode="&#xf5;" horiz-adv-x="530" 
d="M108 36q-46 46 -46 137q0 38 7 77q23 129 91 194.5t169 65.5q84 0 130.5 -47t46.5 -139q0 -27 -7 -74q-23 -128 -91.5 -194t-169.5 -66q-84 0 -130 46zM342 105.5q40 45.5 57 144.5q7 39 7 73q0 61 -24 89t-65 28q-53 0 -92 -45.5t-56 -144.5q-7 -39 -7 -74
q0 -116 88 -116q52 0 92 45.5zM349 568q-11 7 -22 20q-2 2 -7 7.5t-11 8t-12 2.5q-26 -1 -39.5 -20.5l-13.5 -19.5h-9l-36 25q20 39 45 62t60 23q19 0 30.5 -7t22.5 -20q8 -9 14.5 -13.5t15.5 -4.5q13 0 25 9t18.5 18.5t8.5 12.5h9l36 -25q-20 -39 -45 -62t-60 -23
q-19 0 -30 7z" />
    <glyph glyph-name="odieresis" unicode="&#xf6;" horiz-adv-x="530" 
d="M108 36q-46 46 -46 137q0 38 7 77q23 129 91 194.5t169 65.5q84 0 130.5 -47t46.5 -139q0 -27 -7 -74q-23 -128 -91.5 -194t-169.5 -66q-84 0 -130 46zM342 105.5q40 45.5 57 144.5q7 39 7 73q0 61 -24 89t-65 28q-53 0 -92 -45.5t-56 -144.5q-7 -39 -7 -74
q0 -116 88 -116q52 0 92 45.5zM215.5 576.5q-12.5 11.5 -12.5 31.5q0 8 1 12q4 24 22.5 39.5t42.5 15.5q21 0 33.5 -12.5t12.5 -32.5q0 -6 -1 -10q-5 -24 -23 -39.5t-42 -15.5q-21 0 -33.5 11.5zM390.5 576.5q-12.5 11.5 -12.5 31.5q0 8 1 12q4 24 22.5 39.5t42.5 15.5
q21 0 33.5 -12.5t12.5 -32.5q0 -6 -1 -10q-5 -24 -23 -39.5t-42 -15.5q-21 0 -33.5 11.5z" />
    <glyph glyph-name="divide" unicode="&#xf7;" horiz-adv-x="470" 
d="M251 453q-14 13 -14 34q0 31 20.5 52t50.5 21q23 0 37 -13t14 -34q0 -31 -21 -52t-51 -21q-22 0 -36 13zM56 290l14 80h410l-14 -80h-410zM191 113q-14 13 -14 34q0 31 20.5 52t50.5 21q23 0 37 -13t14 -34q0 -31 -21 -52t-51 -21q-22 0 -36 13z" />
    <glyph glyph-name="oslash" unicode="&#xf8;" horiz-adv-x="530" 
d="M130 18l-15 -18h-80l52 63q-26 43 -26 107q0 34 8 80q23 129 91 194.5t169 65.5q68 0 108 -28l16 18h80l-53 -63q26 -44 26 -112q0 -37 -7 -75q-23 -128 -91.5 -194t-169.5 -66q-64 0 -108 28zM380 414q-23 26 -63 26q-53 0 -92 -45.5t-56 -144.5q-8 -45 -8 -76l1 -21z
M342 105.5q40 45.5 57 144.5q7 41 7 76q0 15 -1 21l-219 -261q21 -26 64 -26q52 0 92 45.5z" />
    <glyph glyph-name="ugrave" unicode="&#xf9;" horiz-adv-x="550" 
d="M113.5 26.5q-38.5 36.5 -38.5 97.5q0 18 3 36l60 340h100l-60 -340q-2 -14 -2 -21q0 -33 22 -53.5t58 -20.5q21 0 39.5 8t40.5 22q18 14 36 30l66 375h100l-88 -500h-70v60h-5q-17 -20 -41 -35q-50 -35 -116 -35t-104.5 36.5zM326 541l-63 150h110l18 -150h-65z" />
    <glyph glyph-name="uacute" unicode="&#xfa;" horiz-adv-x="550" 
d="M113.5 26.5q-38.5 36.5 -38.5 97.5q0 18 3 36l60 340h100l-60 -340q-2 -14 -2 -21q0 -33 22 -53.5t58 -20.5q21 0 39.5 8t40.5 22q18 14 36 30l66 375h100l-88 -500h-70v60h-5q-17 -20 -41 -35q-50 -35 -116 -35t-104.5 36.5zM306 541l72 150h110l-117 -150h-65z" />
    <glyph glyph-name="ucircumflex" unicode="&#xfb;" horiz-adv-x="550" 
d="M113.5 26.5q-38.5 36.5 -38.5 97.5q0 18 3 36l60 340h100l-60 -340q-2 -14 -2 -21q0 -33 22 -53.5t58 -20.5q21 0 39.5 8t40.5 22q18 14 36 30l66 375h100l-88 -500h-70v60h-5q-17 -20 -41 -35q-50 -35 -116 -35t-104.5 36.5zM208 560l128 130h70l82 -130h-65l-63 65
l-87 -65h-65z" />
    <glyph glyph-name="udieresis" unicode="&#xfc;" horiz-adv-x="550" 
d="M113.5 26.5q-38.5 36.5 -38.5 97.5q0 18 3 36l60 340h100l-60 -340q-2 -14 -2 -21q0 -33 22 -53.5t58 -20.5q21 0 39.5 8t40.5 22q18 14 36 30l66 375h100l-88 -500h-70v60h-5q-17 -20 -41 -35q-50 -35 -116 -35t-104.5 36.5zM225.5 576.5q-12.5 11.5 -12.5 31.5
q0 8 1 12q4 24 22.5 39.5t42.5 15.5q21 0 33.5 -12.5t12.5 -32.5q0 -6 -1 -10q-5 -24 -23 -39.5t-42 -15.5q-21 0 -33.5 11.5zM400.5 576.5q-12.5 11.5 -12.5 31.5q0 8 1 12q4 24 22.5 39.5t42.5 15.5q21 0 33.5 -12.5t12.5 -32.5q0 -6 -1 -10q-5 -24 -23 -39.5t-42 -15.5
q-21 0 -33.5 11.5z" />
    <glyph glyph-name="yacute" unicode="&#xfd;" horiz-adv-x="475" 
d="M2 -195q-14 6 -24 15l36 65h10q7 -9 14 -13q15 -12 37 -12q26 0 49 19.5t38 50.5l33 70h-40l-77 500h100l51 -330q3 -13 5 -51l2 -29h4l12 29l9 23q8 20 12 28l150 330h100l-261 -570q-28 -63 -78 -101.5t-112 -38.5q-40 0 -70 15zM269 541l72 150h110l-117 -150h-65z
" />
    <glyph glyph-name="thorn" unicode="&#xfe;" horiz-adv-x="540" 
d="M173 670l35 30h70l-39 -220l35 15q45 15 80 15q75 0 118.5 -47t43.5 -138q0 -37 -7 -75q-23 -127 -89.5 -193.5t-156.5 -66.5q-39 0 -75 15q-16 6 -30 15l-39 -220h-100zM352 105.5q40 45.5 57 144.5q7 39 7 73q0 61 -24 89t-65 28q-32 0 -70 -10q-18 -5 -28 -10
l-60 -340q7 -4 25 -10q32 -10 66 -10q52 0 92 45.5z" />
    <glyph glyph-name="ydieresis" unicode="&#xff;" horiz-adv-x="475" 
d="M2 -195q-14 6 -24 15l36 65h10q7 -9 14 -13q15 -12 37 -12q26 0 49 19.5t38 50.5l33 70h-40l-77 500h100l51 -330q3 -13 5 -51l2 -29h4l12 29l9 23q8 20 12 28l150 330h100l-261 -570q-28 -63 -78 -101.5t-112 -38.5q-40 0 -70 15zM187.5 576.5q-12.5 11.5 -12.5 31.5
q0 8 1 12q4 24 22.5 39.5t42.5 15.5q21 0 33.5 -12.5t12.5 -32.5q0 -6 -1 -10q-5 -24 -23 -39.5t-42 -15.5q-21 0 -33.5 11.5zM362.5 576.5q-12.5 11.5 -12.5 31.5q0 8 1 12q4 24 22.5 39.5t42.5 15.5q21 0 33.5 -12.5t12.5 -32.5q0 -6 -1 -10q-5 -24 -23 -39.5t-42 -15.5
q-21 0 -33.5 11.5z" />
    <glyph glyph-name="Amacron" unicode="&#x100;" horiz-adv-x="570" 
d="M-10 0l328 700h130l82 -700h-100l-24 180h-230l-86 -180h-100zM399 250l-32 275q-2 12 -2 27.5v19.5q0 16 1 23h-4q-4 -16 -7 -24q-9 -26 -18 -46l-128 -275h190zM262 780l12 70h270l-12 -70h-270z" />
    <glyph glyph-name="amacron" unicode="&#x101;" 
d="M78.5 21.5q-36.5 31.5 -36.5 88.5q0 17 3 35q13 71 71.5 110.5t170.5 39.5h80l4 25q4 26 4 35q0 42 -23 63.5t-65 21.5q-34 0 -82 -23q-22 -12 -36 -22h-10l-24 60q24 16 49 27q58 28 125 28q76 0 120.5 -42.5t44.5 -110.5q0 -17 -3 -37l-56 -320h-70v60h-5
q-17 -20 -41 -35q-50 -35 -116 -35q-68 0 -104.5 31.5zM260.5 73q18.5 8 40.5 22q18 13 36 30l17 100h-80q-65 0 -98 -28t-33 -71q0 -30 19.5 -45.5t58.5 -15.5q21 0 39.5 8zM209 590l12 70h270l-12 -70h-270z" />
    <glyph glyph-name="Abreve" unicode="&#x102;" horiz-adv-x="570" 
d="M-10 0l328 700h130l82 -700h-100l-24 180h-230l-86 -180h-100zM399 250l-32 275q-2 12 -2 27.5v19.5q0 16 1 23h-4q-4 -16 -7 -24q-9 -26 -18 -46l-128 -275h190zM296 786.5q-33 26.5 -33 73.5q0 14 3 30h90q-2 -9 -2 -24q0 -24 12.5 -35t37.5 -11q31 0 48 16.5t24 53.5
h90q-12 -61 -56 -95.5t-117 -34.5q-64 0 -97 26.5z" />
    <glyph glyph-name="abreve" unicode="&#x103;" 
d="M78.5 21.5q-36.5 31.5 -36.5 88.5q0 17 3 35q13 71 71.5 110.5t170.5 39.5h80l4 25q4 26 4 35q0 42 -23 63.5t-65 21.5q-34 0 -82 -23q-22 -12 -36 -22h-10l-24 60q24 16 49 27q58 28 125 28q76 0 120.5 -42.5t44.5 -110.5q0 -17 -3 -37l-56 -320h-70v60h-5
q-17 -20 -41 -35q-50 -35 -116 -35q-68 0 -104.5 31.5zM260.5 73q18.5 8 40.5 22q18 13 36 30l17 100h-80q-65 0 -98 -28t-33 -71q0 -30 19.5 -45.5t58.5 -15.5q21 0 39.5 8zM229 577.5q-33 26.5 -33 73.5q0 14 3 30h90q-2 -9 -2 -24q0 -24 12.5 -35t37.5 -11q31 0 48 16.5
t24 53.5h90q-12 -61 -56 -95.5t-117 -34.5q-64 0 -97 26.5z" />
    <glyph glyph-name="Aogonek" unicode="&#x104;" horiz-adv-x="575" 
d="M-10 0l328 700h130l82 -700h-100l-24 180h-230l-86 -180h-100zM399 250l-32 275q-2 12 -2 27.5v19.5q0 16 1 23h-4q-4 -16 -7 -24q-9 -26 -18 -46l-128 -275h190zM414 -139.5q-19 15.5 -19 43.5q0 10 1 16q3 25 35 57q18 16 29 23h70q-11 -5 -29 -19q-14 -11 -23.5 -25
t-9.5 -27t8 -21t21 -8t27 5t22.5 10t10.5 7h9l-9 -52q-13 -9 -24 -13q-26 -12 -61 -12q-39 0 -58 15.5z" />
    <glyph glyph-name="aogonek" unicode="&#x105;" horiz-adv-x="505" 
d="M429.5 467.5q44.5 -42.5 44.5 -110.5q0 -17 -3 -37l-56 -320h5q-11 -5 -29 -19q-14 -11 -23.5 -25t-9.5 -27t8 -21t21 -8t27 5t22.5 10t10.5 7h9l-9 -52q-13 -9 -24 -13q-26 -12 -61 -12q-39 0 -58 15.5t-19 43.5q0 10 1 16q3 25 35 57q18 16 29 23h-5v60h-5
q-17 -20 -41 -35q-50 -35 -116 -35q-68 0 -104.5 31.5t-36.5 88.5q0 17 3 35q13 71 71.5 110.5t170.5 39.5h80l4 25q4 26 4 35q0 42 -23 63.5t-65 21.5q-34 0 -82 -23q-22 -12 -36 -22h-10l-24 60q24 16 49 27q58 28 125 28q76 0 120.5 -42.5zM354 225h-80q-65 0 -98 -28
t-33 -71q0 -30 19.5 -45.5t58.5 -15.5q21 0 39.5 8t40.5 22q18 13 36 30z" />
    <glyph glyph-name="Cacute" unicode="&#x106;" horiz-adv-x="515" 
d="M132.5 45.5q-53.5 55.5 -53.5 176.5q0 56 12 128q32 186 113.5 273t200.5 87q72 0 124 -28q25 -13 41 -27l-46 -60h-10q-12 10 -30 22q-40 23 -82 23q-158 0 -211 -290q-13 -68 -13 -122q0 -168 132 -168q44 0 90 22q26 14 38 23h10l24 -60q-21 -15 -51 -28
q-58 -27 -133 -27q-102 0 -155.5 55.5zM376 750l72 150h110l-117 -150h-65z" />
    <glyph glyph-name="cacute" unicode="&#x107;" horiz-adv-x="455" 
d="M109 36q-47 46 -47 137q0 38 7 77q23 128 90.5 194t164.5 66q65 0 115 -28q24 -13 41 -27l-46 -60h-10q-14 12 -29 22q-18 11 -35 17t-38 6q-56 0 -96 -45t-57 -145q-7 -39 -7 -73q0 -62 26 -89.5t77 -27.5q35 0 81 22q22 12 37 23h10l24 -60q-20 -15 -50 -28
q-56 -27 -124 -27q-87 0 -134 46zM283 550l72 150h110l-117 -150h-65z" />
    <glyph glyph-name="Ccaron" unicode="&#x10c;" horiz-adv-x="515" 
d="M132.5 45.5q-53.5 55.5 -53.5 176.5q0 56 12 128q32 186 113.5 273t200.5 87q72 0 124 -28q25 -13 41 -27l-46 -60h-10q-12 10 -30 22q-40 23 -82 23q-158 0 -211 -290q-13 -68 -13 -122q0 -168 132 -168q44 0 90 22q26 14 38 23h10l24 -60q-21 -15 -51 -28
q-58 -27 -133 -27q-102 0 -155.5 55.5zM380 760l-82 130h65l64 -65l86 65h65l-128 -130h-70z" />
    <glyph glyph-name="ccaron" unicode="&#x10d;" horiz-adv-x="455" 
d="M109 36q-47 46 -47 137q0 38 7 77q23 128 90.5 194t164.5 66q65 0 115 -28q24 -13 41 -27l-46 -60h-10q-14 12 -29 22q-18 11 -35 17t-38 6q-56 0 -96 -45t-57 -145q-7 -39 -7 -73q0 -62 26 -89.5t77 -27.5q35 0 81 22q22 12 37 23h10l24 -60q-20 -15 -50 -28
q-56 -27 -124 -27q-87 0 -134 46zM288 560l-82 130h65l64 -65l86 65h65l-128 -130h-70z" />
    <glyph glyph-name="Dcaron" unicode="&#x10e;" horiz-adv-x="585" 
d="M188 700h150q120 0 179.5 -55t59.5 -176q0 -58 -11 -119q-33 -184 -119 -267t-232 -83h-150zM227 70q95 0 153.5 64t85.5 216q11 68 11 111q0 90 -38 129.5t-113 39.5h-50l-99 -560h50zM340 760l-82 130h65l64 -65l86 65h65l-128 -130h-70z" />
    <glyph glyph-name="dcaron" unicode="&#x10f;" horiz-adv-x="645" 
d="M101 36.5q-40 46.5 -40 134.5q0 33 8 79q21 127 88 193.5t157 66.5q34 0 75 -15l30 -15l34 190l35 30h70l-123 -700h-70v60h-5q-17 -20 -41 -35q-50 -35 -116 -35q-62 0 -102 46.5zM590 515q15 10 29 22q31 31 35 53q-17 0 -29.5 13t-12.5 33q0 6 1 9q5 23 23 39t37 16
q23 0 36.5 -13.5t13.5 -36.5q0 -9 -1 -14q-14 -67 -61 -116q-21 -23 -46 -36zM280.5 73q18.5 8 40.5 22q18 14 36 30l52 295q-7 4 -25 10q-32 10 -67 10q-53 0 -92 -45.5t-56 -144.5q-7 -38 -7 -71q0 -58 21.5 -86t57.5 -28q21 0 39.5 8z" />
    <glyph glyph-name="Dcroat" unicode="&#x110;" horiz-adv-x="585" 
d="M121 320h-55l14 80h55l53 300h150q120 0 179.5 -55t59.5 -176q0 -58 -11 -119q-33 -184 -119 -267t-232 -83h-150zM227 70q95 0 153.5 64t85.5 216q11 68 11 111q0 90 -38 129.5t-113 39.5h-50l-41 -230h115l-14 -80h-115l-44 -250h50z" />
    <glyph glyph-name="dcroat" unicode="&#x111;" horiz-adv-x="545" 
d="M99.5 36.5q-40.5 46.5 -40.5 129.5q0 30 6 64q20 114 86.5 177t155.5 63q34 0 75 -15l30 -15l16 90h-105l12 70h105l13 70l35 30h70l-18 -100h65l-12 -70h-65l-93 -530h-70v60h-5q-17 -20 -41 -35q-50 -35 -116 -35q-63 0 -103.5 46.5zM280.5 73q18.5 8 40.5 22
q18 14 36 30l45 255q-7 4 -25 10q-32 10 -67 10q-52 0 -91 -42t-54 -128q-5 -25 -5 -55q0 -54 23 -82t58 -28q21 0 39.5 8z" />
    <glyph glyph-name="Emacron" unicode="&#x112;" 
d="M65 0l123 700h390l-12 -70h-290l-41 -230h230l-12 -70h-230l-46 -260h290l-12 -70h-390zM266 790l12 70h270l-12 -70h-270z" />
    <glyph glyph-name="emacron" unicode="&#x113;" horiz-adv-x="505" 
d="M109 36q-47 46 -47 137q0 38 7 77q21 127 88.5 193.5t161.5 66.5q78 0 122.5 -47t44.5 -138q0 -28 -7 -75l-3 -15l-24 -20h-290q-5 -28 -5 -46q0 -54 28.5 -81.5t79.5 -27.5q35 0 81 22q22 12 37 23h10l24 -60q-20 -15 -50 -28q-56 -27 -124 -27q-87 0 -134 46zM385 285
q5 33 5 53q0 52 -22 77t-61 25q-48 0 -83 -38.5t-49 -116.5h210zM206 590l12 70h270l-12 -70h-270z" />
    <glyph glyph-name="Edotaccent" unicode="&#x116;" 
d="M65 0l123 700h390l-12 -70h-290l-41 -230h230l-12 -70h-230l-46 -260h290l-12 -70h-390zM369 773q-14 13 -14 34q0 31 20.5 52t50.5 21q23 0 37 -13t14 -34q0 -31 -21 -52t-51 -21q-22 0 -36 13z" />
    <glyph glyph-name="edotaccent" unicode="&#x117;" horiz-adv-x="505" 
d="M109 36q-47 46 -47 137q0 38 7 77q21 127 88.5 193.5t161.5 66.5q78 0 122.5 -47t44.5 -138q0 -28 -7 -75l-3 -15l-24 -20h-290q-5 -28 -5 -46q0 -54 28.5 -81.5t79.5 -27.5q35 0 81 22q22 12 37 23h10l24 -60q-20 -15 -50 -28q-56 -27 -124 -27q-87 0 -134 46zM385 285
q5 33 5 53q0 52 -22 77t-61 25q-48 0 -83 -38.5t-49 -116.5h210zM289 573q-14 13 -14 34q0 31 20.5 52t50.5 21q23 0 37 -13t14 -34q0 -31 -21 -52t-51 -21q-22 0 -36 13z" />
    <glyph glyph-name="Eogonek" unicode="&#x118;" 
d="M65 0l123 700h390l-12 -70h-290l-41 -230h230l-12 -70h-230l-46 -260h290l-12 -70h-390zM199 -139.5q-19 15.5 -19 43.5q0 10 1 16q3 25 35 57q18 16 29 23h70q-11 -5 -29 -19q-14 -11 -23.5 -25t-9.5 -27t8 -21t21 -8t27 5t22.5 10t10.5 7h9l-9 -52q-13 -9 -24 -13
q-26 -12 -61 -12q-39 0 -58 15.5z" />
    <glyph glyph-name="eogonek" unicode="&#x119;" horiz-adv-x="505" 
d="M441.5 463q44.5 -47 44.5 -138q0 -28 -7 -75l-3 -15l-24 -20h-290q-5 -28 -5 -46q0 -54 28.5 -81.5t79.5 -27.5q35 0 81 22q22 12 37 23h10l24 -60q-20 -15 -50 -28q-46 -22 -97 -26l-14 -10q-14 -11 -23.5 -25t-9.5 -27t8 -21t21 -8t27 5t22.5 10t10.5 7h9l-9 -52
q-13 -9 -24 -13q-26 -12 -61 -12q-39 0 -58 15.5t-19 43.5q0 10 1 16q3 25 35 57l18 16q-69 9 -105.5 54.5t-36.5 125.5q0 38 7 77q21 127 88.5 193.5t161.5 66.5q78 0 122.5 -47zM390 338q0 52 -22 77t-61 25q-48 0 -83 -38.5t-49 -116.5h210q5 33 5 53z" />
    <glyph glyph-name="Ecaron" unicode="&#x11a;" 
d="M65 0l123 700h390l-12 -70h-290l-41 -230h230l-12 -70h-230l-46 -260h290l-12 -70h-390zM370 760l-82 130h65l64 -65l86 65h65l-128 -130h-70z" />
    <glyph glyph-name="ecaron" unicode="&#x11b;" horiz-adv-x="505" 
d="M109 36q-47 46 -47 137q0 38 7 77q21 127 88.5 193.5t161.5 66.5q78 0 122.5 -47t44.5 -138q0 -28 -7 -75l-3 -15l-24 -20h-290q-5 -28 -5 -46q0 -54 28.5 -81.5t79.5 -27.5q35 0 81 22q22 12 37 23h10l24 -60q-20 -15 -50 -28q-56 -27 -124 -27q-87 0 -134 46zM385 285
q5 33 5 53q0 52 -22 77t-61 25q-48 0 -83 -38.5t-49 -116.5h210zM290 560l-82 130h65l64 -65l86 65h65l-128 -130h-70z" />
    <glyph glyph-name="Gbreve" unicode="&#x11e;" horiz-adv-x="565" 
d="M136 51q-56 61 -56 183q0 57 11 116q21 121 68 202t110.5 119.5t135.5 38.5t124 -28q25 -13 41 -27l-46 -60h-10q-12 10 -30 22q-40 23 -82 23q-158 0 -211 -290q-13 -68 -13 -122q0 -168 132 -168q17 0 35 4.5t29.5 9t14.5 6.5l40 230h-115l13 70h185l24 -30l-54 -305
q-22 -15 -54 -28q-63 -27 -140 -27q-96 0 -152 61zM306 776.5q-33 26.5 -33 73.5q0 14 3 30h90q-2 -9 -2 -24q0 -24 12.5 -35t37.5 -11q31 0 48 16.5t24 53.5h90q-12 -61 -56 -95.5t-117 -34.5q-64 0 -97 26.5z" />
    <glyph glyph-name="gbreve" unicode="&#x11f;" horiz-adv-x="535" 
d="M67 -183q-26 14 -40 28l46 60h10q11 -12 28 -23q38 -22 74 -22q64 0 100 31t48 99l5 30q-16 -9 -35 -15q-39 -15 -80 -15q-74 0 -118 46.5t-44 135.5q0 32 8 78q14 84 49 142.5t81 88t95 29.5q61 0 104 -35q20 -18 29 -35h5l21 60h70l-90 -510q-16 -91 -83 -145.5
t-168 -54.5q-66 0 -115 27zM320 70q17 5 29 10l52 295q-9 14 -25 30q-32 30 -70 30q-46 0 -83 -45t-54 -140q-7 -39 -7 -74q0 -116 88 -116q32 0 70 10zM243 586.5q-33 26.5 -33 73.5q0 14 3 30h90q-2 -9 -2 -24q0 -24 12.5 -35t37.5 -11q31 0 48 16.5t24 53.5h90
q-12 -61 -56 -95.5t-117 -34.5q-64 0 -97 26.5z" />
    <glyph glyph-name="Gcommaaccent" unicode="&#x122;" horiz-adv-x="565" 
d="M136 51q-56 61 -56 183q0 57 11 116q21 121 68 202t110.5 119.5t135.5 38.5t124 -28q25 -13 41 -27l-46 -60h-10q-12 10 -30 22q-40 23 -82 23q-158 0 -211 -290q-13 -68 -13 -122q0 -168 132 -168q17 0 35 4.5t29.5 9t14.5 6.5l40 230h-115l13 70h185l24 -30l-54 -305
q-22 -15 -54 -28q-63 -27 -140 -27q-96 0 -152 61zM185 -234q15 10 29 22q29 29 34 53q-17 0 -29 13t-12 33q0 25 19.5 44.5t40.5 19.5q23 0 36.5 -13.5t13.5 -36.5q0 -9 -1 -14q-14 -68 -60 -116q-21 -23 -46 -36z" />
    <glyph glyph-name="gcommaaccent" unicode="&#x123;" horiz-adv-x="535" 
d="M467 755q-15 -10 -29 -22q-29 -29 -34 -53q17 0 29 -13t12 -33q0 -25 -19.5 -44.5t-40.5 -19.5q-23 0 -36.5 13.5t-13.5 36.5q0 9 1 14q14 68 60 116q21 23 46 36zM67 -183q-26 14 -40 28l46 60h10q11 -12 28 -23q38 -22 74 -22q64 0 100 31t48 99l5 30q-16 -9 -35 -15
q-39 -15 -80 -15q-74 0 -118 46.5t-44 135.5q0 32 8 78q14 84 49 142.5t81 88t95 29.5q61 0 104 -35q20 -18 29 -35h5l21 60h70l-90 -510q-16 -91 -83 -145.5t-168 -54.5q-66 0 -115 27zM320 70q17 5 29 10l52 295q-9 14 -25 30q-32 30 -70 30q-46 0 -83 -45t-54 -140
q-7 -39 -7 -74q0 -116 88 -116q32 0 70 10z" />
    <glyph glyph-name="hbar" unicode="&#x127;" horiz-adv-x="560" 
d="M156 520h-65l13 70h65l14 80l35 30h70l-19 -110h135l-13 -70h-135l-21 -120q19 15 38 25q50 25 101 25q65 0 104.5 -37t39.5 -97q0 -10 -4 -36l-49 -280h-100l49 280q2 14 2 21q0 33 -22 53.5t-58 20.5q-39 0 -81 -30q-16 -11 -35 -30l-55 -315h-100z" />
    <glyph glyph-name="Itilde" unicode="&#x128;" horiz-adv-x="250" 
d="M65 0l123 700h100l-123 -700h-100zM248 787q-11 7 -22 20q-2 2 -7 7.5t-11 8t-12 2.5q-26 -1 -39.5 -20.5l-13.5 -19.5h-9l-36 25q20 39 45 62t60 23q19 0 30.5 -7t22.5 -20q8 -9 14.5 -13.5t15.5 -4.5q13 0 25 9t18.5 18.5t8.5 12.5h9l36 -25q-20 -39 -45 -62t-60 -23
q-19 0 -30 7z" />
    <glyph glyph-name="itilde" unicode="&#x129;" horiz-adv-x="240" 
d="M50 0l88 500h100l-88 -500h-100zM209 587q-11 7 -22 20q-2 2 -7 7.5t-11 8t-12 2.5q-26 -1 -39.5 -20.5l-13.5 -19.5h-9l-36 25q20 39 45 62t60 23q19 0 30.5 -7t22.5 -20q8 -9 14.5 -13.5t15.5 -4.5q13 0 25 9t18.5 18.5t8.5 12.5h9l36 -25q-20 -39 -45 -62t-60 -23
q-19 0 -30 7z" />
    <glyph glyph-name="Imacron" unicode="&#x12a;" horiz-adv-x="260" 
d="M65 0l123 700h100l-123 -700h-100zM107 780l12 70h270l-12 -70h-270z" />
    <glyph glyph-name="imacron" unicode="&#x12b;" horiz-adv-x="250" 
d="M68 580l12 70h270l-12 -70h-270zM50 0l88 500h100l-88 -500h-100z" />
    <glyph glyph-name="Iogonek" unicode="&#x12e;" horiz-adv-x="270" 
d="M65 0l123 700h100l-123 -700h-100zM44 -139.5q-19 15.5 -19 43.5q0 10 1 16q3 25 35 57q18 16 29 23h70q-11 -5 -29 -19q-14 -11 -23.5 -25t-9.5 -27t8 -21t21 -8t27 5t22.5 10t10.5 7h9l-9 -52q-13 -9 -24 -13q-26 -12 -61 -12q-39 0 -58 15.5z" />
    <glyph glyph-name="iogonek" unicode="&#x12f;" horiz-adv-x="245" 
d="M165 593q-14 13 -14 34q0 31 21 52t51 21q22 0 36 -13t14 -34q0 -31 -20.5 -52t-50.5 -21q-23 0 -37 13zM50 0l88 500h100l-88 -500h-100zM34 -139.5q-19 15.5 -19 43.5q0 10 1 16q3 25 35 57q18 16 29 23h70q-11 -5 -29 -19q-14 -11 -23.5 -25t-9.5 -27t8 -21t21 -8
t27 5t22.5 10t10.5 7h9l-9 -52q-13 -9 -24 -13q-26 -12 -61 -12q-39 0 -58 15.5z" />
    <glyph glyph-name="Idotaccent" unicode="&#x130;" horiz-adv-x="260" 
d="M65 0l123 700h100l-123 -700h-100zM202 773q-14 13 -14 34q0 31 20.5 52t50.5 21q23 0 37 -13t14 -34q0 -31 -21 -52t-51 -21q-22 0 -36 13z" />
    <glyph glyph-name="dotlessi" unicode="&#x131;" horiz-adv-x="250" 
d="M50 0l88 500h100l-88 -500h-100z" />
    <glyph glyph-name="ij" unicode="&#x133;" horiz-adv-x="505" 
d="M165 593q-14 13 -14 34q0 31 21 52t51 21q22 0 36 -13t14 -34q0 -31 -20.5 -52t-50.5 -21q-23 0 -37 13zM420 593q-14 13 -14 34q0 31 21 52t51 21q22 0 36 -13t14 -34q0 -31 -20.5 -52t-50.5 -21q-23 0 -37 13zM134 -185q-13 6 -24 15l36 65h10q7 -9 14 -13
q15 -12 37 -12q34 0 58 23t32 67l83 470h-155l-75 -430h-100l88 500h355l-96 -540q-12 -72 -65 -116t-128 -44q-40 0 -70 15z" />
    <glyph glyph-name="Jcircumflex" unicode="&#x134;" horiz-adv-x="410" 
d="M14 12q-22 12 -33 23l41 65h10q14 -14 22 -20q27 -20 56 -20q58 0 92 31.5t46 98.5l90 510h100l-90 -510q-17 -99 -77.5 -149.5t-162.5 -50.5q-48 0 -94 22zM249 740l128 130h70l82 -130h-65l-63 65l-87 -65h-65z" />
    <glyph glyph-name="jcircumflex" unicode="&#x135;" horiz-adv-x="268" 
d="M70 550l128 130h70l82 -130h-65l-63 65l-87 -65h-65zM-100 -185q-13 6 -24 15l36 65h10q7 -9 14 -13q15 -12 37 -12q34 0 57.5 23t31.5 67l96 540h100l-96 -540q-12 -72 -65 -116t-127 -44q-40 0 -70 15z" />
    <glyph glyph-name="Kcommaaccent" unicode="&#x136;" horiz-adv-x="555" 
d="M65 0l123 700h100l-58 -330l283 330h115l-290 -340l177 -360h-115l-174 350l-61 -350h-100zM177 -195q15 10 29 22q29 29 34 53q-17 0 -29 13t-12 33q0 25 19.5 44.5t40.5 19.5q23 0 36.5 -13.5t13.5 -36.5q0 -9 -1 -14q-14 -68 -60 -116q-21 -23 -46 -36z" />
    <glyph glyph-name="kcommaaccent" unicode="&#x137;" horiz-adv-x="480" 
d="M50 0l118 670l35 30h70l-76 -430l211 230h115l-223 -240l145 -260h-115l-136 250l-44 -250h-100zM137 -195q15 10 29 22q29 29 34 53q-17 0 -29 13t-12 33q0 25 19.5 44.5t40.5 19.5q23 0 36.5 -13.5t13.5 -36.5q0 -9 -1 -14q-14 -68 -60 -116q-21 -23 -46 -36z" />
    <glyph glyph-name="kgreenlandic" unicode="&#x138;" horiz-adv-x="480" 
d="M50 0l82 470l36 30h70l-41 -230l211 230h115l-223 -240l145 -260h-115l-136 250l-44 -250h-100z" />
    <glyph glyph-name="Lacute" unicode="&#x139;" horiz-adv-x="490" 
d="M65 0l123 700h100l-111 -630h290l-12 -70h-390zM226 750l72 150h110l-117 -150h-65z" />
    <glyph glyph-name="lacute" unicode="&#x13a;" horiz-adv-x="252" 
d="M50 0l118 670l35 30h70l-123 -700h-100zM203 750l72 150h110l-117 -150h-65z" />
    <glyph glyph-name="Lcommaaccent" unicode="&#x13b;" horiz-adv-x="490" 
d="M65 0l123 700h100l-111 -630h290l-12 -70h-390zM165 -234q15 10 29 22q29 29 34 53q-17 0 -29 13t-12 33q0 25 19.5 44.5t40.5 19.5q23 0 36.5 -13.5t13.5 -36.5q0 -9 -1 -14q-14 -68 -60 -116q-21 -23 -46 -36z" />
    <glyph glyph-name="lcommaaccent" unicode="&#x13c;" horiz-adv-x="250" 
d="M50 0l118 670l35 30h70l-123 -700h-100zM3 -234q15 10 29 22q29 29 34 53q-17 0 -29 13t-12 33q0 25 19.5 44.5t40.5 19.5q23 0 36.5 -13.5t13.5 -36.5q0 -9 -1 -14q-14 -68 -60 -116q-21 -23 -46 -36z" />
    <glyph glyph-name="Lcaron" unicode="&#x13d;" horiz-adv-x="490" 
d="M65 0l123 700h100l-111 -630h290l-12 -70h-390zM330 515q15 10 29 22q31 31 35 53q-17 0 -29.5 13t-12.5 33q0 6 1 9q5 23 23 39t37 16q23 0 36.5 -13.5t13.5 -36.5q0 -9 -1 -14q-14 -67 -61 -116q-21 -23 -46 -36z" />
    <glyph glyph-name="lcaron" unicode="&#x13e;" horiz-adv-x="365" 
d="M50 0l118 670l35 30h70l-123 -700h-100zM310 515q15 10 29 22q31 31 35 53q-17 0 -29.5 13t-12.5 33q0 6 1 9q5 23 23 39t37 16q23 0 36.5 -13.5t13.5 -36.5q0 -9 -1 -14q-14 -67 -61 -116q-21 -23 -46 -36z" />
    <glyph glyph-name="ldot" unicode="&#x140;" horiz-adv-x="360" 
d="M50 0l118 670l35 30h70l-123 -700h-100zM286 389q21 21 51 21q22 0 36 -13t14 -34q0 -31 -20.5 -52t-50.5 -21q-23 0 -37 13t-14 34q0 31 21 52z" />
    <glyph glyph-name="Lslash" unicode="&#x141;" horiz-adv-x="472" 
d="M57 0l47 270l-76 -50l20 110l76 50l56 320h100l-43 -245l128 85l-20 -110l-128 -85l-48 -275h280l-12 -70h-380z" />
    <glyph glyph-name="lslash" unicode="&#x142;" horiz-adv-x="290" 
d="M60 0l47 269l-69 -49l20 110l68 49l52 291l35 30h70l-43 -241l93 71l-19 -110l-93 -71l-61 -349h-100z" />
    <glyph glyph-name="Nacute" unicode="&#x143;" horiz-adv-x="630" 
d="M188 700h110l131 -445q4 -16 11 -54q2 -11 4 -31h4l4 31l3 27q2 18 4 27l79 445h100l-123 -700h-110l-132 445q-5 14 -11 54q-2 11 -4 31h-4l-4 -31l-3 -26q-2 -20 -4 -28l-78 -445h-100zM371 740l72 150h110l-117 -150h-65z" />
    <glyph glyph-name="nacute" unicode="&#x144;" horiz-adv-x="545" 
d="M138 500h70l-1 -60h5q14 16 41 35q56 35 116 35q65 0 104.5 -37t39.5 -97q0 -10 -4 -36l-59 -340h-100l59 340q2 14 2 21q0 33 -22 53.5t-58 20.5q-38 0 -80 -30q-20 -15 -35 -30l-66 -375h-100zM306 550l72 150h110l-117 -150h-65z" />
    <glyph glyph-name="Ncommaaccent" unicode="&#x145;" horiz-adv-x="630" 
d="M188 700h110l131 -445q4 -16 11 -54q2 -11 4 -31h4l4 31l3 27q2 18 4 27l79 445h100l-123 -700h-110l-132 445q-5 14 -11 54q-2 11 -4 31h-4l-4 -31l-3 -26q-2 -20 -4 -28l-78 -445h-100zM200 -195q15 10 29 22q29 29 34 53q-17 0 -29 13t-12 33q0 25 19.5 44.5
t40.5 19.5q23 0 36.5 -13.5t13.5 -36.5q0 -9 -1 -14q-14 -68 -60 -116q-21 -23 -46 -36z" />
    <glyph glyph-name="ncommaaccent" unicode="&#x146;" horiz-adv-x="545" 
d="M138 500h70l-1 -60h5q14 16 41 35q56 35 116 35q65 0 104.5 -37t39.5 -97q0 -10 -4 -36l-59 -340h-100l59 340q2 14 2 21q0 33 -22 53.5t-58 20.5q-38 0 -80 -30q-20 -15 -35 -30l-66 -375h-100zM162 -195q15 10 29 22q29 29 34 53q-17 0 -29 13t-12 33q0 25 19.5 44.5
t40.5 19.5q23 0 36.5 -13.5t13.5 -36.5q0 -9 -1 -14q-14 -68 -60 -116q-21 -23 -46 -36z" />
    <glyph glyph-name="Ncaron" unicode="&#x147;" horiz-adv-x="630" 
d="M188 700h110l131 -445q4 -16 11 -54q2 -11 4 -31h4l4 31l3 27q2 18 4 27l79 445h100l-123 -700h-110l-132 445q-5 14 -11 54q-2 11 -4 31h-4l-4 -31l-3 -26q-2 -20 -4 -28l-78 -445h-100zM386 750l-82 130h65l64 -65l86 65h65l-128 -130h-70z" />
    <glyph glyph-name="ncaron" unicode="&#x148;" horiz-adv-x="545" 
d="M138 500h70l-1 -60h5q14 16 41 35q56 35 116 35q65 0 104.5 -37t39.5 -97q0 -10 -4 -36l-59 -340h-100l59 340q2 14 2 21q0 33 -22 53.5t-58 20.5q-38 0 -80 -30q-20 -15 -35 -30l-66 -375h-100zM310 560l-82 130h65l64 -65l86 65h65l-128 -130h-70z" />
    <glyph glyph-name="Omacron" unicode="&#x14c;" horiz-adv-x="600" 
d="M130 46q-51 56 -51 175q0 57 12 129q32 186 113 273t196 87q92 0 142.5 -55.5t50.5 -174.5q0 -56 -12 -130q-32 -186 -112.5 -273t-195.5 -87q-92 0 -143 56zM400.5 128.5q52.5 68.5 80.5 221.5q13 69 13 124q0 86 -30 126t-77 40q-64 0 -116 -68t-80 -222
q-13 -71 -13 -126q0 -86 29.5 -125t77.5 -39q63 0 115.5 68.5zM279 790l12 70h270l-12 -70h-270z" />
    <glyph glyph-name="omacron" unicode="&#x14d;" horiz-adv-x="530" 
d="M108 36q-46 46 -46 137q0 38 7 77q23 129 91 194.5t169 65.5q84 0 130.5 -47t46.5 -139q0 -27 -7 -74q-23 -128 -91.5 -194t-169.5 -66q-84 0 -130 46zM342 105.5q40 45.5 57 144.5q7 39 7 73q0 61 -24 89t-65 28q-53 0 -92 -45.5t-56 -144.5q-7 -39 -7 -74
q0 -116 88 -116q52 0 92 45.5zM209 590l12 70h270l-12 -70h-270z" />
    <glyph glyph-name="Ohungarumlaut" unicode="&#x150;" horiz-adv-x="600" 
d="M130 46q-51 56 -51 175q0 57 12 129q32 186 113 273t196 87q92 0 142.5 -55.5t50.5 -174.5q0 -56 -12 -130q-32 -186 -112.5 -273t-195.5 -87q-92 0 -143 56zM400.5 128.5q52.5 68.5 80.5 221.5q13 69 13 124q0 86 -30 126t-77 40q-64 0 -116 -68t-80 -222
q-13 -71 -13 -126q0 -86 29.5 -125t77.5 -39q63 0 115.5 68.5zM308 750l72 150h95l-112 -150h-55zM443 750l72 150h95l-112 -150h-55z" />
    <glyph glyph-name="ohungarumlaut" unicode="&#x151;" horiz-adv-x="530" 
d="M108 36q-46 46 -46 137q0 38 7 77q23 129 91 194.5t169 65.5q84 0 130.5 -47t46.5 -139q0 -27 -7 -74q-23 -128 -91.5 -194t-169.5 -66q-84 0 -130 46zM342 105.5q40 45.5 57 144.5q7 39 7 73q0 61 -24 89t-65 28q-53 0 -92 -45.5t-56 -144.5q-7 -39 -7 -74
q0 -116 88 -116q52 0 92 45.5zM228 550l72 150h95l-112 -150h-55zM363 550l72 150h95l-112 -150h-55z" />
    <glyph glyph-name="OE" unicode="&#x152;" horiz-adv-x="815" 
d="M139.5 55.5q-60.5 55.5 -60.5 175.5q0 53 12 119q31 184 118.5 267t233.5 83h440l-12 -70h-290l-41 -230h230l-12 -70h-230l-46 -260h290l-12 -70h-440q-120 0 -180.5 55.5zM382 70l99 560h-50q-95 0 -154 -64t-86 -216q-11 -68 -11 -111q0 -90 38.5 -129.5t113.5 -39.5
h50z" />
    <glyph glyph-name="oe" unicode="&#x153;" horiz-adv-x="820" 
d="M107 36.5q-45 46.5 -45 136.5q0 38 7 77q23 128 90.5 194t164.5 66q98 0 146 -80q76 80 169 80q75 0 118.5 -47t43.5 -138q0 -37 -7 -75l-3 -15l-24 -20h-280q-5 -28 -5 -46q0 -54 26.5 -81.5t71.5 -27.5q35 0 81 22q22 12 37 23h10l24 -60q-20 -15 -50 -28
q-56 -27 -124 -27q-51 0 -90.5 20t-59.5 60q-36 -42 -77.5 -61t-97.5 -19q-81 0 -126 46.5zM331 103q38 43 56 136l2 11l1 10q5 30 5 63q0 60 -22.5 88.5t-60.5 28.5q-49 0 -87.5 -45.5t-55.5 -144.5q-7 -41 -7 -75q0 -60 22 -87.5t61 -27.5q48 0 86 43zM700 285q5 33 5 54
q0 51 -21 76t-57 25q-44 0 -78.5 -38.5t-48.5 -116.5h200z" />
    <glyph glyph-name="Racute" unicode="&#x154;" horiz-adv-x="575" 
d="M188 700h170q216 0 216 -166q0 -22 -5 -54q-27 -160 -173 -205l119 -275h-115l-110 260h-80l-45 -260h-100zM293 330q151 0 176 150q4 20 4 42q0 108 -127 108h-70l-53 -300h70zM341 750l72 150h110l-117 -150h-65z" />
    <glyph glyph-name="racute" unicode="&#x155;" horiz-adv-x="365" 
d="M138 500h70l-1 -60h5q13 15 40 35q56 35 112 35q25 0 45 -5l19 -5l-29 -80h-10q-7 1 -21 5q-20 5 -43 5q-34 0 -76 -30q-16 -12 -34 -30l-65 -370h-100zM243 550l72 150h110l-117 -150h-65z" />
    <glyph glyph-name="Rcommaaccent" unicode="&#x156;" horiz-adv-x="575" 
d="M188 700h170q216 0 216 -166q0 -22 -5 -54q-27 -160 -173 -205l119 -275h-115l-110 260h-80l-45 -260h-100zM293 330q151 0 176 150q4 20 4 42q0 108 -127 108h-70l-53 -300h70zM177 -195q15 10 29 22q29 29 34 53q-17 0 -29 13t-12 33q0 25 19.5 44.5t40.5 19.5
q23 0 36.5 -13.5t13.5 -36.5q0 -9 -1 -14q-14 -68 -60 -116q-21 -23 -46 -36z" />
    <glyph glyph-name="rcommaaccent" unicode="&#x157;" horiz-adv-x="365" 
d="M138 500h70l-1 -60h5q13 15 40 35q56 35 112 35q25 0 45 -5l19 -5l-29 -80h-10q-7 1 -21 5q-20 5 -43 5q-34 0 -76 -30q-16 -12 -34 -30l-65 -370h-100zM3 -234q15 10 29 22q29 29 34 53q-17 0 -29 13t-12 33q0 25 19.5 44.5t40.5 19.5q23 0 36.5 -13.5t13.5 -36.5
q0 -9 -1 -14q-14 -68 -60 -116q-21 -23 -46 -36z" />
    <glyph glyph-name="Rcaron" unicode="&#x158;" horiz-adv-x="575" 
d="M188 700h170q216 0 216 -166q0 -22 -5 -54q-27 -160 -173 -205l119 -275h-115l-110 260h-80l-45 -260h-100zM293 330q151 0 176 150q4 20 4 42q0 108 -127 108h-70l-53 -300h70zM345 760l-82 130h65l64 -65l86 65h65l-128 -130h-70z" />
    <glyph glyph-name="rcaron" unicode="&#x159;" horiz-adv-x="380" 
d="M138 500h70l-1 -60h5q13 15 40 35q56 35 112 35q25 0 45 -5l19 -5l-29 -80h-10q-7 1 -21 5q-20 5 -43 5q-34 0 -76 -30q-16 -12 -34 -30l-65 -370h-100zM268 560l-82 130h65l64 -65l86 65h65l-128 -130h-70z" />
    <glyph glyph-name="Sacute" unicode="&#x15a;" horiz-adv-x="505" 
d="M66 17q-32 13 -49 28l46 60h10q14 -12 37 -23q48 -22 105 -22q67 0 109.5 33t51.5 87q2 12 2 18q0 29 -16 50t-40 36t-65 35q-48 23 -78 42.5t-50.5 50t-20.5 73.5q0 17 3 35q9 55 42.5 98t85.5 67.5t116 24.5q83 0 141 -28q27 -13 44 -27l-46 -60h-10q-14 12 -32 22
q-48 23 -100 23q-37 0 -69.5 -18t-52 -47.5t-19.5 -62.5q0 -29 16 -50t40 -36t65 -35q48 -23 78 -42.5t50.5 -50t20.5 -73.5q0 -17 -3 -35q-16 -92 -85.5 -146t-179.5 -54q-88 0 -147 27zM321 750l72 150h110l-117 -150h-65z" />
    <glyph glyph-name="sacute" unicode="&#x15b;" horiz-adv-x="460" 
d="M60 17q-28 13 -43 28l46 60h10q12 -12 31 -23q40 -22 91 -22q115 0 127 70q1 4 1 11q0 27 -25 42.5t-77 33.5q-44 15 -72 29t-47.5 37t-19.5 58q0 8 2 24q12 67 66 106t149 39q72 0 124 -28q26 -12 42 -27l-46 -60h-10q-12 10 -30 22q-40 23 -82 23q-50 0 -77.5 -18
t-33.5 -47q-1 -4 -1 -11q0 -27 24.5 -42t76.5 -34q46 -17 73.5 -30.5t47 -37t19.5 -58.5q0 -6 -2 -22q-13 -71 -69.5 -110.5t-161.5 -39.5q-81 0 -133 27zM253 550l72 150h110l-117 -150h-65z" />
    <glyph glyph-name="Scedilla" unicode="&#x15e;" horiz-adv-x="505" 
d="M540 655l-46 -60h-10q-14 12 -32 22q-48 23 -100 23q-37 0 -69.5 -18t-52 -47.5t-19.5 -62.5q0 -29 16 -50t40 -36t65 -35q48 -23 78 -42.5t50.5 -50t20.5 -73.5q0 -17 -3 -35q-15 -88 -79 -141.5t-166 -58.5l-4 -20q36 0 56.5 -18t20.5 -47q0 -40 -30.5 -67.5
t-79.5 -27.5q-32 0 -56 10q-14 6 -19 10l22 40h9q1 -1 6.5 -4.5t15 -7t20.5 -3.5q18 0 31 10t15 25q3 16 -7 25.5t-32 9.5h-40l12 67q-62 4 -107 25q-32 13 -49 28l46 60h10q14 -12 37 -23q48 -22 105 -22q67 0 109.5 33t51.5 87q2 12 2 18q0 29 -16 50t-40 36t-65 35
q-48 23 -78 42.5t-50.5 50t-20.5 73.5q0 17 3 35q9 55 42.5 98t85.5 67.5t116 24.5q83 0 141 -28q27 -13 44 -27z" />
    <glyph glyph-name="scedilla" unicode="&#x15f;" horiz-adv-x="460" 
d="M185 364q0 -27 24.5 -42t76.5 -34q46 -17 73.5 -30.5t47 -37t19.5 -58.5q0 -6 -2 -22q-12 -66 -62 -105t-142 -44l-4 -21q36 0 56.5 -18t20.5 -47q0 -40 -30.5 -67.5t-79.5 -27.5q-32 0 -56 10q-14 6 -19 10l22 40h9q1 -1 6.5 -4.5t15 -7t20.5 -3.5q18 0 31 10t15 25
q3 16 -7 25.5t-32 9.5h-40l12 66q-61 6 -100 26q-28 13 -43 28l46 60h10q12 -12 31 -23q40 -22 91 -22q115 0 127 70q1 4 1 11q0 27 -25 42.5t-77 33.5q-44 15 -72 29t-47.5 37t-19.5 58q0 8 2 24q12 67 66 106t149 39q72 0 124 -28q26 -12 42 -27l-46 -60h-10
q-12 10 -30 22q-40 23 -82 23q-50 0 -77.5 -18t-33.5 -47q-1 -4 -1 -11z" />
    <glyph glyph-name="Scaron" unicode="&#x160;" horiz-adv-x="505" 
d="M66 17q-32 13 -49 28l46 60h10q14 -12 37 -23q48 -22 105 -22q67 0 109.5 33t51.5 87q2 12 2 18q0 29 -16 50t-40 36t-65 35q-48 23 -78 42.5t-50.5 50t-20.5 73.5q0 17 3 35q9 55 42.5 98t85.5 67.5t116 24.5q83 0 141 -28q27 -13 44 -27l-46 -60h-10q-14 12 -32 22
q-48 23 -100 23q-37 0 -69.5 -18t-52 -47.5t-19.5 -62.5q0 -29 16 -50t40 -36t65 -35q48 -23 78 -42.5t50.5 -50t20.5 -73.5q0 -17 -3 -35q-16 -92 -85.5 -146t-179.5 -54q-88 0 -147 27zM325 760l-82 130h65l64 -65l86 65h65l-128 -130h-70z" />
    <glyph glyph-name="scaron" unicode="&#x161;" horiz-adv-x="460" 
d="M60 17q-28 13 -43 28l46 60h10q12 -12 31 -23q40 -22 91 -22q115 0 127 70q1 4 1 11q0 27 -25 42.5t-77 33.5q-44 15 -72 29t-47.5 37t-19.5 58q0 8 2 24q12 67 66 106t149 39q72 0 124 -28q26 -12 42 -27l-46 -60h-10q-12 10 -30 22q-40 23 -82 23q-50 0 -77.5 -18
t-33.5 -47q-1 -4 -1 -11q0 -27 24.5 -42t76.5 -34q46 -17 73.5 -30.5t47 -37t19.5 -58.5q0 -6 -2 -22q-13 -71 -69.5 -110.5t-161.5 -39.5q-81 0 -133 27zM268 560l-82 130h65l64 -65l86 65h65l-128 -130h-70z" />
    <glyph glyph-name="Tcaron" unicode="&#x164;" horiz-adv-x="480" 
d="M165 0l111 630h-180l12 70h460l-12 -70h-180l-111 -630h-100zM313 760l-82 130h65l64 -65l86 65h65l-128 -130h-70z" />
    <glyph glyph-name="tcaron" unicode="&#x165;" horiz-adv-x="480" 
d="M130.5 24.5q-37.5 34.5 -37.5 92.5q0 17 3 33l49 280h-75l11 60l153 130h45l-21 -120h125l-13 -70h-125l-49 -280q-3 -15 -3 -26q0 -32 16.5 -48t45.5 -16q32 0 63 20q14 9 29 20h10l25 -60q-26 -17 -45 -25q-52 -25 -104 -25q-65 0 -102.5 34.5zM411 435q15 10 29 22
q29 29 34 53q-17 0 -29 13t-12 33q0 25 20 44.5t41 19.5q23 0 36.5 -13.5t13.5 -36.5q0 -9 -1 -14q-14 -67 -61 -116q-21 -23 -46 -36z" />
    <glyph glyph-name="Umacron" unicode="&#x16a;" horiz-adv-x="620" 
d="M141 33q-49 43 -49 126q0 28 6 61l85 480h100l-85 -480q-5 -30 -5 -50q0 -56 26.5 -83t75.5 -27q59 0 99 39.5t54 120.5l85 480h100l-85 -480q-20 -113 -88 -171.5t-177 -58.5q-93 0 -142 43zM287 780l12 70h270l-12 -70h-270z" />
    <glyph glyph-name="umacron" unicode="&#x16b;" horiz-adv-x="550" 
d="M113.5 26.5q-38.5 36.5 -38.5 97.5q0 18 3 36l60 340h100l-60 -340q-2 -14 -2 -21q0 -33 22 -53.5t58 -20.5q21 0 39.5 8t40.5 22q18 14 36 30l66 375h100l-88 -500h-70v60h-5q-17 -20 -41 -35q-50 -35 -116 -35t-104.5 36.5zM217 581l12 70h270l-12 -70h-270z" />
    <glyph glyph-name="Uring" unicode="&#x16e;" horiz-adv-x="620" 
d="M141 33q-49 43 -49 126q0 28 6 61l85 480h100l-85 -480q-5 -30 -5 -50q0 -56 26.5 -83t75.5 -27q59 0 99 39.5t54 120.5l85 480h100l-85 -480q-20 -113 -88 -171.5t-177 -58.5q-93 0 -142 43zM351 751q-23 21 -23 56q0 12 1 18q8 42 40 68.5t77 26.5q39 0 62 -20.5
t23 -54.5q0 -49 -34 -82t-84 -33q-39 0 -62 21zM451.5 791.5q13.5 11.5 17.5 33.5q1 4 1 12q0 16 -9.5 24.5t-23.5 8.5q-16 0 -29.5 -11.5t-18.5 -33.5q-1 -4 -1 -10q0 -17 9.5 -26t24.5 -9q16 0 29.5 11.5z" />
    <glyph glyph-name="uring" unicode="&#x16f;" horiz-adv-x="550" 
d="M113.5 26.5q-38.5 36.5 -38.5 97.5q0 18 3 36l60 340h100l-60 -340q-2 -14 -2 -21q0 -33 22 -53.5t58 -20.5q21 0 39.5 8t40.5 22q18 14 36 30l66 375h100l-88 -500h-70v60h-5q-17 -20 -41 -35q-50 -35 -116 -35t-104.5 36.5zM284 571q-23 21 -23 56q0 12 1 18
q8 42 40 68.5t77 26.5q39 0 62 -20.5t23 -54.5q0 -49 -34 -82t-84 -33q-39 0 -62 21zM384.5 611.5q13.5 11.5 17.5 33.5q1 4 1 12q0 16 -9.5 24.5t-23.5 8.5q-16 0 -29.5 -11.5t-18.5 -33.5q-1 -4 -1 -10q0 -17 9.5 -26t24.5 -9q16 0 29.5 11.5z" />
    <glyph glyph-name="Uhungarumlaut" unicode="&#x170;" horiz-adv-x="620" 
d="M141 33q-49 43 -49 126q0 28 6 61l85 480h100l-85 -480q-5 -30 -5 -50q0 -56 26.5 -83t75.5 -27q59 0 99 39.5t54 120.5l85 480h100l-85 -480q-20 -113 -88 -171.5t-177 -58.5q-93 0 -142 43zM316 740l72 150h95l-112 -150h-55zM451 740l72 150h95l-112 -150h-55z" />
    <glyph glyph-name="uhungarumlaut" unicode="&#x171;" horiz-adv-x="550" 
d="M113.5 26.5q-38.5 36.5 -38.5 97.5q0 18 3 36l60 340h100l-60 -340q-2 -14 -2 -21q0 -33 22 -53.5t58 -20.5q21 0 39.5 8t40.5 22q18 14 36 30l66 375h100l-88 -500h-70v60h-5q-17 -20 -41 -35q-50 -35 -116 -35t-104.5 36.5zM246 541l72 150h95l-112 -150h-55zM381 541
l72 150h95l-112 -150h-55z" />
    <glyph glyph-name="Uogonek" unicode="&#x172;" horiz-adv-x="620" 
d="M633 700l-85 -480q-19 -105 -78 -163t-155 -66l-14 -10q-14 -11 -23.5 -25t-9.5 -27t8 -21t21 -8t27 5t22.5 10t10.5 7h9l-9 -52q-13 -9 -24 -13q-26 -12 -61 -12q-39 0 -58 15.5t-19 43.5q0 10 1 16q3 25 35 57l17 15q-77 8 -116.5 50t-39.5 116q0 29 6 62l85 480h100
l-85 -480q-5 -30 -5 -50q0 -56 26.5 -83t75.5 -27q59 0 99 39.5t54 120.5l85 480h100z" />
    <glyph glyph-name="uogonek" unicode="&#x173;" horiz-adv-x="545" 
d="M449 -95q14 5 22.5 10t10.5 7h9l-9 -52q-13 -9 -24 -13q-26 -12 -61 -12q-39 0 -58 15.5t-19 43.5q0 10 1 16q3 25 35 57q18 16 29 23h-5v60h-5q-17 -20 -41 -35q-50 -35 -116 -35t-104.5 36.5t-38.5 97.5q0 18 3 36l60 340h100l-60 -340q-2 -14 -2 -21q0 -33 22 -53.5
t58 -20.5q21 0 39.5 8t40.5 22q18 14 36 30l66 375h100l-88 -500h5q-11 -5 -29 -19q-14 -11 -23.5 -25t-9.5 -27t8 -21t21 -8t27 5z" />
    <glyph glyph-name="Ydieresis" unicode="&#x178;" horiz-adv-x="530" 
d="M230 230l-132 470h105l86 -305q6 -25 7 -39q1 -7 1 -21h4l8 21q7 17 20 39l194 305h105l-298 -470l-40 -230h-100zM250.5 776.5q-12.5 11.5 -12.5 31.5q0 8 1 12q4 24 22.5 39.5t42.5 15.5q21 0 33.5 -12.5t12.5 -32.5q0 -6 -1 -10q-5 -24 -23 -39.5t-42 -15.5
q-21 0 -33.5 11.5zM425.5 776.5q-12.5 11.5 -12.5 31.5q0 8 1 12q4 24 22.5 39.5t42.5 15.5q21 0 33.5 -12.5t12.5 -32.5q0 -6 -1 -10q-5 -24 -23 -39.5t-42 -15.5q-21 0 -33.5 11.5z" />
    <glyph glyph-name="Zacute" unicode="&#x179;" horiz-adv-x="485" 
d="M0 0l13 75l408 555h-310l12 70h430l-13 -75l-408 -555h315l-12 -70h-435zM301 750l72 150h110l-117 -150h-65z" />
    <glyph glyph-name="zacute" unicode="&#x17a;" horiz-adv-x="440" 
d="M10 0l13 75l307 355h-245l13 70h365l-14 -75l-307 -355h250l-12 -70h-370zM243 550l72 150h110l-117 -150h-65z" />
    <glyph glyph-name="Zdotaccent" unicode="&#x17b;" horiz-adv-x="485" 
d="M0 0l13 75l408 555h-310l12 70h430l-13 -75l-408 -555h315l-12 -70h-435zM314 773q-14 13 -14 34q0 31 20.5 52t50.5 21q23 0 37 -13t14 -34q0 -31 -21 -52t-51 -21q-22 0 -36 13z" />
    <glyph glyph-name="zdotaccent" unicode="&#x17c;" horiz-adv-x="440" 
d="M10 0l13 75l307 355h-245l13 70h365l-14 -75l-307 -355h250l-12 -70h-370zM257 573q-14 13 -14 34q0 31 20.5 52t50.5 21q23 0 37 -13t14 -34q0 -31 -21 -52t-51 -21q-22 0 -36 13z" />
    <glyph glyph-name="Zcaron" unicode="&#x17d;" horiz-adv-x="485" 
d="M0 0l13 75l408 555h-310l12 70h430l-13 -75l-408 -555h315l-12 -70h-435zM315 760l-82 130h65l64 -65l86 65h65l-128 -130h-70z" />
    <glyph glyph-name="zcaron" unicode="&#x17e;" horiz-adv-x="440" 
d="M10 0l13 75l307 355h-245l13 70h365l-14 -75l-307 -355h250l-12 -70h-370zM258 560l-82 130h65l64 -65l86 65h65l-128 -130h-70z" />
    <glyph glyph-name="florin" unicode="&#x192;" horiz-adv-x="391" 
d="M-121 -185q-11 5 -23 15l42 65h10q8 -10 13 -13q14 -12 34 -12q36 0 60.5 22.5t35.5 67.5l126 470h-65l19 70h65l12 50q19 73 73.5 116.5t134.5 43.5q54 0 97 -28q20 -12 33 -27l-52 -60h-10q-10 12 -22 22q-15 11 -27.5 17t-27.5 6q-35 0 -61.5 -23t-37.5 -67l-12 -50
h135l-19 -70h-135l-126 -470q-19 -73 -74 -116.5t-131 -43.5q-39 0 -67 15z" />
    <glyph glyph-name="Scommaaccent" unicode="&#x218;" horiz-adv-x="505" 
d="M66 17q-32 13 -49 28l46 60h10q14 -12 37 -23q48 -22 105 -22q67 0 109.5 33t51.5 87q2 12 2 18q0 29 -16 50t-40 36t-65 35q-48 23 -78 42.5t-50.5 50t-20.5 73.5q0 17 3 35q9 55 42.5 98t85.5 67.5t116 24.5q83 0 141 -28q27 -13 44 -27l-46 -60h-10q-14 12 -32 22
q-48 23 -100 23q-37 0 -69.5 -18t-52 -47.5t-19.5 -62.5q0 -29 16 -50t40 -36t65 -35q48 -23 78 -42.5t50.5 -50t20.5 -73.5q0 -17 -3 -35q-16 -92 -85.5 -146t-179.5 -54q-88 0 -147 27zM137 -239q15 10 29 22q29 29 34 53q-17 0 -29 13t-12 33q0 25 19.5 44.5t40.5 19.5
q23 0 36.5 -13.5t13.5 -36.5q0 -9 -1 -14q-14 -68 -60 -116q-21 -23 -46 -36z" />
    <glyph glyph-name="scommaaccent" unicode="&#x219;" horiz-adv-x="460" 
d="M60 17q-28 13 -43 28l46 60h10q12 -12 31 -23q40 -22 91 -22q115 0 127 70q1 4 1 11q0 27 -25 42.5t-77 33.5q-44 15 -72 29t-47.5 37t-19.5 58q0 8 2 24q12 67 66 106t149 39q72 0 124 -28q26 -12 42 -27l-46 -60h-10q-12 10 -30 22q-40 23 -82 23q-50 0 -77.5 -18
t-33.5 -47q-1 -4 -1 -11q0 -27 24.5 -42t76.5 -34q46 -17 73.5 -30.5t47 -37t19.5 -58.5q0 -6 -2 -22q-13 -71 -69.5 -110.5t-161.5 -39.5q-81 0 -133 27zM117 -239q15 10 29 22q29 29 34 53q-17 0 -29 13t-12 33q0 25 19.5 44.5t40.5 19.5q23 0 36.5 -13.5t13.5 -36.5
q0 -9 -1 -14q-14 -68 -60 -116q-21 -23 -46 -36z" />
    <glyph glyph-name="uni021A" unicode="&#x21a;" horiz-adv-x="480" 
d="M165 0l111 630h-180l12 70h460l-12 -70h-180l-111 -630h-100zM116 -244q15 10 29 22q29 29 34 53q-17 0 -29 13t-12 33q0 25 19.5 44.5t40.5 19.5q23 0 36.5 -13.5t13.5 -36.5q0 -9 -1 -14q-14 -68 -60 -116q-21 -23 -46 -36z" />
    <glyph glyph-name="uni021B" unicode="&#x21b;" horiz-adv-x="400" 
d="M130.5 24.5q-37.5 34.5 -37.5 92.5q0 17 3 33l49 280h-75l11 60l153 130h45l-21 -120h125l-13 -70h-125l-49 -280q-3 -15 -3 -26q0 -32 16.5 -48t45.5 -16q32 0 63 20q14 9 29 20h10l25 -60q-26 -17 -45 -25q-52 -25 -104 -25q-65 0 -102.5 34.5zM121 -244q15 10 29 22
q29 29 34 53q-17 0 -29 13t-12 33q0 25 19.5 44.5t40.5 19.5q23 0 36.5 -13.5t13.5 -36.5q0 -9 -1 -14q-14 -68 -60 -116q-21 -23 -46 -36z" />
    <glyph glyph-name="uni02BC" unicode="&#x2bc;" horiz-adv-x="140" 
d="M86 565q15 10 29 22q29 29 34 53q-17 0 -29 13t-12 33q0 25 19.5 44.5t40.5 19.5q23 0 36.5 -13.5t13.5 -36.5q0 -9 -1 -14q-14 -68 -60 -116q-21 -23 -46 -36z" />
    <glyph glyph-name="circumflex" unicode="&#x2c6;" horiz-adv-x="320" 
d="M93 560l128 130h70l82 -130h-65l-63 65l-87 -65h-65z" />
    <glyph glyph-name="caron" unicode="&#x2c7;" horiz-adv-x="320" 
d="M198 560l-82 130h65l64 -65l86 65h65l-128 -130h-70z" />
    <glyph glyph-name="breve" unicode="&#x2d8;" horiz-adv-x="320" 
d="M136 586.5q-33 26.5 -33 73.5q0 14 3 30h90q-2 -9 -2 -24q0 -24 12.5 -35t37.5 -11q31 0 48 16.5t24 53.5h90q-12 -61 -56 -95.5t-117 -34.5q-64 0 -97 26.5z" />
    <glyph glyph-name="dotaccent" unicode="&#x2d9;" horiz-adv-x="140" 
d="M107 573q-14 13 -14 34q0 31 20.5 52t50.5 21q23 0 37 -13t14 -34q0 -31 -21 -52t-51 -21q-22 0 -36 13z" />
    <glyph glyph-name="ring" unicode="&#x2da;" horiz-adv-x="220" 
d="M118 561q-23 21 -23 56q0 12 1 18q8 42 40 68.5t77 26.5q39 0 62 -20.5t23 -54.5q0 -49 -34 -82t-84 -33q-39 0 -62 21zM218.5 601.5q13.5 11.5 17.5 33.5q1 4 1 12q0 16 -9.5 24.5t-23.5 8.5q-16 0 -29.5 -11.5t-18.5 -33.5q-1 -4 -1 -10q0 -17 9.5 -26t24.5 -9
q16 0 29.5 11.5z" />
    <glyph glyph-name="ogonek" unicode="&#x2db;" horiz-adv-x="190" 
d="M-11 -139.5q-19 15.5 -19 43.5q0 10 1 16q3 25 35 57q18 16 29 23h70q-11 -5 -29 -19q-14 -11 -23.5 -25t-9.5 -27t8 -21t21 -8t27 5t22.5 10t10.5 7h9l-9 -52q-13 -9 -24 -13q-26 -12 -61 -12q-39 0 -58 15.5z" />
    <glyph glyph-name="tilde" unicode="&#x2dc;" horiz-adv-x="295" 
d="M242 587q-11 7 -22 20q-2 2 -7 7.5t-11 8t-12 2.5q-26 -1 -39.5 -20.5l-13.5 -19.5h-9l-36 25q20 39 45 62t60 23q19 0 30.5 -7t22.5 -20q8 -9 14.5 -13.5t15.5 -4.5q13 0 25 9t18.5 18.5t8.5 12.5h9l36 -25q-20 -39 -45 -62t-60 -23q-19 0 -30 7z" />
    <glyph glyph-name="hungarumlaut" unicode="&#x2dd;" horiz-adv-x="295" 
d="M81 550l72 150h95l-112 -150h-55zM216 550l72 150h95l-112 -150h-55z" />
    <glyph glyph-name="gravecomb" unicode="&#x300;" horiz-adv-x="0" 
d="M-4 550l-63 150h110l18 -150h-65z" />
    <glyph glyph-name="acutecomb" unicode="&#x301;" horiz-adv-x="0" 
d="M-94 550l72 150h110l-117 -150h-65z" />
    <glyph glyph-name="uni0302" unicode="&#x302;" horiz-adv-x="0" 
d="M-227 560l128 130h70l82 -130h-65l-63 65l-87 -65h-65z" />
    <glyph glyph-name="tildecomb" unicode="&#x303;" horiz-adv-x="0" 
d="M-53 587q-11 7 -22 20q-2 2 -7 7.5t-11 8t-12 2.5q-26 -1 -39.5 -20.5l-13.5 -19.5h-9l-36 25q20 39 45 62t60 23q19 0 30.5 -7t22.5 -20q8 -9 14.5 -13.5t15.5 -4.5q13 0 25 9t18.5 18.5t8.5 12.5h9l36 -25q-20 -39 -45 -62t-60 -23q-19 0 -30 7z" />
    <glyph glyph-name="uni0304" unicode="&#x304;" horiz-adv-x="0" 
d="M-211 590l12 70h270l-12 -70h-270z" />
    <glyph glyph-name="uni0306" unicode="&#x306;" horiz-adv-x="0" 
d="M-184 586.5q-33 26.5 -33 73.5q0 14 3 30h90q-2 -9 -2 -24q0 -24 12.5 -35t37.5 -11q31 0 48 16.5t24 53.5h90q-12 -61 -56 -95.5t-117 -34.5q-64 0 -97 26.5z" />
    <glyph glyph-name="uni0307" unicode="&#x307;" horiz-adv-x="0" 
d="M-33 573q-14 13 -14 34q0 31 20.5 52t50.5 21q23 0 37 -13t14 -34q0 -31 -21 -52t-51 -21q-22 0 -36 13z" />
    <glyph glyph-name="uni0308" unicode="&#x308;" horiz-adv-x="0" 
d="M-199.5 576.5q-12.5 11.5 -12.5 31.5q0 8 1 12q4 24 22.5 39.5t42.5 15.5q21 0 33.5 -12.5t12.5 -32.5q0 -6 -1 -10q-5 -24 -23 -39.5t-42 -15.5q-21 0 -33.5 11.5zM-24.5 576.5q-12.5 11.5 -12.5 31.5q0 8 1 12q4 24 22.5 39.5t42.5 15.5q21 0 33.5 -12.5t12.5 -32.5
q0 -6 -1 -10q-5 -24 -23 -39.5t-42 -15.5q-21 0 -33.5 11.5z" />
    <glyph glyph-name="uni030A" unicode="&#x30a;" horiz-adv-x="0" 
d="M-102 561q-23 21 -23 56q0 12 1 18q8 42 40 68.5t77 26.5q39 0 62 -20.5t23 -54.5q0 -49 -34 -82t-84 -33q-39 0 -62 21zM-1.5 601.5q13.5 11.5 17.5 33.5q1 4 1 12q0 16 -9.5 24.5t-23.5 8.5q-16 0 -29.5 -11.5t-18.5 -33.5q-1 -4 -1 -10q0 -17 9.5 -26t24.5 -9
q16 0 29.5 11.5z" />
    <glyph glyph-name="uni030B" unicode="&#x30b;" horiz-adv-x="0" 
d="M-214 550l72 150h95l-112 -150h-55zM-79 550l72 150h95l-112 -150h-55z" />
    <glyph glyph-name="uni030C" unicode="&#x30c;" horiz-adv-x="0" 
d="M-122 560l-82 130h65l64 -65l86 65h65l-128 -130h-70z" />
    <glyph glyph-name="uni0326" unicode="&#x326;" horiz-adv-x="0" 
d="M-181 -205q15 10 29 22q29 29 34 53q-17 0 -29 13t-12 33q0 25 19.5 44.5t40.5 19.5q23 0 36.5 -13.5t13.5 -36.5q0 -9 -1 -14q-14 -68 -60 -116q-21 -23 -46 -36z" />
    <glyph glyph-name="uni0327" unicode="&#x327;" horiz-adv-x="0" 
d="M-220 -180q-14 6 -19 10l22 40h9q1 -1 6.5 -4.5t15 -7t20.5 -3.5q18 0 31 10t15 25q3 16 -7 25.5t-32 9.5h-40l17 95h60l-9 -50q36 0 56.5 -18t20.5 -47q0 -40 -30.5 -67.5t-79.5 -27.5q-32 0 -56 10z" />
    <glyph glyph-name="uni0328" unicode="&#x328;" horiz-adv-x="0" 
d="M-201 -139.5q-19 15.5 -19 43.5q0 10 1 16q3 25 35 57q18 16 29 23h70q-11 -5 -29 -19q-14 -11 -23.5 -25t-9.5 -27t8 -21t21 -8t27 5t22.5 10t10.5 7h9l-9 -52q-13 -9 -24 -13q-26 -12 -61 -12q-39 0 -58 15.5z" />
    <glyph glyph-name="uni0335" unicode="&#x335;" horiz-adv-x="0" 
d="M-321 300l12 70h280l-12 -70h-280z" />
    <glyph glyph-name="uni0400" unicode="&#x400;" 
d="M65 0l123 700h390l-12 -70h-290l-41 -230h230l-12 -70h-230l-46 -260h290l-12 -70h-390zM365 750l-63 150h110l18 -150h-65z" />
    <glyph glyph-name="uni0401" unicode="&#x401;" 
d="M65 0l123 700h390l-12 -70h-290l-41 -230h230l-12 -70h-230l-46 -260h290l-12 -70h-390zM284.5 776.5q-12.5 11.5 -12.5 31.5q0 8 1 12q4 24 22.5 39.5t42.5 15.5q21 0 33.5 -12.5t12.5 -32.5q0 -6 -1 -10q-5 -24 -23 -39.5t-42 -15.5q-21 0 -33.5 11.5zM459.5 776.5
q-12.5 11.5 -12.5 31.5q0 8 1 12q4 24 22.5 39.5t42.5 15.5q21 0 33.5 -12.5t12.5 -32.5q0 -6 -1 -10q-5 -24 -23 -39.5t-42 -15.5q-21 0 -33.5 11.5z" />
    <glyph glyph-name="uni0402" unicode="&#x402;" horiz-adv-x="640" 
d="M346 -23l-24 8l21 65h10q7 -4 14 -5q15 -5 30 -5q35 0 58.5 23t31.5 67l22 125q3 15 3 29q0 45 -30 70.5t-85 25.5q-41 0 -83 -8q-9 -2 -35 -7l-64 -365h-100l111 630h-140l12 70h420l-12 -70h-180l-35 -195l41 7q54 8 102 8q85 0 132 -41.5t47 -112.5q0 -22 -4 -41
l-22 -125q-12 -71 -63 -115.5t-120 -44.5q-32 0 -58 7z" />
    <glyph glyph-name="uni0403" unicode="&#x403;" horiz-adv-x="490" 
d="M65 0l123 700h390l-12 -70h-290l-111 -630h-100zM385 750l72 150h110l-117 -150h-65z" />
    <glyph glyph-name="uni0404" unicode="&#x404;" horiz-adv-x="515" 
d="M132.5 45.5q-53.5 55.5 -53.5 176.5q0 56 12 128q32 186 113.5 273t200.5 87q72 0 124 -28q25 -13 41 -27l-46 -60h-10q-12 10 -30 22q-40 23 -82 23q-146 0 -203 -250h234l-12 -70h-235q-7 -48 -7 -91q0 -169 131 -169q44 0 90 22q26 14 38 23h10l24 -60
q-21 -15 -51 -28q-58 -27 -133 -27q-102 0 -155.5 55.5z" />
    <glyph glyph-name="uni0405" unicode="&#x405;" horiz-adv-x="505" 
d="M66 17q-32 13 -49 28l46 60h10q14 -12 37 -23q48 -22 105 -22q67 0 109.5 33t51.5 87q2 12 2 18q0 29 -16 50t-40 36t-65 35q-48 23 -78 42.5t-50.5 50t-20.5 73.5q0 17 3 35q9 55 42.5 98t85.5 67.5t116 24.5q83 0 141 -28q27 -13 44 -27l-46 -60h-10q-14 12 -32 22
q-48 23 -100 23q-37 0 -69.5 -18t-52 -47.5t-19.5 -62.5q0 -29 16 -50t40 -36t65 -35q48 -23 78 -42.5t50.5 -50t20.5 -73.5q0 -17 -3 -35q-16 -92 -85.5 -146t-179.5 -54q-88 0 -147 27z" />
    <glyph glyph-name="uni0406" unicode="&#x406;" horiz-adv-x="280" 
d="M65 0l123 700h100l-123 -700h-100z" />
    <glyph glyph-name="uni0407" unicode="&#x407;" horiz-adv-x="280" 
d="M65 0l123 700h100l-123 -700h-100zM127.5 776.5q-12.5 11.5 -12.5 31.5q0 8 1 12q4 24 22.5 39.5t42.5 15.5q21 0 33.5 -12.5t12.5 -32.5q0 -6 -1 -10q-5 -24 -23 -39.5t-42 -15.5q-21 0 -33.5 11.5zM302.5 776.5q-12.5 11.5 -12.5 31.5q0 8 1 12q4 24 22.5 39.5
t42.5 15.5q21 0 33.5 -12.5t12.5 -32.5q0 -6 -1 -10q-5 -24 -23 -39.5t-42 -15.5q-21 0 -33.5 11.5z" />
    <glyph glyph-name="uni0408" unicode="&#x408;" horiz-adv-x="425" 
d="M14 12q-22 12 -33 23l41 65h10q14 -14 22 -20q27 -20 56 -20q58 0 92 31.5t46 98.5l90 510h100l-90 -510q-17 -99 -77.5 -149.5t-162.5 -50.5q-48 0 -94 22z" />
    <glyph glyph-name="uni0409" unicode="&#x409;" horiz-adv-x="881" 
d="M0 -5q-7 1 -15 5l16 65h10l6 -3q8 -2 13 -2q21 0 40.5 23.5t32.5 76.5l125 540h381l-46 -260h90q105 0 158 -42.5t53 -123.5q0 -22 -5 -54q-18 -107 -89 -163.5t-194 -56.5h-191l111 630h-185l-108 -470q-20 -85 -63 -127.5t-102 -42.5q-21 0 -38 5zM588 70
q146 0 171 150q4 21 4 44q0 106 -122 106h-90l-53 -300h90z" />
    <glyph glyph-name="uni040A" unicode="&#x40a;" horiz-adv-x="900" 
d="M188 700h100l-49 -280h240l49 280h100l-49 -280h90q107 0 159.5 -42.5t52.5 -121.5q0 -25 -4 -46q-18 -100 -89 -155t-193 -55h-190l61 350h-240l-61 -350h-100zM607 70q72 0 115 35.5t55 104.5q3 18 3 35q0 51 -31 78t-93 27h-90l-49 -280h90z" />
    <glyph glyph-name="uni040B" unicode="&#x40b;" horiz-adv-x="650" 
d="M226 630h-140l12 70h420l-12 -70h-180l-35 -195l41 7q54 8 102 8q85 0 132 -41.5t47 -112.5q0 -22 -4 -41l-44 -255h-100l44 255q3 15 3 29q0 45 -30 70.5t-85 25.5q-41 0 -83 -8q-9 -2 -35 -7l-64 -365h-100z" />
    <glyph glyph-name="uni040C" unicode="&#x40c;" horiz-adv-x="585" 
d="M408 17q-23 27 -25 73l-6 160q-2 35 -22.5 55t-62.5 20h-70l-57 -325h-100l123 700h100l-54 -305h60q44 0 74 20t42 55l50 140q16 46 48.5 73t76.5 27q19 0 31 -2t27 -8l-22 -65h-5q-8 5 -19 5q-31 0 -48 -45l-49 -140q-19 -51 -69 -75q-22 -10 -47 -15q24 -6 42 -18
q41 -30 45 -82l7 -160q3 -45 32 -45q11 0 21 5h5l-1 -65q-26 -10 -62 -10q-42 0 -65 27zM363 750l72 150h110l-117 -150h-65z" />
    <glyph glyph-name="uni040D" unicode="&#x40d;" horiz-adv-x="630" 
d="M188 700h100l-83 -465l-5 -23q-5 -34 -14 -62h4q27 58 45 85l313 465h100l-123 -700h-100l82 465q7 41 19 85h-4q-30 -63 -45 -85l-312 -465h-100zM394 750l-63 150h110l18 -150h-65z" />
    <glyph glyph-name="uni040E" unicode="&#x40e;" horiz-adv-x="536" 
d="M64 0q-16 6 -26 15l37 65h10q7 -9 14 -13q15 -12 41 -12q29 0 55.5 19.5t42.5 50.5l30 60h-45l-115 515h105l82 -365q4 -18 6 -47l2 -28h4l12 28l8 19l13 28l184 365h100l-286 -575q-29 -59 -84 -99.5t-116 -40.5q-42 0 -74 15zM259 776.5q-33 26.5 -33 73.5q0 14 3 30
h90q-2 -9 -2 -25q0 -24 12 -34.5t37 -10.5q31 0 48.5 16.5t24.5 53.5h90q-12 -61 -56 -95.5t-117 -34.5q-64 0 -97 26.5z" />
    <glyph glyph-name="uni040F" unicode="&#x40f;" horiz-adv-x="630" 
d="M223 -150l17 150h-175l123 700h100l-111 -630h250l111 630h100l-123 -700h-175l-37 -150h-80z" />
    <glyph glyph-name="uni0410" unicode="&#x410;" horiz-adv-x="570" 
d="M-10 0l328 700h130l82 -700h-100l-24 180h-230l-86 -180h-100zM399 250l-32 275q-2 12 -2 27.5v19.5q0 16 1 23h-4q-4 -16 -7 -24q-9 -26 -18 -46l-128 -275h190z" />
    <glyph glyph-name="uni0411" unicode="&#x411;" horiz-adv-x="570" 
d="M188 700h390l-12 -70h-290l-37 -210h90q107 0 159.5 -42.5t52.5 -121.5q0 -25 -4 -46q-18 -100 -89 -155t-193 -55h-190zM267 70q72 0 115 35.5t55 104.5q3 18 3 35q0 51 -31 78t-93 27h-90l-49 -280h90z" />
    <glyph glyph-name="uni0412" unicode="&#x412;" horiz-adv-x="575" 
d="M188 700h190q93 0 142.5 -39t49.5 -103q0 -16 -3 -33q-15 -81 -80 -126q-29 -20 -62 -29q38 -9 64 -32q47 -43 47 -111q0 -17 -3 -37q-16 -89 -85.5 -139.5t-192.5 -50.5h-190zM325 400q57 0 94 30.5t46 84.5q3 15 3 27q0 42 -26.5 65t-75.5 23h-90l-41 -230h90zM267 70
q145 0 168 130q3 18 3 34q0 96 -125 96h-90l-46 -260h90z" />
    <glyph glyph-name="uni0413" unicode="&#x413;" horiz-adv-x="490" 
d="M65 0l123 700h390l-12 -70h-290l-111 -630h-100z" />
    <glyph glyph-name="uni0414" unicode="&#x414;" horiz-adv-x="620" 
d="M-3 70h50q15 15 33 43q34 52 54 137l104 450h375l-111 -630h65l-39 -220h-80l12 150h-375l-42 -150h-84zM402 70l99 560h-180l-87 -380q-20 -85 -54 -137q-18 -28 -33 -43h255z" />
    <glyph glyph-name="uni0415" unicode="&#x415;" 
d="M65 0l123 700h390l-12 -70h-290l-41 -230h230l-12 -70h-230l-46 -260h290l-12 -70h-390z" />
    <glyph glyph-name="uni0416" unicode="&#x416;" horiz-adv-x="860" 
d="M14 -5q-9 1 -14 5l21 65h5l6 -3q8 -2 13 -2q30 0 48 45l63 160q21 52 74 82q22 12 49 18q-24 5 -42 15q-42 24 -42 75l-1 140q1 23 -7.5 34t-24.5 11q-2 0 -14 -3l-7 -2h-5l2 65l16 5q18 5 46 5q48 0 72.5 -27t24.5 -73v-140q0 -35 20.5 -55t61.5 -20h45l54 305h100
l-54 -305h45q41 0 68.5 20t39.5 55l50 140q18 47 52 73.5t81 26.5q26 0 44 -5l14 -5l-22 -65h-5l-6 2q-2 0 -6 1.5t-7 1.5q-31 0 -48 -45l-49 -140q-19 -51 -69 -75q-22 -10 -47 -15q24 -6 42 -18q41 -30 45 -82l7 -160q3 -45 32 -45q4 0 14 2l7 3h5l-1 -65q-10 -4 -16 -5
q-20 -5 -46 -5q-47 0 -71.5 26.5t-26.5 73.5l-6 160q-2 35 -21 55t-56 20h-55l-57 -325h-100l57 325h-55q-71 0 -103 -75l-64 -160q-18 -47 -51.5 -73.5t-80.5 -26.5q-27 0 -44 5z" />
    <glyph glyph-name="uni0417" unicode="&#x417;" horiz-adv-x="520" 
d="M46 17q-28 13 -44 28l46 60h10q13 -12 32 -23q46 -22 100 -22q165 0 189 135q3 18 3 33q0 49 -31 75.5t-93 26.5h-90l12 70h90q67 0 110 41t43 104q0 44 -31 69.5t-90 25.5q-49 0 -99 -23q-24 -11 -39 -22h-10l-24 60q23 16 52 27q65 28 143 28q97 0 149 -41t52 -107
q0 -15 -3 -32q-15 -81 -85 -129q-31 -21 -68 -31q39 -11 64 -33q47 -43 47 -110q0 -22 -4 -42q-16 -90 -88.5 -142.5t-200.5 -52.5q-86 0 -142 27z" />
    <glyph glyph-name="uni0418" unicode="&#x418;" horiz-adv-x="630" 
d="M188 700h100l-83 -465l-5 -23q-5 -34 -14 -62h4q27 58 45 85l313 465h100l-123 -700h-100l82 465q7 41 19 85h-4q-30 -63 -45 -85l-312 -465h-100z" />
    <glyph glyph-name="uni0419" unicode="&#x419;" horiz-adv-x="630" 
d="M188 700h100l-83 -465l-5 -23q-5 -34 -14 -62h4q27 58 45 85l313 465h100l-123 -700h-100l82 465q7 41 19 85h-4q-30 -63 -45 -85l-312 -465h-100zM325 776.5q-33 26.5 -33 73.5q0 14 3 30h90q-2 -9 -2 -25q0 -24 12 -34.5t37 -10.5q31 0 48.5 16.5t24.5 53.5h90
q-12 -61 -56 -95.5t-117 -34.5q-64 0 -97 26.5z" />
    <glyph glyph-name="uni041A" unicode="&#x41a;" horiz-adv-x="585" 
d="M408 17q-23 27 -25 73l-6 160q-2 35 -22.5 55t-62.5 20h-70l-57 -325h-100l123 700h100l-54 -305h60q44 0 74 20t42 55l50 140q16 46 48.5 73t76.5 27q19 0 31 -2t27 -8l-22 -65h-5q-8 5 -19 5q-31 0 -48 -45l-49 -140q-19 -51 -69 -75q-22 -10 -47 -15q24 -6 42 -18
q41 -30 45 -82l7 -160q3 -45 32 -45q11 0 21 5h5l-1 -65q-26 -10 -62 -10q-42 0 -65 27z" />
    <glyph glyph-name="uni041B" unicode="&#x41b;" horiz-adv-x="610" 
d="M0 -5q-7 1 -15 5l16 65h10l6 -3q8 -2 13 -2q21 0 40.5 23.5t32.5 76.5l125 540h390l-123 -700h-100l111 630h-195l-108 -470q-20 -85 -63 -127.5t-102 -42.5q-21 0 -38 5z" />
    <glyph glyph-name="uni041C" unicode="&#x41c;" horiz-adv-x="840" 
d="M188 700h100l135 -425q6 -17 7 -31l2 -19h4l9 19q10 22 18 31l285 425h100l-123 -700h-100l74 420l11 54l8 31h-4l-15 -31q-18 -37 -30 -54l-202 -295h-100l-98 295q-5 14 -11 54q-2 11 -4 31h-4l-4 -31l-3 -26q-2 -20 -4 -28l-74 -420h-100z" />
    <glyph glyph-name="uni041D" unicode="&#x41d;" horiz-adv-x="630" 
d="M65 0l123 700h100l-55 -310h250l55 310h100l-123 -700h-100l56 320h-250l-56 -320h-100z" />
    <glyph glyph-name="uni041E" unicode="&#x41e;" horiz-adv-x="600" 
d="M130 46q-51 56 -51 175q0 57 12 129q32 186 113 273t196 87q92 0 142.5 -55.5t50.5 -174.5q0 -56 -12 -130q-32 -186 -112.5 -273t-195.5 -87q-92 0 -143 56zM400.5 128.5q52.5 68.5 80.5 221.5q13 69 13 124q0 86 -30 126t-77 40q-64 0 -116 -68t-80 -222
q-13 -71 -13 -126q0 -86 29.5 -125t77.5 -39q63 0 115.5 68.5z" />
    <glyph glyph-name="uni041F" unicode="&#x41f;" horiz-adv-x="630" 
d="M65 0l123 700h450l-123 -700h-100l111 630h-250l-111 -630h-100z" />
    <glyph glyph-name="uni0420" unicode="&#x420;" horiz-adv-x="565" 
d="M188 700h180q215 0 215 -169q0 -28 -6 -61q-20 -115 -91.5 -172.5t-198.5 -57.5h-80l-42 -240h-100zM299 310q76 0 120 39t58 121q5 30 5 50q0 57 -31 83.5t-95 26.5h-80l-57 -320h80z" />
    <glyph glyph-name="uni0421" unicode="&#x421;" horiz-adv-x="515" 
d="M132.5 45.5q-53.5 55.5 -53.5 176.5q0 56 12 128q32 186 113.5 273t200.5 87q72 0 124 -28q25 -13 41 -27l-46 -60h-10q-12 10 -30 22q-40 23 -82 23q-158 0 -211 -290q-13 -68 -13 -122q0 -168 132 -168q44 0 90 22q26 14 38 23h10l24 -60q-21 -15 -51 -28
q-58 -27 -133 -27q-102 0 -155.5 55.5z" />
    <glyph glyph-name="uni0422" unicode="&#x422;" horiz-adv-x="480" 
d="M165 0l111 630h-180l12 70h460l-12 -70h-180l-111 -630h-100z" />
    <glyph glyph-name="uni0423" unicode="&#x423;" horiz-adv-x="536" 
d="M64 0q-16 6 -26 15l37 65h10q7 -9 14 -13q15 -12 41 -12q29 0 55.5 19.5t42.5 50.5l30 60h-45l-115 515h105l82 -365q4 -18 6 -47l2 -28h4l12 28l8 19l13 28l184 365h100l-286 -575q-29 -59 -84 -99.5t-116 -40.5q-42 0 -74 15z" />
    <glyph glyph-name="uni0424" unicode="&#x424;" horiz-adv-x="770" 
d="M317 40q-119 7 -181.5 65t-62.5 165q0 34 8 80q26 146 114.5 224t230.5 86l12 70h100l-12 -70q119 -7 181 -65t62 -165q0 -34 -8 -80q-26 -145 -114 -223.5t-230 -86.5l-13 -70h-100zM414 590q-91 -9 -152 -68t-81 -172q-6 -36 -6 -67q0 -80 40 -123t114 -50zM580.5 177
q60.5 60 80.5 173q7 35 7 69q0 79 -40.5 121.5t-113.5 49.5l-85 -480q91 7 151.5 67z" />
    <glyph glyph-name="uni0425" unicode="&#x425;" horiz-adv-x="530" 
d="M237 355l-119 345h110l75 -225q2 -7 3.5 -14.5t3.5 -14.5l3 -16h4l8 16q11 20 18 29l155 225h110l-241 -345l123 -355h-110l-79 235q-2 7 -3.5 14.5t-3.5 14.5l-3 16h-4l-9 -16q-2 -4 -7 -13.5t-10 -15.5l-161 -235h-110z" />
    <glyph glyph-name="uni0426" unicode="&#x426;" horiz-adv-x="635" 
d="M463 -150l12 150h-410l123 700h100l-111 -630h240l111 630h100l-111 -630h65l-39 -220h-80z" />
    <glyph glyph-name="uni0427" unicode="&#x427;" horiz-adv-x="600" 
d="M433 275q-12 -3 -22.5 -4.5t-19.5 -3.5q-47 -7 -101 -7q-85 0 -132 41.5t-47 112.5q0 22 4 41l43 245h100l-43 -245q-2 -9 -2 -27q0 -46 30 -72t85 -26q46 0 83 7l34 8l63 355h100l-123 -700h-100z" />
    <glyph glyph-name="uni0428" unicode="&#x428;" horiz-adv-x="920" 
d="M65 0l123 700h100l-111 -630h220l111 630h100l-111 -630h220l111 630h100l-123 -700h-740z" />
    <glyph glyph-name="uni0429" unicode="&#x429;" horiz-adv-x="935" 
d="M763 -150l12 150h-710l123 700h100l-111 -630h220l111 630h100l-111 -630h220l111 630h100l-111 -630h65l-39 -220h-80z" />
    <glyph glyph-name="uni042A" unicode="&#x42a;" horiz-adv-x="620" 
d="M236 630h-140l12 70h240l-46 -260h90q105 0 158 -42.5t53 -123.5q0 -22 -5 -54q-18 -107 -89 -163.5t-194 -56.5h-190zM327 70q146 0 171 150q4 21 4 44q0 106 -122 106h-90l-53 -300h90z" />
    <glyph glyph-name="uni042B" unicode="&#x42b;" horiz-adv-x="800" 
d="M188 700h100l-46 -260h80q105 0 158 -42.5t53 -123.5q0 -22 -5 -54q-18 -107 -89 -163.5t-194 -56.5h-180zM585 0l123 700h100l-123 -700h-100zM257 70q146 0 171 150q4 21 4 44q0 106 -122 106h-80l-53 -300h80z" />
    <glyph glyph-name="uni042C" unicode="&#x42c;" horiz-adv-x="560" 
d="M188 700h100l-46 -260h90q105 0 158 -42.5t53 -123.5q0 -22 -5 -54q-18 -107 -89 -163.5t-194 -56.5h-190zM267 70q146 0 171 150q4 21 4 44q0 106 -122 106h-90l-53 -300h90z" />
    <glyph glyph-name="uni042D" unicode="&#x42d;" horiz-adv-x="515" 
d="M49 17q-26 12 -42 28l46 60h10q11 -11 30 -23q38 -22 82 -22q77 0 132.5 60.5t83.5 199.5h-235l12 70h234q6 47 6 83q0 167 -121 167q-42 0 -90 -23q-26 -14 -38 -22h-10l-24 60q22 15 51 27q60 28 134 28q198 0 198 -231q0 -57 -12 -129q-62 -360 -323 -360
q-74 0 -124 27z" />
    <glyph glyph-name="uni042E" unicode="&#x42e;" horiz-adv-x="810" 
d="M357.5 46q-48.5 56 -48.5 176q0 48 7 98h-95l-56 -320h-100l123 700h100l-55 -310h95q37 165 113 242.5t179 77.5q87 0 135.5 -55.5t48.5 -173.5q0 -60 -13 -131q-32 -185 -111 -272.5t-187 -87.5q-87 0 -135.5 56zM612.5 129q50.5 69 78.5 221q13 71 13 126
q0 85 -27.5 124.5t-69.5 39.5q-57 0 -107.5 -69t-78.5 -221q-13 -71 -13 -126q0 -85 27.5 -124.5t69.5 -39.5q57 0 107.5 69z" />
    <glyph glyph-name="uni042F" unicode="&#x42f;" horiz-adv-x="570" 
d="M9 -5q-9 1 -14 5l21 65h5l6 -3q8 -2 13 -2q12 0 25.5 11.5t22.5 33.5l49 105q20 44 59 69q21 12 36 16q-50 7 -85 49t-35 104q0 18 3 37q18 104 90 159.5t198 55.5h175l-123 -700h-100l47 270h-65q-33 0 -60 -20t-43 -55l-49 -105q-24 -50 -56 -75t-76 -25q-27 0 -44 5z
M414 340l52 290h-75q-151 0 -176 -145q-4 -28 -4 -39q0 -106 128 -106h75z" />
    <glyph glyph-name="uni0430" unicode="&#x430;" 
d="M78.5 21.5q-36.5 31.5 -36.5 88.5q0 17 3 35q13 71 71.5 110.5t170.5 39.5h80l4 25q4 26 4 35q0 42 -23 63.5t-65 21.5q-34 0 -82 -23q-22 -12 -36 -22h-10l-24 60q24 16 49 27q58 28 125 28q76 0 120.5 -42.5t44.5 -110.5q0 -17 -3 -37l-56 -320h-70v60h-5
q-17 -20 -41 -35q-50 -35 -116 -35q-68 0 -104.5 31.5zM260.5 73q18.5 8 40.5 22q18 13 36 30l17 100h-80q-65 0 -98 -28t-33 -71q0 -30 19.5 -45.5t58.5 -15.5q21 0 39.5 8z" />
    <glyph glyph-name="uni0431" unicode="&#x431;" horiz-adv-x="525" 
d="M110.5 36q-46.5 46 -46.5 131q0 30 6 63l17 95q22 126 62 200t102.5 111t159.5 54l145 25v-85l-145 -25q-102 -18 -153.5 -66.5t-69.5 -148.5q30 39 70.5 59.5t88.5 20.5q66 0 107.5 -46t41.5 -130q0 -29 -6 -64q-20 -115 -88 -177.5t-164 -62.5q-81 0 -127.5 46z
M336.5 102.5q38.5 42.5 53.5 127.5q5 33 5 54q0 56 -23.5 83.5t-62.5 27.5q-48 0 -86.5 -41.5t-52.5 -123.5q-6 -33 -6 -58q0 -56 23.5 -84t62.5 -28q48 0 86.5 42.5z" />
    <glyph glyph-name="uni0432" unicode="&#x432;" 
d="M138 500h190q79 0 119 -31t40 -80q0 -38 -19 -65t-47 -43q-24 -13 -51 -21q31 -6 54 -21q42 -29 42 -78q0 -70 -57 -115.5t-169 -45.5h-190zM291 290q41 0 67 24t26 59q0 26 -18 41.5t-51 15.5h-90l-24 -140h90zM252 70q51 0 79 20t34 55q1 5 1 16q0 59 -88 59h-90
l-26 -150h90z" />
    <glyph glyph-name="uni0433" unicode="&#x433;" horiz-adv-x="415" 
d="M50 0l88 500h330l-13 -70h-230l-75 -430h-100z" />
    <glyph glyph-name="uni0434" unicode="&#x434;" horiz-adv-x="560" 
d="M-8 70h50q17 17 33 39q33 48 48 111l65 280h335l-76 -430h65l-37 -210h-80l10 140h-325l-40 -140h-84zM347 70l63 360h-140l-47 -210q-15 -63 -48 -111q-16 -22 -33 -39h205z" />
    <glyph glyph-name="uni0435" unicode="&#x435;" horiz-adv-x="505" 
d="M109 36q-47 46 -47 137q0 38 7 77q21 127 88.5 193.5t161.5 66.5q78 0 122.5 -47t44.5 -138q0 -28 -7 -75l-3 -15l-24 -20h-290q-5 -28 -5 -46q0 -54 28.5 -81.5t79.5 -27.5q35 0 81 22q22 12 37 23h10l24 -60q-20 -15 -50 -28q-56 -27 -124 -27q-87 0 -134 46zM385 285
q5 33 5 53q0 52 -22 77t-61 25q-48 0 -83 -38.5t-49 -116.5h210z" />
    <glyph glyph-name="uni0436" unicode="&#x436;" horiz-adv-x="740" 
d="M16 -5q-6 1 -16 5l21 65h5l6 -3q8 -2 13 -2q23 0 35 30l42 95q12 27 33.5 43t19.5 15.5t50 16.5q-7 0 -22.5 5.5t-30 20t-15.5 39.5l-5 85q-3 30 -25 30q-2 0 -14 -3l-7 -2h-5l2 65l17 5q18 5 44 5q42 0 62.5 -21t22.5 -64l5 -85q2 -25 15.5 -37.5t41.5 -12.5h35l37 210
h100l-37 -210h35q54 0 73 50l35 85q18 43 45.5 64t69.5 21q25 0 43 -5q14 -4 16 -5l-22 -65h-5l-6 2q-2 0 -6 1.5t-7 1.5q-23 0 -35 -30l-35 -85q-11 -25 -30 -39.5t-36.5 -20t-25.5 -5.5q6 0 24 -7.5t34.5 -24t18.5 -43.5l8 -95q3 -30 25 -30q4 0 14 2l7 3h5l-1 -65
q-9 -4 -18 -5q-20 -5 -44 -5q-41 0 -61.5 21.5t-23.5 63.5l-9 95q-5 50 -56 50h-45l-38 -220h-100l38 220h-45q-50 0 -74 -50l-41 -95q-19 -42 -46.5 -63.5t-68.5 -21.5q-24 0 -42 5z" />
    <glyph glyph-name="uni0437" unicode="&#x437;" horiz-adv-x="450" 
d="M40 17q-28 13 -43 28l46 60h10q12 -12 31 -23q40 -22 91 -22q62 0 92 20t37 60q2 14 2 19q0 61 -88 61h-85l13 70h85q44 0 70.5 20t32.5 55q1 5 1 16q0 59 -93 59q-40 0 -88 -23q-18 -10 -35 -22h-10l-24 60q21 15 48 27q58 28 131 28q87 0 130.5 -31t43.5 -82
q0 -71 -71 -113q-25 -16 -57 -24q32 -6 54 -22q41 -29 41 -80q0 -75 -58.5 -121.5t-173.5 -46.5q-81 0 -133 27z" />
    <glyph glyph-name="uni0438" unicode="&#x438;" horiz-adv-x="550" 
d="M138 500h95l-53 -295l-10 -46l-6 -24h4q3 8 6.5 14t5.5 10q14 26 30 46l233 295h95l-88 -500h-95l53 306l10 46l6 24h-4q-4 -12 -12 -24q-17 -28 -30 -46l-233 -306h-95z" />
    <glyph glyph-name="uni0439" unicode="&#x439;" horiz-adv-x="550" 
d="M138 500h95l-53 -295l-10 -46l-6 -24h4q3 8 6.5 14t5.5 10q14 26 30 46l233 295h95l-88 -500h-95l53 306l10 46l6 24h-4q-4 -12 -12 -24q-17 -28 -30 -46l-233 -306h-95zM229 576.5q-33 26.5 -33 73.5q0 14 3 30h90q-2 -18 -2 -23q0 -25 12.5 -36t37.5 -11
q31 0 48.5 16.5t23.5 53.5h90q-12 -61 -56 -95.5t-117 -34.5q-64 0 -97 26.5z" />
    <glyph glyph-name="uni043A" unicode="&#x43a;" 
d="M336.5 11.5q-20.5 21.5 -23.5 63.5l-9 95q-5 50 -56 50h-60l-38 -220h-100l88 500h100l-37 -210h50q54 0 73 50l35 85q18 43 45.5 64t69.5 21q25 0 43 -5q13 -4 16 -5l-22 -65h-5l-6 2q-2 0 -6 1.5t-7 1.5q-23 0 -35 -30l-35 -85q-16 -37 -55 -55q-21 -9 -37 -10
q22 -3 37 -13q36 -21 40 -62l8 -95q3 -30 25 -30q4 0 14 2l7 3h5l-1 -65q-9 -4 -18 -5q-20 -5 -44 -5q-41 0 -61.5 21.5z" />
    <glyph glyph-name="uni043B" unicode="&#x43b;" horiz-adv-x="540" 
d="M0 -5q-7 1 -15 5l16 65h10l6 -3q8 -2 13 -2q21 0 38 22t30 78l80 340h350l-88 -500h-100l75 430h-155l-62 -270q-40 -170 -160 -170q-21 0 -38 5z" />
    <glyph glyph-name="uni043C" unicode="&#x43c;" horiz-adv-x="680" 
d="M138 500h95l100 -280q2 -7 4 -13.5t4 -12.5l3 -14h4l8 14q2 3 7 11.5t10 14.5l200 280h95l-88 -500h-90l46 265q3 20 11 46l6 24h-4l-13 -23q-12 -22 -30 -47l-130 -180h-82l-73 210q-3 9 -6.5 23.5t-5.5 23.5q-4 16 -5 23h-4l-2 -24l-3 -23q-2 -14 -4 -23l-51 -295h-90z
" />
    <glyph glyph-name="uni043D" unicode="&#x43d;" horiz-adv-x="550" 
d="M50 0l88 500h100l-37 -210h200l37 210h100l-88 -500h-100l38 220h-200l-38 -220h-100z" />
    <glyph glyph-name="uni043E" unicode="&#x43e;" horiz-adv-x="530" 
d="M108 36q-46 46 -46 137q0 38 7 77q23 129 91 194.5t169 65.5q84 0 130.5 -47t46.5 -139q0 -27 -7 -74q-23 -128 -91.5 -194t-169.5 -66q-84 0 -130 46zM342 105.5q40 45.5 57 144.5q7 39 7 73q0 61 -24 89t-65 28q-53 0 -92 -45.5t-56 -144.5q-7 -39 -7 -74
q0 -116 88 -116q52 0 92 45.5z" />
    <glyph glyph-name="uni043F" unicode="&#x43f;" horiz-adv-x="550" 
d="M50 0l88 500h400l-88 -500h-100l75 430h-200l-75 -430h-100z" />
    <glyph glyph-name="uni0440" unicode="&#x440;" horiz-adv-x="535" 
d="M138 500h70l-1 -60h5q14 16 41 35q56 35 116 35q64 0 103 -47t39 -137q0 -37 -7 -76q-23 -127 -89.5 -193.5t-156.5 -66.5q-39 0 -75 15q-16 6 -30 15l-33 -190l-36 -30h-70zM347 105.5q40 45.5 57 144.5q7 36 7 70q0 59 -22.5 87t-57.5 28q-38 0 -80 -30
q-20 -15 -35 -30l-52 -295q7 -4 25 -10q32 -10 66 -10q52 0 92 45.5z" />
    <glyph glyph-name="uni0441" unicode="&#x441;" horiz-adv-x="455" 
d="M109 36q-47 46 -47 137q0 38 7 77q23 128 90.5 194t164.5 66q65 0 115 -28q24 -13 41 -27l-46 -60h-10q-14 12 -29 22q-18 11 -35 17t-38 6q-56 0 -96 -45t-57 -145q-7 -39 -7 -73q0 -62 26 -89.5t77 -27.5q35 0 81 22q22 12 37 23h10l24 -60q-20 -15 -50 -28
q-56 -27 -124 -27q-87 0 -134 46z" />
    <glyph glyph-name="uni0442" unicode="&#x442;" horiz-adv-x="420" 
d="M135 0l75 430h-150l13 70h400l-13 -70h-150l-75 -430h-100z" />
    <glyph glyph-name="uni0443" unicode="&#x443;" horiz-adv-x="475" 
d="M2 -195q-14 6 -24 15l36 65h10q7 -9 14 -13q15 -12 37 -12q26 0 49 19.5t38 50.5l33 70h-40l-77 500h100l51 -330q3 -13 5 -51l2 -29h4l12 29l9 23q8 20 12 28l150 330h100l-261 -570q-28 -63 -78 -101.5t-112 -38.5q-40 0 -70 15z" />
    <glyph glyph-name="uni0444" unicode="&#x444;" horiz-adv-x="680" 
d="M263 -10q-100 3 -153 52t-53 139q0 34 7 69q22 124 97 190t193 70l29 160l35 30h70l-34 -190q101 -3 153.5 -51.5t52.5 -141.5q0 -31 -6 -67q-23 -124 -97.5 -190t-193.5 -70l-34 -190h-100zM342 440q-72 -4 -116.5 -49.5t-61.5 -140.5q-6 -34 -6 -62q0 -122 117 -128z
M492 109.5q45 45.5 62 140.5q6 35 6 61q0 123 -118 129l-67 -380q72 4 117 49.5z" />
    <glyph glyph-name="uni0445" unicode="&#x445;" horiz-adv-x="460" 
d="M189 255l-106 245h110l55 -140q2 -7 4 -13.5t4 -12.5l3 -14h4l8 14q2 3 7 11.5t10 14.5l105 140h110l-194 -245l111 -255h-110l-60 145q-2 5 -4 13t-4 13l-3 14h-4l-8 -14q-2 -3 -7 -11.5t-10 -14.5l-110 -145h-110z" />
    <glyph glyph-name="uni0446" unicode="&#x446;" horiz-adv-x="565" 
d="M400 -140l10 140h-360l88 500h100l-76 -430h190l76 430h100l-76 -430h65l-37 -210h-80z" />
    <glyph glyph-name="uni0447" unicode="&#x447;" horiz-adv-x="520" 
d="M352 185l-35 -8q-37 -7 -83 -7q-69 0 -108.5 37t-39.5 97q0 15 3 31l29 165h100l-29 -165q-2 -14 -2 -20q0 -34 23 -54.5t62 -20.5q35 0 65 7q28 9 27 8l44 245h100l-88 -500h-100z" />
    <glyph glyph-name="uni0448" unicode="&#x448;" horiz-adv-x="790" 
d="M50 0l88 500h100l-76 -430h170l76 430h100l-76 -430h170l76 430h100l-88 -500h-640z" />
    <glyph glyph-name="uni0449" unicode="&#x449;" horiz-adv-x="815" 
d="M650 -140l10 140h-610l88 500h100l-76 -430h170l76 430h100l-76 -430h170l76 430h100l-76 -430h65l-37 -210h-80z" />
    <glyph glyph-name="uni044A" unicode="&#x44a;" horiz-adv-x="555" 
d="M190 430h-130l13 70h230l-30 -170h90q174 0 174 -127q0 -18 -3 -38q-30 -165 -229 -165h-190zM317 70q53 0 80.5 23t36.5 72q3 15 3 27q0 35 -21 51.5t-66 16.5h-90l-33 -190h90z" />
    <glyph glyph-name="uni044B" unicode="&#x44b;" horiz-adv-x="690" 
d="M138 500h100l-30 -170h60q174 0 174 -127q0 -18 -3 -38q-30 -165 -229 -165h-160zM490 0l88 500h100l-88 -500h-100zM222 70q53 0 81 23t36 72q3 15 3 27q0 35 -21 51.5t-66 16.5h-60l-33 -190h60z" />
    <glyph glyph-name="uni044C" unicode="&#x44c;" horiz-adv-x="490" 
d="M138 500h100l-30 -170h90q174 0 174 -127q0 -18 -3 -38q-30 -165 -229 -165h-190zM252 70q53 0 80.5 23t36.5 72q3 15 3 27q0 35 -21 51.5t-66 16.5h-90l-33 -190h90z" />
    <glyph glyph-name="uni044D" unicode="&#x44d;" horiz-adv-x="455" 
d="M42 17q-24 12 -40 28l46 60h10q11 -12 28 -23q38 -22 74 -22q58 0 98.5 38.5t58.5 121.5h-180l13 70h180q1 11 1 30q0 120 -94 120q-34 0 -82 -23q-22 -12 -36 -22h-10l-24 60q23 16 49 27q58 28 125 28q81 0 126.5 -47t45.5 -139q0 -27 -7 -74q-23 -128 -92.5 -194
t-173.5 -66q-67 0 -116 27z" />
    <glyph glyph-name="uni044E" unicode="&#x44e;" horiz-adv-x="715" 
d="M309.5 36.5q-44.5 46.5 -44.5 137.5q0 22 3 46h-80l-38 -220h-100l88 500h100l-37 -210h80q25 107 91.5 163.5t151.5 56.5q78 0 122.5 -47t44.5 -138q0 -28 -7 -75q-23 -128 -90 -194t-161 -66q-79 0 -123.5 46.5zM528.5 106q38.5 46 55.5 144q7 39 7 74q0 60 -21.5 88
t-57.5 28q-46 0 -83.5 -46t-54.5 -144q-7 -41 -7 -75q0 -59 21.5 -87t56.5 -28q45 0 83.5 46z" />
    <glyph glyph-name="uni044F" unicode="&#x44f;" 
d="M16 -5q-6 1 -16 5l21 65h5l6 -3q8 -2 13 -2q22 0 35 30l32 65q14 30 43 47q18 10 27 13q-33 6 -56 22q-44 30 -44 82q0 13 3 26q13 74 69.5 114.5t158.5 40.5h185l-88 -500h-100l33 190h-70q-45 0 -69 -50l-31 -65q-21 -44 -47.5 -64.5t-67.5 -20.5q-24 0 -42 5zM355 260
l30 170h-85q-52 0 -79.5 -21t-35.5 -64q-2 -16 -2 -21q0 -32 21 -48t66 -16h85z" />
    <glyph glyph-name="uni0450" unicode="&#x450;" horiz-adv-x="505" 
d="M109 36q-47 46 -47 137q0 38 7 77q21 127 88.5 193.5t161.5 66.5q78 0 122.5 -47t44.5 -138q0 -28 -7 -75l-3 -15l-24 -20h-290q-5 -28 -5 -46q0 -54 28.5 -81.5t79.5 -27.5q35 0 81 22q22 12 37 23h10l24 -60q-20 -15 -50 -28q-56 -27 -124 -27q-87 0 -134 46zM385 285
q5 33 5 53q0 52 -22 77t-61 25q-48 0 -83 -38.5t-49 -116.5h210zM298 550l-63 150h110l18 -150h-65z" />
    <glyph glyph-name="uni0451" unicode="&#x451;" horiz-adv-x="505" 
d="M109 36q-47 46 -47 137q0 38 7 77q21 127 88.5 193.5t161.5 66.5q78 0 122.5 -47t44.5 -138q0 -28 -7 -75l-3 -15l-24 -20h-290q-5 -28 -5 -46q0 -54 28.5 -81.5t79.5 -27.5q35 0 81 22q22 12 37 23h10l24 -60q-20 -15 -50 -28q-56 -27 -124 -27q-87 0 -134 46zM385 285
q5 33 5 53q0 52 -22 77t-61 25q-48 0 -83 -38.5t-49 -116.5h210zM217.5 576.5q-12.5 11.5 -12.5 31.5q0 8 1 12q4 24 22.5 39.5t42.5 15.5q21 0 33.5 -12.5t12.5 -32.5q0 -6 -1 -10q-5 -24 -23 -39.5t-42 -15.5q-21 0 -33.5 11.5zM392.5 576.5q-12.5 11.5 -12.5 31.5
q0 8 1 12q4 24 22.5 39.5t42.5 15.5q21 0 33.5 -12.5t12.5 -32.5q0 -6 -1 -10q-5 -24 -23 -39.5t-42 -15.5q-21 0 -33.5 11.5z" />
    <glyph glyph-name="uni0452" unicode="&#x452;" horiz-adv-x="555" 
d="M229 -133l-22 8l22 65h10q5 -4 11 -5q13 -5 27 -5q35 0 59 23t32 67l46 260q2 14 2 21q0 33 -22 53.5t-58 20.5q-39 0 -81 -30q-16 -11 -35 -30l-55 -315h-100l91 520h-65l13 70h65l14 80l35 30h70l-19 -110h135l-13 -70h-135l-21 -120q19 15 38 25q50 25 101 25
q65 0 104.5 -37t39.5 -97q0 -10 -4 -36l-46 -260q-12 -71 -63.5 -115.5t-119.5 -44.5q-30 0 -56 7z" />
    <glyph glyph-name="uni0453" unicode="&#x453;" horiz-adv-x="415" 
d="M50 0l88 500h330l-13 -70h-230l-75 -430h-100zM273 550l72 150h110l-117 -150h-65z" />
    <glyph glyph-name="uni0454" unicode="&#x454;" horiz-adv-x="455" 
d="M109 36q-47 46 -47 137q0 38 7 77q23 128 90.5 194t164.5 66q65 0 115 -28q24 -13 41 -27l-46 -60h-10q-14 12 -29 22q-18 11 -35 17t-38 6q-51 0 -87.5 -35t-57.5 -115h180l-13 -70h-180q-3 -24 -3 -44q0 -116 104 -116q35 0 81 22q22 12 37 23h10l24 -60
q-20 -15 -50 -28q-56 -27 -124 -27q-87 0 -134 46z" />
    <glyph glyph-name="uni0455" unicode="&#x455;" horiz-adv-x="460" 
d="M60 17q-28 13 -43 28l46 60h10q12 -12 31 -23q40 -22 91 -22q115 0 127 70q1 4 1 11q0 27 -25 42.5t-77 33.5q-44 15 -72 29t-47.5 37t-19.5 58q0 8 2 24q12 67 66 106t149 39q72 0 124 -28q26 -12 42 -27l-46 -60h-10q-12 10 -30 22q-40 23 -82 23q-50 0 -77.5 -18
t-33.5 -47q-1 -4 -1 -11q0 -27 24.5 -42t76.5 -34q46 -17 73.5 -30.5t47 -37t19.5 -58.5q0 -6 -2 -22q-13 -71 -69.5 -110.5t-161.5 -39.5q-81 0 -133 27z" />
    <glyph glyph-name="uni0456" unicode="&#x456;" horiz-adv-x="250" 
d="M165 593q-14 13 -14 34q0 31 21 52t51 21q22 0 36 -13t14 -34q0 -31 -20.5 -52t-50.5 -21q-23 0 -37 13zM50 0l88 500h100l-88 -500h-100z" />
    <glyph glyph-name="uni0457" unicode="&#x457;" horiz-adv-x="250" 
d="M50 0l88 500h100l-88 -500h-100zM105.5 576.5q-12.5 11.5 -12.5 31.5q0 8 1 12q4 24 22.5 39.5t42.5 15.5q21 0 33.5 -12.5t12.5 -32.5q0 -6 -1 -10q-5 -24 -23 -39.5t-42 -15.5q-21 0 -33.5 11.5zM280.5 576.5q-12.5 11.5 -12.5 31.5q0 8 1 12q4 24 22.5 39.5t42.5 15.5
q21 0 33.5 -12.5t12.5 -32.5q0 -6 -1 -10q-5 -24 -23 -39.5t-42 -15.5q-21 0 -33.5 11.5z" />
    <glyph glyph-name="uni0458" unicode="&#x458;" horiz-adv-x="250" 
d="M165 593q-14 13 -14 34q0 31 21 52t51 21q22 0 36 -13t14 -34q0 -31 -20.5 -52t-50.5 -21q-23 0 -37 13zM-120 -185q-14 6 -24 15l36 65h10q7 -9 14 -13q15 -12 37 -12q34 0 57.5 23t31.5 67l96 540h100l-96 -540q-12 -72 -65 -116t-127 -44q-40 0 -70 15z" />
    <glyph glyph-name="uni0459" unicode="&#x459;" horiz-adv-x="760" 
d="M0 -5q-7 1 -15 5l16 65h10l6 -3q8 -2 13 -2q21 0 38 22t30 78l80 340h330l-30 -170h90q174 0 174 -127q0 -18 -3 -38q-30 -165 -229 -165h-190l75 430h-135l-62 -270q-40 -170 -160 -170q-21 0 -38 5zM522 70q53 0 80.5 23t36.5 72q3 15 3 27q0 35 -21 51.5t-66 16.5h-90
l-33 -190h90z" />
    <glyph glyph-name="uni045A" unicode="&#x45a;" horiz-adv-x="770" 
d="M138 500h100l-34 -190h180l34 190h100l-34 -190h90q90 0 133 -31.5t43 -89.5q0 -16 -3 -34q-13 -74 -69 -114.5t-158 -40.5h-190l42 240h-180l-42 -240h-100zM532 70q52 0 79.5 21t35.5 64q2 8 2 23q0 62 -87 62h-90l-30 -170h90z" />
    <glyph glyph-name="uni045B" unicode="&#x45b;" horiz-adv-x="560" 
d="M156 520h-65l13 70h65l14 80l35 30h70l-19 -110h135l-13 -70h-135l-21 -120q19 15 38 25q50 25 101 25q65 0 104.5 -37t39.5 -97q0 -10 -4 -36l-49 -280h-100l49 280q2 14 2 21q0 33 -22 53.5t-58 20.5q-39 0 -81 -30q-16 -11 -35 -30l-55 -315h-100z" />
    <glyph glyph-name="uni045C" unicode="&#x45c;" 
d="M336.5 11.5q-20.5 21.5 -23.5 63.5l-9 95q-5 50 -56 50h-60l-38 -220h-100l88 500h100l-37 -210h50q54 0 73 50l35 85q18 43 45.5 64t69.5 21q25 0 43 -5q13 -4 16 -5l-22 -65h-5l-6 2q-2 0 -6 1.5t-7 1.5q-23 0 -35 -30l-35 -85q-16 -37 -55 -55q-21 -9 -37 -10
q22 -3 37 -13q36 -21 40 -62l8 -95q3 -30 25 -30q4 0 14 2l7 3h5l-1 -65q-9 -4 -18 -5q-20 -5 -44 -5q-41 0 -61.5 21.5zM270 550l72 150h110l-117 -150h-65z" />
    <glyph glyph-name="uni045D" unicode="&#x45d;" horiz-adv-x="550" 
d="M138 500h95l-53 -295l-10 -46l-6 -24h4q3 8 6.5 14t5.5 10q14 26 30 46l233 295h95l-88 -500h-95l53 306l10 46l6 24h-4q-4 -12 -12 -24q-17 -28 -30 -46l-233 -306h-95zM298 550l-63 150h110l18 -150h-65z" />
    <glyph glyph-name="uni045E" unicode="&#x45e;" horiz-adv-x="475" 
d="M2 -195q-14 6 -24 15l36 65h10q7 -9 14 -13q15 -12 37 -12q26 0 49 19.5t38 50.5l33 70h-40l-77 500h100l51 -330q3 -13 5 -51l2 -29h4l12 29l9 23q8 20 12 28l150 330h100l-261 -570q-28 -63 -78 -101.5t-112 -38.5q-40 0 -70 15zM204 576.5q-33 26.5 -33 73.5
q0 14 3 30h90q-2 -18 -2 -23q0 -25 12.5 -36t37.5 -11q31 0 48.5 16.5t23.5 53.5h90q-12 -61 -56 -95.5t-117 -34.5q-64 0 -97 26.5z" />
    <glyph glyph-name="uni045F" unicode="&#x45f;" horiz-adv-x="550" 
d="M185 -140l15 140h-150l88 500h100l-76 -430h200l76 430h100l-88 -500h-150l-35 -140h-80z" />
    <glyph glyph-name="uni0462" unicode="&#x462;" horiz-adv-x="621" 
d="M551.5 398q52.5 -42 52.5 -123q0 -22 -5 -55q-19 -107 -90 -163.5t-194 -56.5h-190l94 530h-150l13 70h149l23 130h100l-23 -130h201l-13 -70h-200l-16 -90h90q106 0 158.5 -42zM503 262q0 108 -123 108h-90l-53 -300h90q145 0 172 150q4 20 4 42z" />
    <glyph glyph-name="uni0463" unicode="&#x463;" horiz-adv-x="520" 
d="M503 204q0 -11 -4 -39q-28 -165 -229 -165h-170l76 430h-85l12 70h85l35 200h100l-35 -200h145l-12 -70h-145l-18 -100h70q175 0 175 -126zM402 194q0 34 -21 50t-65 16h-70l-34 -190h70q53 0 80.5 23t36.5 72q3 17 3 29z" />
    <glyph glyph-name="uni046A" unicode="&#x46a;" horiz-adv-x="822" 
d="M-38 0l21 65h5q9 -5 20 -5q29 0 48 45l63 160q25 61 75.5 94.5t144.5 33.5l-168 307h621l-245 -306q69 0 102.5 -14.5t44.5 -40t15 -74.5l7 -160q2 -45 32 -45q10 0 20 5h5l-1 -65q-28 -10 -62 -10q-46 0 -66.5 25.5t-22.5 74.5l-7 160q-2 34 -24.5 54.5t-60.5 20.5h-55
l-57 -325h-100l57 325h-55q-71 0 -103 -75l-63 -160q-19 -47 -52.5 -73.5t-80.5 -26.5q-35 0 -58 10zM434 375h4l198 255h-333z" />
    <glyph glyph-name="uni046B" unicode="&#x46b;" horiz-adv-x="696" 
d="M-38 0l21 65h5q7 -5 20 -5q22 0 35 30l42 95q14 32 32 49t51.5 25t92.5 10l-117 231h501l-199 -230q76 -2 107.5 -20.5t35.5 -64.5l8 -95q3 -30 25 -30q10 0 22 5h3l-1 -65q-22 -10 -56 -10q-41 0 -60.5 21t-24.5 64l-8 95q-5 50 -56 50h-45l-39 -220h-100l39 220h-45
q-26 0 -45 -13t-29 -37l-42 -95q-19 -42 -46.5 -63.5t-68.5 -21.5q-37 0 -58 10zM349 260h6l137 170h-223z" />
    <glyph glyph-name="uni0472" unicode="&#x472;" horiz-adv-x="600" 
d="M130 46q-51 56 -51 175q0 57 12 129q32 186 113 273t196 87q92 0 142.5 -55.5t50.5 -174.5q0 -56 -12 -130q-32 -186 -112.5 -273t-195.5 -87q-92 0 -143 56zM400.5 128.5q52.5 68.5 80.5 221.5q13 69 13 124q0 86 -30 126t-77 40q-64 0 -116 -68t-80 -222
q-13 -71 -13 -126q0 -86 29.5 -125t77.5 -39q63 0 115.5 68.5zM192 315l12 70h280l-12 -70h-280z" />
    <glyph glyph-name="uni0473" unicode="&#x473;" horiz-adv-x="530" 
d="M459.5 463q46.5 -47 46.5 -139q0 -27 -7 -74q-23 -128 -91.5 -194t-169.5 -66q-84 0 -130 46t-46 137q0 38 7 77q23 129 91 194.5t169 65.5q84 0 130.5 -47zM232 402.5q-37 -37.5 -56 -117.5h228q2 28 2 38q0 60 -24 88.5t-65 28.5q-48 0 -85 -37.5zM334.5 97.5
q37.5 37.5 57.5 117.5h-228q-2 -28 -2 -39q0 -116 88 -116q47 0 84.5 37.5z" />
    <glyph glyph-name="uni0474" unicode="&#x474;" horiz-adv-x="574" 
d="M113 700h100l50 -531q2 -24 2 -39q0 -19 -1 -31h4q8 33 25 70l162 371q40 93 75 131.5t90 38.5q28 0 53 -10l-16 -65h-4q-10 5 -20 5q-19 0 -38 -21t-45 -79l-240 -540h-125z" />
    <glyph glyph-name="uni0475" unicode="&#x475;" horiz-adv-x="480" 
d="M78 500h100l47 -330q3 -15 3 -35q0 -7 -2 -35h4q10 40 24 69l77 171q31 68 52 102.5t46 51t62 16.5q30 0 53 -10l-17 -65h-7q-7 5 -16 5q-27 0 -74 -100l-160 -340h-120z" />
    <glyph glyph-name="uni0490" unicode="&#x490;" horiz-adv-x="490" 
d="M65 0l123 700h300l28 100h80l-30 -170h-290l-111 -630h-100z" />
    <glyph glyph-name="uni0491" unicode="&#x491;" horiz-adv-x="415" 
d="M50 0l88 500h240l26 90h80l-29 -160h-230l-75 -430h-100z" />
    <glyph glyph-name="uni0492" unicode="&#x492;" horiz-adv-x="490" 
d="M566 630h-290l-43 -245h126l-12 -70h-126l-56 -315h-100l55 315h-53l12 70h54l55 315h390z" />
    <glyph glyph-name="uni0493" unicode="&#x493;" horiz-adv-x="415" 
d="M455 430h-230l-25 -145h124l-12 -70h-124l-38 -215h-100l38 215h-56l12 70h56l38 215h330z" />
    <glyph glyph-name="uni0494" unicode="&#x494;" horiz-adv-x="580" 
d="M276 630l-41 -235q54 9 81 12t58 3q85 0 132.5 -42t47.5 -113q0 -12 -4 -40l-27 -155q-13 -72 -64 -116t-120 -44q-36 0 -57 7q-5 2 -11.5 3.5t-13.5 4.5l21 65h10q10 -4 15 -5q23 -5 29 -5q35 0 59.5 23t31.5 67l27 155q2 9 2 27q0 46 -30 72t-85 26q-24 0 -48 -3
t-67 -11l-57 -326h-100l123 700h390l-12 -70h-290z" />
    <glyph glyph-name="uni0495" unicode="&#x495;" horiz-adv-x="500" 
d="M432 296q46 -34 46 -96q0 -15 -3 -30l-26 -150q-13 -72 -64 -116t-120 -44q-37 0 -55 7q-4 2 -10 3.5t-12 4.5l21 65h10q1 -1 12 -5q12 -5 27 -5q35 0 59.5 23t31.5 67l22 130q2 10 2 27q0 40 -23.5 58.5t-64.5 18.5q-43 0 -94 -17l-41 -237h-100l88 500h330l-13 -70
h-230l-21 -118q57 18 110 18q72 0 118 -34z" />
    <glyph glyph-name="uni0496" unicode="&#x496;" horiz-adv-x="860" 
d="M918 700l-22 -65h-5l-6 2q-2 0 -6 1.5t-7 1.5q-31 0 -48 -45l-49 -140q-19 -51 -69 -75q-22 -10 -47 -15q24 -6 42 -18q41 -30 45 -82l7 -160q3 -45 32 -45q4 0 14 2l7 3h5l-1 -65l-26 -150h-80l11 144q-31 9 -47 33.5t-18 62.5l-6 160q-2 35 -21 55t-56 20h-55l-57 -325
h-100l57 325h-55q-71 0 -103 -75l-64 -160q-18 -47 -51.5 -73.5t-80.5 -26.5q-27 0 -44 5q-9 1 -14 5l21 65h5l6 -3q8 -2 13 -2q30 0 48 45l63 160q21 52 74 82q22 12 49 18q-24 5 -42 15q-42 24 -42 75l-1 140q1 23 -7.5 34t-24.5 11q-2 0 -14 -3l-7 -2h-5l2 65l16 5
q18 5 46 5q48 0 72.5 -27t24.5 -73v-140q0 -35 20.5 -55t61.5 -20h45l54 305h100l-54 -305h45q41 0 68.5 20t39.5 55l50 140q18 47 52 73.5t81 26.5q26 0 44 -5z" />
    <glyph glyph-name="uni0497" unicode="&#x497;" horiz-adv-x="740" 
d="M763 500l-22 -65h-5l-6 2q-2 0 -6 1.5t-7 1.5q-23 0 -35 -30l-35 -85q-11 -25 -30 -39.5t-36.5 -20t-25.5 -5.5q6 0 24 -7.5t34.5 -24t18.5 -43.5l8 -95q3 -30 25 -30q4 0 14 2l7 3h5l-1 -65l-35 -140h-75l19 133q-51 13 -56 82l-9 95q-5 50 -56 50h-45l-38 -220h-100
l38 220h-45q-50 0 -74 -50l-41 -95q-19 -42 -46.5 -63.5t-68.5 -21.5q-24 0 -42 5q-6 1 -16 5l21 65h5l6 -3q8 -2 13 -2q23 0 35 30l42 95q12 27 33.5 43t19.5 15.5t50 16.5q-7 0 -22.5 5.5t-30 20t-15.5 39.5l-5 85q-3 30 -25 30q-2 0 -14 -3l-7 -2h-5l2 65l17 5q18 5 44 5
q42 0 62.5 -21t22.5 -64l5 -85q2 -25 15.5 -37.5t41.5 -12.5h35l37 210h100l-37 -210h35q54 0 73 50l35 85q18 43 45.5 64t69.5 21q25 0 43 -5q14 -4 16 -5z" />
    <glyph glyph-name="uni0498" unicode="&#x498;" horiz-adv-x="520" 
d="M438 401q-31 -21 -68 -31q39 -11 64 -33q47 -43 47 -110q0 -22 -4 -42q-14 -75 -66 -124t-142 -65l-25 -146h-80l10 140q-78 3 -128 27q-28 13 -44 28l46 60h10q13 -12 32 -23q46 -22 100 -22q165 0 189 135q3 18 3 33q0 49 -31 75.5t-93 26.5h-90l12 70h90q67 0 110 41
t43 104q0 44 -31 69.5t-90 25.5q-49 0 -99 -23q-24 -11 -39 -22h-10l-24 60q23 16 52 27q65 28 143 28q97 0 149 -41t52 -107q0 -15 -3 -32q-15 -81 -85 -129z" />
    <glyph glyph-name="uni0499" unicode="&#x499;" horiz-adv-x="450" 
d="M367 284q-25 -16 -57 -24q32 -6 54 -22q41 -29 41 -80q0 -64 -43.5 -108t-129.5 -56l-24 -134h-80l9 131q-58 5 -97 26q-28 13 -43 28l46 60h10q12 -12 31 -23q40 -22 91 -22q62 0 92 20t37 60q2 14 2 19q0 61 -88 61h-85l13 70h85q44 0 70.5 20t32.5 55q1 5 1 16
q0 59 -93 59q-40 0 -88 -23q-18 -10 -35 -22h-10l-24 60q21 15 48 27q58 28 131 28q87 0 130.5 -31t43.5 -82q0 -71 -71 -113z" />
    <glyph glyph-name="uni049A" unicode="&#x49a;" horiz-adv-x="585" 
d="M616 708q12 -2 27 -8l-22 -65h-5q-8 5 -19 5q-31 0 -48 -45l-49 -140q-19 -51 -69 -75q-22 -10 -47 -15q24 -6 42 -18q41 -30 45 -82l7 -160q3 -45 32 -45q11 0 21 5h5l-1 -65l-26 -150h-80l11 145q-54 19 -57 95l-6 160q-2 35 -22.5 55t-62.5 20h-70l-57 -325h-100
l123 700h100l-54 -305h60q44 0 74 20t42 55l50 140q16 46 48.5 73t76.5 27q19 0 31 -2z" />
    <glyph glyph-name="uni049B" unicode="&#x49b;" 
d="M533 500l-22 -65h-5l-6 2q-2 0 -6 1.5t-7 1.5q-23 0 -35 -30l-35 -85q-16 -37 -55 -55q-21 -9 -37 -10q22 -3 37 -13q36 -21 40 -62l8 -95q3 -30 25 -30q4 0 14 2l7 3h5l-1 -65l-35 -140h-75l19 133q-51 13 -56 82l-9 95q-5 50 -56 50h-60l-38 -220h-100l88 500h100
l-37 -210h50q54 0 73 50l35 85q18 43 45.5 64t69.5 21q25 0 43 -5q13 -4 16 -5z" />
    <glyph glyph-name="uni049C" unicode="&#x49c;" horiz-adv-x="615" 
d="M673 700l-21 -65h-5l-6 2q-2 0 -6 1.5t-7 1.5q-32 0 -48 -45l-50 -140q-18 -51 -68 -75q-21 -10 -48 -15q24 -6 42 -18q44 -30 46 -82l7 -160q2 -45 32 -45q11 0 20 5h5l-1 -65q-24 -10 -62 -10q-42 0 -65 26.5t-25 73.5l-7 160q-5 62 -59 73l-20 -113h-45l20 115h-80
l-57 -325h-100l123 700h100l-53 -305h79l17 95h45l-16 -91q59 13 80 71l50 140q16 46 48.5 73t76.5 27q32 0 44 -5z" />
    <glyph glyph-name="uni049D" unicode="&#x49d;" horiz-adv-x="530" 
d="M553 500l-21 -65h-5l-6 2q-2 0 -6 1.5t-7 1.5q-22 0 -36 -30l-35 -85q-14 -37 -54 -55q-21 -9 -37 -10q22 -3 37 -13q37 -26 40 -62l8 -95q2 -30 25 -30q4 0 14 2l6 3h5l-1 -65q1 0 -18 -5q-20 -5 -44 -5q-41 0 -60.5 21t-24.5 64l-8 95q-5 45 -46 49l-18 -99h-40l18 100
h-50l-39 -220h-100l88 500h100l-37 -210h50l16 90h40l-16 -88q36 8 54 48l35 85q18 43 45.5 64t69.5 21q25 0 42 -5z" />
    <glyph glyph-name="uni04A0" unicode="&#x4a0;" horiz-adv-x="695" 
d="M725.5 708q12.5 -2 27.5 -8l-22 -65h-5q-8 5 -19 5q-31 0 -48 -45l-49 -140q-19 -51 -69 -75q-22 -10 -47 -15q24 -6 42 -18q41 -30 45 -82l7 -160q3 -45 32 -45q11 0 21 5h5l-1 -65q-26 -10 -62 -10q-42 0 -65 27t-25 73l-6 160q-2 35 -22.5 55t-62.5 20h-70l-57 -325
h-100l111 630h-190l12 70h290l-54 -305h60q44 0 74 20t42 55l50 140q16 46 48.5 73t76.5 27q18 0 30.5 -2z" />
    <glyph glyph-name="uni04A1" unicode="&#x4a1;" horiz-adv-x="594" 
d="M617 500l-22 -65h-5l-6 2q-2 0 -6 1.5t-7 1.5q-23 0 -35 -30l-35 -85q-16 -37 -55 -55q-21 -9 -37 -10q22 -3 37 -13q36 -21 40 -62l8 -95q3 -30 25 -30q4 0 14 2l7 3h5l-1 -65q-9 -4 -18 -5q-20 -5 -44 -5q-41 0 -61.5 21.5t-23.5 63.5l-9 95q-5 50 -56 50h-60l-38 -220
h-100l76 430h-150l12 70h250l-37 -210h50q54 0 73 50l35 85q18 43 45.5 64t69.5 21q25 0 43 -5q13 -4 16 -5z" />
    <glyph glyph-name="uni04A2" unicode="&#x4a2;" horiz-adv-x="630" 
d="M638 700l-111 -630h65l-38 -220h-80l11 150h-70l12 70l44 250h-250l-56 -320h-100l123 700h100l-55 -310h250l55 310h100z" />
    <glyph glyph-name="uni04A3" unicode="&#x4a3;" horiz-adv-x="550" 
d="M538 500l-76 -430h65l-37 -210h-80l10 140h-70l12 70l26 150h-200l-38 -220h-100l88 500h100l-37 -210h200l37 210h100z" />
    <glyph glyph-name="uni04A4" unicode="&#x4a4;" horiz-adv-x="800" 
d="M888 700l-12 -70h-250l-111 -630h-100l56 320h-250l-56 -320h-100l123 700h100l-55 -310h250l55 310h350z" />
    <glyph glyph-name="uni04A5" unicode="&#x4a5;" horiz-adv-x="664" 
d="M717 500l-12 -70h-179l-76 -430h-100l38 220h-200l-38 -220h-100l88 500h100l-37 -210h200l37 210h279z" />
    <glyph glyph-name="uni04AA" unicode="&#x4aa;" horiz-adv-x="515" 
d="M570 655l-46 -60h-10q-12 10 -30 22q-40 23 -82 23q-158 0 -211 -290q-13 -68 -13 -122q0 -168 132 -168q44 0 90 22q26 14 38 23h10l24 -60q-21 -15 -51 -28q-42 -19 -95 -25l-25 -142h-80l11 145q-153 27 -153 227q0 56 12 128q32 186 113.5 273t200.5 87q72 0 124 -28
q25 -13 41 -27z" />
    <glyph glyph-name="uni04AB" unicode="&#x4ab;" horiz-adv-x="455" 
d="M480 455l-46 -60h-10q-14 12 -29 22q-18 11 -35 17t-38 6q-56 0 -96 -45t-57 -145q-7 -39 -7 -73q0 -62 26 -89.5t77 -27.5q35 0 81 22q22 12 37 23h10l24 -60q-20 -15 -50 -28q-31 -15 -75 -23l-24 -134h-80l10 134q-66 11 -101 56t-35 123q0 38 7 77q23 128 90.5 194
t164.5 66q65 0 115 -28q24 -13 41 -27z" />
    <glyph glyph-name="uni04AE" unicode="&#x4ae;" horiz-adv-x="530" 
d="M230 230l-132 470h105l86 -305q6 -25 7 -39q1 -7 1 -21h4l8 21q7 17 20 39l194 305h105l-298 -470l-40 -230h-100z" />
    <glyph glyph-name="uni04AF" unicode="&#x4af;" horiz-adv-x="470" 
d="M160 0l-82 500h100l45 -328q1 -9 1 -23t1 -23l-1 -24h4l7 24q9 26 18 46l165 328h100l-258 -500l-30 -170l-35 -30h-70z" />
    <glyph glyph-name="uni04B0" unicode="&#x4b0;" horiz-adv-x="530" 
d="M337 241h84l-12 -70h-89l-30 -171h-100l30 171h-91l12 70h86l-129 459h105l86 -305q6 -25 7 -39q1 -7 1 -21h4l8 21q7 17 20 39l194 305h105z" />
    <glyph glyph-name="uni04B1" unicode="&#x4b1;" horiz-adv-x="470" 
d="M278 35h78l-12 -70h-90l-24 -135l-35 -30h-70l29 165h-90l12 70h78l-76 465h100l45 -328q1 -9 1 -23t1 -23l-1 -24h4l7 24q9 26 18 46l165 328h100z" />
    <glyph glyph-name="uni04B6" unicode="&#x4b6;" horiz-adv-x="600" 
d="M497 70h65l-38 -220h-80l11 150h-70l12 70l36 205q-12 -3 -22.5 -4.5t-19.5 -3.5q-47 -7 -101 -7q-85 0 -132 41.5t-47 112.5q0 22 4 41l43 245h100l-43 -245q-2 -9 -2 -27q0 -46 30 -72t85 -26q46 0 83 7l34 8l63 355h100z" />
    <glyph glyph-name="uni04B7" unicode="&#x4b7;" horiz-adv-x="520" 
d="M432 70h65l-37 -210h-80l10 140h-70l12 70l20 115l-35 -8q-37 -7 -83 -7q-69 0 -108.5 37t-39.5 97q0 15 3 31l29 165h100l-29 -165q-2 -14 -2 -20q0 -34 23 -54.5t62 -20.5q35 0 65 7q28 9 27 8l44 245h100z" />
    <glyph glyph-name="uni04B8" unicode="&#x4b8;" horiz-adv-x="600" 
d="M608 700l-123 -700h-100l48 275q-12 -3 -22.5 -4.5t-19.5 -3.5q-30 -5 -71 -6l-18 -106h-45l18 105q-78 4 -121 45t-43 109q0 22 4 41l43 245h100l-43 -245q-2 -9 -2 -27q0 -36 19.5 -60.5t55.5 -33.5l18 101h45l-18 -105q43 0 78 7l34 8l63 355h100z" />
    <glyph glyph-name="uni04B9" unicode="&#x4b9;" horiz-adv-x="520" 
d="M508 500l-88 -500h-100l32 185l-35 -8q-20 -4 -41 -5l-16 -91h-40l16 89h-2q-69 0 -108.5 37t-39.5 97q0 15 3 31l29 165h100l-29 -165q-2 -14 -2 -20q0 -28 16.5 -47.5t45.5 -25.5l17 99h40l-18 -101q24 1 49 7q28 9 27 8l44 245h100z" />
    <glyph glyph-name="uni04BA" unicode="&#x4ba;" horiz-adv-x="600" 
d="M202 425q12 3 22.5 4.5t19.5 3.5q47 7 101 7q85 0 132 -41.5t47 -112.5q0 -22 -4 -41l-43 -245h-100l43 245q2 9 2 27q0 46 -30 72t-85 26q-46 0 -83 -7l-34 -8l-63 -355h-100l123 700h100z" />
    <glyph glyph-name="uni04BB" unicode="&#x4bb;" horiz-adv-x="545" 
d="M168 670l35 30h70l-42 -240q20 17 37 25q50 25 101 25q65 0 104.5 -37t39.5 -97q0 -10 -4 -36l-59 -340h-100l59 340q2 14 2 21q0 33 -22 53.5t-58 20.5q-38 0 -80 -30q-20 -15 -35 -30l-66 -375h-100z" />
    <glyph glyph-name="uni04C0" unicode="&#x4c0;" horiz-adv-x="280" 
d="M65 0l123 700h100l-123 -700h-100z" />
    <glyph glyph-name="uni04C1" unicode="&#x4c1;" horiz-adv-x="860" 
d="M14 -5q-9 1 -14 5l21 65h5l6 -3q8 -2 13 -2q30 0 48 45l63 160q21 52 74 82q22 12 49 18q-24 5 -42 15q-42 24 -42 75l-1 140q1 23 -7.5 34t-24.5 11q-2 0 -14 -3l-7 -2h-5l2 65l16 5q18 5 46 5q48 0 72.5 -27t24.5 -73v-140q0 -35 20.5 -55t61.5 -20h45l54 305h100
l-54 -305h45q41 0 68.5 20t39.5 55l50 140q18 47 52 73.5t81 26.5q26 0 44 -5l14 -5l-22 -65h-5l-6 2q-2 0 -6 1.5t-7 1.5q-31 0 -48 -45l-49 -140q-19 -51 -69 -75q-22 -10 -47 -15q24 -6 42 -18q41 -30 45 -82l7 -160q3 -45 32 -45q4 0 14 2l7 3h5l-1 -65q-10 -4 -16 -5
q-20 -5 -46 -5q-47 0 -71.5 26.5t-26.5 73.5l-6 160q-2 35 -21 55t-56 20h-55l-57 -325h-100l57 325h-55q-71 0 -103 -75l-64 -160q-18 -47 -51.5 -73.5t-80.5 -26.5q-27 0 -44 5zM431 776.5q-33 26.5 -33 73.5q0 14 3 30h90q-2 -9 -2 -25q0 -24 12 -34.5t37 -10.5
q31 0 48.5 16.5t24.5 53.5h90q-12 -61 -56 -95.5t-117 -34.5q-64 0 -97 26.5z" />
    <glyph glyph-name="uni04C2" unicode="&#x4c2;" horiz-adv-x="740" 
d="M16 -5q-6 1 -16 5l21 65h5l6 -3q8 -2 13 -2q23 0 35 30l42 95q12 27 33.5 43t19.5 15.5t50 16.5q-7 0 -22.5 5.5t-30 20t-15.5 39.5l-5 85q-3 30 -25 30q-2 0 -14 -3l-7 -2h-5l2 65l17 5q18 5 44 5q42 0 62.5 -21t22.5 -64l5 -85q2 -25 15.5 -37.5t41.5 -12.5h35l37 210
h100l-37 -210h35q54 0 73 50l35 85q18 43 45.5 64t69.5 21q25 0 43 -5q14 -4 16 -5l-22 -65h-5l-6 2q-2 0 -6 1.5t-7 1.5q-23 0 -35 -30l-35 -85q-11 -25 -30 -39.5t-36.5 -20t-25.5 -5.5q6 0 24 -7.5t34.5 -24t18.5 -43.5l8 -95q3 -30 25 -30q4 0 14 2l7 3h5l-1 -65
q-9 -4 -18 -5q-20 -5 -44 -5q-41 0 -61.5 21.5t-23.5 63.5l-9 95q-5 50 -56 50h-45l-38 -220h-100l38 220h-45q-50 0 -74 -50l-41 -95q-19 -42 -46.5 -63.5t-68.5 -21.5q-24 0 -42 5zM332 576.5q-33 26.5 -33 73.5q0 14 3 30h90q-2 -18 -2 -23q0 -25 12.5 -36t37.5 -11
q31 0 48.5 16.5t23.5 53.5h90q-12 -61 -56 -95.5t-117 -34.5q-64 0 -97 26.5z" />
    <glyph glyph-name="uni04CB" unicode="&#x4cb;" horiz-adv-x="600" 
d="M608 700l-123 -700h-70l-41 -150h-80l38 220h65l36 205q-12 -3 -22.5 -4.5t-19.5 -3.5q-47 -7 -101 -7q-85 0 -132 41.5t-47 112.5q0 22 4 41l43 245h100l-43 -245q-2 -9 -2 -27q0 -46 30 -72t85 -26q46 0 83 7l34 8l63 355h100z" />
    <glyph glyph-name="uni04CC" unicode="&#x4cc;" horiz-adv-x="520" 
d="M432 70h65l-37 -210h-80l10 140h-70l12 70l20 115l-35 -8q-37 -7 -83 -7q-69 0 -108.5 37t-39.5 97q0 15 3 31l29 165h100l-29 -165q-2 -14 -2 -20q0 -34 23 -54.5t62 -20.5q35 0 65 7q28 9 27 8l44 245h100z" />
    <glyph glyph-name="uni04CF" unicode="&#x4cf;" horiz-adv-x="250" 
d="M50 0l118 670l35 30h70l-123 -700h-100z" />
    <glyph glyph-name="uni04D0" unicode="&#x4d0;" horiz-adv-x="570" 
d="M-10 0l328 700h130l82 -700h-100l-24 180h-230l-86 -180h-100zM399 250l-32 275q-2 12 -2 27.5v19.5q0 16 1 23h-4q-4 -16 -7 -24q-9 -26 -18 -46l-128 -275h190zM276 776.5q-33 26.5 -33 73.5q0 14 3 30h90q-2 -9 -2 -25q0 -24 12 -34.5t37 -10.5q31 0 48.5 16.5
t24.5 53.5h90q-12 -61 -56 -95.5t-117 -34.5q-64 0 -97 26.5z" />
    <glyph glyph-name="uni04D1" unicode="&#x4d1;" 
d="M78.5 21.5q-36.5 31.5 -36.5 88.5q0 17 3 35q13 71 71.5 110.5t170.5 39.5h80l4 25q4 26 4 35q0 42 -23 63.5t-65 21.5q-34 0 -82 -23q-22 -12 -36 -22h-10l-24 60q24 16 49 27q58 28 125 28q76 0 120.5 -42.5t44.5 -110.5q0 -17 -3 -37l-56 -320h-70v60h-5
q-17 -20 -41 -35q-50 -35 -116 -35q-68 0 -104.5 31.5zM260.5 73q18.5 8 40.5 22q18 13 36 30l17 100h-80q-65 0 -98 -28t-33 -71q0 -30 19.5 -45.5t58.5 -15.5q21 0 39.5 8zM221 576.5q-33 26.5 -33 73.5q0 14 3 30h90q-2 -18 -2 -23q0 -25 12.5 -36t37.5 -11
q31 0 48.5 16.5t23.5 53.5h90q-12 -61 -56 -95.5t-117 -34.5q-64 0 -97 26.5z" />
    <glyph glyph-name="uni04D2" unicode="&#x4d2;" horiz-adv-x="570" 
d="M-10 0l328 700h130l82 -700h-100l-24 180h-230l-86 -180h-100zM399 250l-32 275q-2 12 -2 27.5v19.5q0 16 1 23h-4q-4 -16 -7 -24q-9 -26 -18 -46l-128 -275h190zM264.5 776.5q-12.5 11.5 -12.5 31.5q0 8 1 12q4 24 22.5 39.5t42.5 15.5q21 0 33.5 -12.5t12.5 -32.5
q0 -6 -1 -10q-5 -24 -23 -39.5t-42 -15.5q-21 0 -33.5 11.5zM439.5 776.5q-12.5 11.5 -12.5 31.5q0 8 1 12q4 24 22.5 39.5t42.5 15.5q21 0 33.5 -12.5t12.5 -32.5q0 -6 -1 -10q-5 -24 -23 -39.5t-42 -15.5q-21 0 -33.5 11.5z" />
    <glyph glyph-name="uni04D3" unicode="&#x4d3;" 
d="M78.5 21.5q-36.5 31.5 -36.5 88.5q0 17 3 35q13 71 71.5 110.5t170.5 39.5h80l4 25q4 26 4 35q0 42 -23 63.5t-65 21.5q-34 0 -82 -23q-22 -12 -36 -22h-10l-24 60q24 16 49 27q58 28 125 28q76 0 120.5 -42.5t44.5 -110.5q0 -17 -3 -37l-56 -320h-70v60h-5
q-17 -20 -41 -35q-50 -35 -116 -35q-68 0 -104.5 31.5zM260.5 73q18.5 8 40.5 22q18 13 36 30l17 100h-80q-65 0 -98 -28t-33 -71q0 -30 19.5 -45.5t58.5 -15.5q21 0 39.5 8zM209.5 576.5q-12.5 11.5 -12.5 31.5q0 8 1 12q4 24 22.5 39.5t42.5 15.5q21 0 33.5 -12.5
t12.5 -32.5q0 -6 -1 -10q-5 -24 -23 -39.5t-42 -15.5q-21 0 -33.5 11.5zM384.5 576.5q-12.5 11.5 -12.5 31.5q0 8 1 12q4 24 22.5 39.5t42.5 15.5q21 0 33.5 -12.5t12.5 -32.5q0 -6 -1 -10q-5 -24 -23 -39.5t-42 -15.5q-21 0 -33.5 11.5z" />
    <glyph glyph-name="uni04D4" unicode="&#x4d4;" horiz-adv-x="815" 
d="M-45 0l418 700h510l-12 -70h-290l-41 -230h230l-12 -70h-230l-46 -260h290l-12 -70h-390l35 200h-230l-120 -200h-100zM217 270h200l64 360h-50z" />
    <glyph glyph-name="uni04D5" unicode="&#x4d5;" horiz-adv-x="785" 
d="M78.5 21.5q-36.5 31.5 -36.5 88.5q0 17 3 35q13 71 71.5 110.5t170.5 39.5h80l4 25q4 26 4 35q0 42 -23 63.5t-65 21.5q-34 0 -82 -23q-22 -12 -36 -22h-10l-24 60q24 16 49 27q58 28 125 28q55 0 89.5 -20t47.5 -55q34 35 74 55t84 20q75 0 118.5 -47t43.5 -138
q0 -37 -7 -75l-3 -15l-24 -20h-280q-5 -28 -5 -46q0 -54 26.5 -81.5t71.5 -27.5q35 0 81 22q22 12 37 23h10l24 -60q-20 -15 -50 -28q-56 -27 -124 -27q-51 0 -90 20t-59 60q-23 -21 -54 -40q-70 -40 -137 -40q-68 0 -104.5 31.5zM665 285q5 33 5 54q0 51 -21 76t-57 25
q-44 0 -78.5 -38.5t-48.5 -116.5h200zM260.5 73q18.5 8 40.5 22q18 13 36 30l17 100h-80q-65 0 -98 -28t-33 -71q0 -30 19.5 -45.5t58.5 -15.5q21 0 39.5 8z" />
    <glyph glyph-name="uni04D6" unicode="&#x4d6;" 
d="M65 0l123 700h390l-12 -70h-290l-41 -230h230l-12 -70h-230l-46 -260h290l-12 -70h-390zM296 776.5q-33 26.5 -33 73.5q0 14 3 30h90q-2 -9 -2 -25q0 -24 12 -34.5t37 -10.5q31 0 48.5 16.5t24.5 53.5h90q-12 -61 -56 -95.5t-117 -34.5q-64 0 -97 26.5z" />
    <glyph glyph-name="uni04D7" unicode="&#x4d7;" horiz-adv-x="505" 
d="M109 36q-47 46 -47 137q0 38 7 77q21 127 88.5 193.5t161.5 66.5q78 0 122.5 -47t44.5 -138q0 -28 -7 -75l-3 -15l-24 -20h-290q-5 -28 -5 -46q0 -54 28.5 -81.5t79.5 -27.5q35 0 81 22q22 12 37 23h10l24 -60q-20 -15 -50 -28q-56 -27 -124 -27q-87 0 -134 46zM385 285
q5 33 5 53q0 52 -22 77t-61 25q-48 0 -83 -38.5t-49 -116.5h210zM229 576.5q-33 26.5 -33 73.5q0 14 3 30h90q-2 -18 -2 -23q0 -25 12.5 -36t37.5 -11q31 0 48.5 16.5t23.5 53.5h90q-12 -61 -56 -95.5t-117 -34.5q-64 0 -97 26.5z" />
    <glyph glyph-name="uni04D8" unicode="&#x4d8;" horiz-adv-x="592" 
d="M536.5 657q48.5 -53 48.5 -172q0 -68 -14 -145q-29 -173 -107.5 -261.5t-191.5 -88.5q-93 0 -144.5 57.5t-51.5 171.5q0 57 13 122l4 21l33 28h353q9 59 9 103q0 74 -26 110.5t-80 36.5q-49 0 -90 -13.5t-95 -49.5h-14l-21 46q57 45 113 66t117 21q96 0 144.5 -53z
M466 320h-283q-10 -57 -10 -106q0 -153 112 -153q130 0 181 259z" />
    <glyph glyph-name="uni04D9" unicode="&#x4d9;" horiz-adv-x="505" 
d="M396 464q47 -46 47 -137q0 -38 -7 -77q-21 -127 -88.5 -193.5t-161.5 -66.5q-78 0 -122.5 47t-44.5 138q0 28 7 75l3 15l24 20h290q5 28 5 46q0 54 -28.5 81.5t-79.5 27.5q-35 0 -81 -22q-22 -12 -37 -23h-10l-24 60q20 15 50 28q56 27 124 27q87 0 134 -46zM120 215
q-5 -33 -5 -53q0 -52 22 -77t61 -25q48 0 83 38.5t49 116.5h-210z" />
    <glyph glyph-name="uni04DC" unicode="&#x4dc;" horiz-adv-x="860" 
d="M14 -5q-9 1 -14 5l21 65h5l6 -3q8 -2 13 -2q30 0 48 45l63 160q21 52 74 82q22 12 49 18q-24 5 -42 15q-42 24 -42 75l-1 140q1 23 -7.5 34t-24.5 11q-2 0 -14 -3l-7 -2h-5l2 65l16 5q18 5 46 5q48 0 72.5 -27t24.5 -73v-140q0 -35 20.5 -55t61.5 -20h45l54 305h100
l-54 -305h45q41 0 68.5 20t39.5 55l50 140q18 47 52 73.5t81 26.5q26 0 44 -5l14 -5l-22 -65h-5l-6 2q-2 0 -6 1.5t-7 1.5q-31 0 -48 -45l-49 -140q-19 -51 -69 -75q-22 -10 -47 -15q24 -6 42 -18q41 -30 45 -82l7 -160q3 -45 32 -45q4 0 14 2l7 3h5l-1 -65q-10 -4 -16 -5
q-20 -5 -46 -5q-47 0 -71.5 26.5t-26.5 73.5l-6 160q-2 35 -21 55t-56 20h-55l-57 -325h-100l57 325h-55q-71 0 -103 -75l-64 -160q-18 -47 -51.5 -73.5t-80.5 -26.5q-27 0 -44 5zM419.5 776.5q-12.5 11.5 -12.5 31.5q0 8 1 12q4 24 22.5 39.5t42.5 15.5q21 0 33.5 -12.5
t12.5 -32.5q0 -6 -1 -10q-5 -24 -23 -39.5t-42 -15.5q-21 0 -33.5 11.5zM594.5 776.5q-12.5 11.5 -12.5 31.5q0 8 1 12q4 24 22.5 39.5t42.5 15.5q21 0 33.5 -12.5t12.5 -32.5q0 -6 -1 -10q-5 -24 -23 -39.5t-42 -15.5q-21 0 -33.5 11.5z" />
    <glyph glyph-name="uni04DD" unicode="&#x4dd;" horiz-adv-x="740" 
d="M16 -5q-6 1 -16 5l21 65h5l6 -3q8 -2 13 -2q23 0 35 30l42 95q12 27 33.5 43t19.5 15.5t50 16.5q-7 0 -22.5 5.5t-30 20t-15.5 39.5l-5 85q-3 30 -25 30q-2 0 -14 -3l-7 -2h-5l2 65l17 5q18 5 44 5q42 0 62.5 -21t22.5 -64l5 -85q2 -25 15.5 -37.5t41.5 -12.5h35l37 210
h100l-37 -210h35q54 0 73 50l35 85q18 43 45.5 64t69.5 21q25 0 43 -5q14 -4 16 -5l-22 -65h-5l-6 2q-2 0 -6 1.5t-7 1.5q-23 0 -35 -30l-35 -85q-11 -25 -30 -39.5t-36.5 -20t-25.5 -5.5q6 0 24 -7.5t34.5 -24t18.5 -43.5l8 -95q3 -30 25 -30q4 0 14 2l7 3h5l-1 -65
q-9 -4 -18 -5q-20 -5 -44 -5q-41 0 -61.5 21.5t-23.5 63.5l-9 95q-5 50 -56 50h-45l-38 -220h-100l38 220h-45q-50 0 -74 -50l-41 -95q-19 -42 -46.5 -63.5t-68.5 -21.5q-24 0 -42 5zM320.5 576.5q-12.5 11.5 -12.5 31.5q0 8 1 12q4 24 22.5 39.5t42.5 15.5q21 0 33.5 -12.5
t12.5 -32.5q0 -6 -1 -10q-5 -24 -23 -39.5t-42 -15.5q-21 0 -33.5 11.5zM495.5 576.5q-12.5 11.5 -12.5 31.5q0 8 1 12q4 24 22.5 39.5t42.5 15.5q21 0 33.5 -12.5t12.5 -32.5q0 -6 -1 -10q-5 -24 -23 -39.5t-42 -15.5q-21 0 -33.5 11.5z" />
    <glyph glyph-name="uni04DE" unicode="&#x4de;" horiz-adv-x="520" 
d="M46 17q-28 13 -44 28l46 60h10q13 -12 32 -23q46 -22 100 -22q165 0 189 135q3 18 3 33q0 49 -31 75.5t-93 26.5h-90l12 70h90q67 0 110 41t43 104q0 44 -31 69.5t-90 25.5q-49 0 -99 -23q-24 -11 -39 -22h-10l-24 60q23 16 52 27q65 28 143 28q97 0 149 -41t52 -107
q0 -15 -3 -32q-15 -81 -85 -129q-31 -21 -68 -31q39 -11 64 -33q47 -43 47 -110q0 -22 -4 -42q-16 -90 -88.5 -142.5t-200.5 -52.5q-86 0 -142 27zM209.5 776.5q-12.5 11.5 -12.5 31.5q0 8 1 12q4 24 22.5 39.5t42.5 15.5q21 0 33.5 -12.5t12.5 -32.5q0 -6 -1 -10
q-5 -24 -23 -39.5t-42 -15.5q-21 0 -33.5 11.5zM384.5 776.5q-12.5 11.5 -12.5 31.5q0 8 1 12q4 24 22.5 39.5t42.5 15.5q21 0 33.5 -12.5t12.5 -32.5q0 -6 -1 -10q-5 -24 -23 -39.5t-42 -15.5q-21 0 -33.5 11.5z" />
    <glyph glyph-name="uni04DF" unicode="&#x4df;" horiz-adv-x="450" 
d="M40 17q-28 13 -43 28l46 60h10q12 -12 31 -23q40 -22 91 -22q62 0 92 20t37 60q2 14 2 19q0 61 -88 61h-85l13 70h85q44 0 70.5 20t32.5 55q1 5 1 16q0 59 -93 59q-40 0 -88 -23q-18 -10 -35 -22h-10l-24 60q21 15 48 27q58 28 131 28q87 0 130.5 -31t43.5 -82
q0 -71 -71 -113q-25 -16 -57 -24q32 -6 54 -22q41 -29 41 -80q0 -75 -58.5 -121.5t-173.5 -46.5q-81 0 -133 27zM149.5 576.5q-12.5 11.5 -12.5 31.5q0 8 1 12q4 24 22.5 39.5t42.5 15.5q21 0 33.5 -12.5t12.5 -32.5q0 -6 -1 -10q-5 -24 -23 -39.5t-42 -15.5
q-21 0 -33.5 11.5zM324.5 576.5q-12.5 11.5 -12.5 31.5q0 8 1 12q4 24 22.5 39.5t42.5 15.5q21 0 33.5 -12.5t12.5 -32.5q0 -6 -1 -10q-5 -24 -23 -39.5t-42 -15.5q-21 0 -33.5 11.5z" />
    <glyph glyph-name="uni04E2" unicode="&#x4e2;" horiz-adv-x="630" 
d="M188 700h100l-83 -465l-5 -23q-5 -34 -14 -62h4q27 58 45 85l313 465h100l-123 -700h-100l82 465q7 41 19 85h-4q-30 -63 -45 -85l-312 -465h-100zM304 790l12 70h270l-12 -70h-270z" />
    <glyph glyph-name="uni04E3" unicode="&#x4e3;" horiz-adv-x="550" 
d="M138 500h95l-53 -295l-10 -46l-6 -24h4q3 8 6.5 14t5.5 10q14 26 30 46l233 295h95l-88 -500h-95l53 306l10 46l6 24h-4q-4 -12 -12 -24q-17 -28 -30 -46l-233 -306h-95zM208 590l12 70h270l-12 -70h-270z" />
    <glyph glyph-name="uni04E4" unicode="&#x4e4;" horiz-adv-x="630" 
d="M188 700h100l-83 -465l-5 -23q-5 -34 -14 -62h4q27 58 45 85l313 465h100l-123 -700h-100l82 465q7 41 19 85h-4q-30 -63 -45 -85l-312 -465h-100zM313.5 776.5q-12.5 11.5 -12.5 31.5q0 8 1 12q4 24 22.5 39.5t42.5 15.5q21 0 33.5 -12.5t12.5 -32.5q0 -6 -1 -10
q-5 -24 -23 -39.5t-42 -15.5q-21 0 -33.5 11.5zM488.5 776.5q-12.5 11.5 -12.5 31.5q0 8 1 12q4 24 22.5 39.5t42.5 15.5q21 0 33.5 -12.5t12.5 -32.5q0 -6 -1 -10q-5 -24 -23 -39.5t-42 -15.5q-21 0 -33.5 11.5z" />
    <glyph glyph-name="uni04E5" unicode="&#x4e5;" horiz-adv-x="550" 
d="M138 500h95l-53 -295l-10 -46l-6 -24h4q3 8 6.5 14t5.5 10q14 26 30 46l233 295h95l-88 -500h-95l53 306l10 46l6 24h-4q-4 -12 -12 -24q-17 -28 -30 -46l-233 -306h-95zM217.5 576.5q-12.5 11.5 -12.5 31.5q0 8 1 12q4 24 22.5 39.5t42.5 15.5q21 0 33.5 -12.5
t12.5 -32.5q0 -6 -1 -10q-5 -24 -23 -39.5t-42 -15.5q-21 0 -33.5 11.5zM392.5 576.5q-12.5 11.5 -12.5 31.5q0 8 1 12q4 24 22.5 39.5t42.5 15.5q21 0 33.5 -12.5t12.5 -32.5q0 -6 -1 -10q-5 -24 -23 -39.5t-42 -15.5q-21 0 -33.5 11.5z" />
    <glyph glyph-name="uni04E6" unicode="&#x4e6;" horiz-adv-x="600" 
d="M130 46q-51 56 -51 175q0 57 12 129q32 186 113 273t196 87q92 0 142.5 -55.5t50.5 -174.5q0 -56 -12 -130q-32 -186 -112.5 -273t-195.5 -87q-92 0 -143 56zM400.5 128.5q52.5 68.5 80.5 221.5q13 69 13 124q0 86 -30 126t-77 40q-64 0 -116 -68t-80 -222
q-13 -71 -13 -126q0 -86 29.5 -125t77.5 -39q63 0 115.5 68.5zM289.5 776.5q-12.5 11.5 -12.5 31.5q0 8 1 12q4 24 22.5 39.5t42.5 15.5q21 0 33.5 -12.5t12.5 -32.5q0 -6 -1 -10q-5 -24 -23 -39.5t-42 -15.5q-21 0 -33.5 11.5zM464.5 776.5q-12.5 11.5 -12.5 31.5q0 8 1 12
q4 24 22.5 39.5t42.5 15.5q21 0 33.5 -12.5t12.5 -32.5q0 -6 -1 -10q-5 -24 -23 -39.5t-42 -15.5q-21 0 -33.5 11.5z" />
    <glyph glyph-name="uni04E7" unicode="&#x4e7;" horiz-adv-x="530" 
d="M108 36q-46 46 -46 137q0 38 7 77q23 129 91 194.5t169 65.5q84 0 130.5 -47t46.5 -139q0 -27 -7 -74q-23 -128 -91.5 -194t-169.5 -66q-84 0 -130 46zM342 105.5q40 45.5 57 144.5q7 39 7 73q0 61 -24 89t-65 28q-53 0 -92 -45.5t-56 -144.5q-7 -39 -7 -74
q0 -116 88 -116q52 0 92 45.5zM218.5 576.5q-12.5 11.5 -12.5 31.5q0 8 1 12q4 24 22.5 39.5t42.5 15.5q21 0 33.5 -12.5t12.5 -32.5q0 -6 -1 -10q-5 -24 -23 -39.5t-42 -15.5q-21 0 -33.5 11.5zM393.5 576.5q-12.5 11.5 -12.5 31.5q0 8 1 12q4 24 22.5 39.5t42.5 15.5
q21 0 33.5 -12.5t12.5 -32.5q0 -6 -1 -10q-5 -24 -23 -39.5t-42 -15.5q-21 0 -33.5 11.5z" />
    <glyph glyph-name="uni04E8" unicode="&#x4e8;" horiz-adv-x="600" 
d="M130 46q-51 56 -51 175q0 57 12 129q32 186 113 273t196 87q92 0 142.5 -55.5t50.5 -174.5q0 -56 -12 -130q-32 -186 -112.5 -273t-195.5 -87q-92 0 -143 56zM400.5 128.5q52.5 68.5 80.5 221.5q13 69 13 124q0 86 -30 126t-77 40q-64 0 -116 -68t-80 -222
q-13 -71 -13 -126q0 -86 29.5 -125t77.5 -39q63 0 115.5 68.5zM192 315l12 70h280l-12 -70h-280z" />
    <glyph glyph-name="uni04E9" unicode="&#x4e9;" horiz-adv-x="530" 
d="M459.5 463q46.5 -47 46.5 -139q0 -27 -7 -74q-23 -128 -91.5 -194t-169.5 -66q-84 0 -130 46t-46 137q0 38 7 77q23 129 91 194.5t169 65.5q84 0 130.5 -47zM232 402.5q-37 -37.5 -56 -117.5h228q2 28 2 38q0 60 -24 88.5t-65 28.5q-48 0 -85 -37.5zM334.5 97.5
q37.5 37.5 57.5 117.5h-228q-2 -28 -2 -39q0 -116 88 -116q47 0 84.5 37.5z" />
    <glyph glyph-name="uni04EE" unicode="&#x4ee;" horiz-adv-x="536" 
d="M64 0q-16 6 -26 15l37 65h10q7 -9 14 -13q15 -12 41 -12q29 0 55.5 19.5t42.5 50.5l30 60h-45l-115 515h105l82 -365q4 -18 6 -47l2 -28h4l12 28l8 19l13 28l184 365h100l-286 -575q-29 -59 -84 -99.5t-116 -40.5q-42 0 -74 15zM238 790l12 70h270l-12 -70h-270z" />
    <glyph glyph-name="uni04EF" unicode="&#x4ef;" horiz-adv-x="475" 
d="M2 -195q-14 6 -24 15l36 65h10q7 -9 14 -13q15 -12 37 -12q26 0 49 19.5t38 50.5l33 70h-40l-77 500h100l51 -330q3 -13 5 -51l2 -29h4l12 29l9 23q8 20 12 28l150 330h100l-261 -570q-28 -63 -78 -101.5t-112 -38.5q-40 0 -70 15zM183 590l12 70h270l-12 -70h-270z" />
    <glyph glyph-name="uni04F0" unicode="&#x4f0;" horiz-adv-x="536" 
d="M64 0q-16 6 -26 15l37 65h10q7 -9 14 -13q15 -12 41 -12q29 0 55.5 19.5t42.5 50.5l30 60h-45l-115 515h105l82 -365q4 -18 6 -47l2 -28h4l12 28l8 19l13 28l184 365h100l-286 -575q-29 -59 -84 -99.5t-116 -40.5q-42 0 -74 15zM247.5 776.5q-12.5 11.5 -12.5 31.5
q0 8 1 12q4 24 22.5 39.5t42.5 15.5q21 0 33.5 -12.5t12.5 -32.5q0 -6 -1 -10q-5 -24 -23 -39.5t-42 -15.5q-21 0 -33.5 11.5zM422.5 776.5q-12.5 11.5 -12.5 31.5q0 8 1 12q4 24 22.5 39.5t42.5 15.5q21 0 33.5 -12.5t12.5 -32.5q0 -6 -1 -10q-5 -24 -23 -39.5t-42 -15.5
q-21 0 -33.5 11.5z" />
    <glyph glyph-name="uni04F1" unicode="&#x4f1;" horiz-adv-x="475" 
d="M2 -195q-14 6 -24 15l36 65h10q7 -9 14 -13q15 -12 37 -12q26 0 49 19.5t38 50.5l33 70h-40l-77 500h100l51 -330q3 -13 5 -51l2 -29h4l12 29l9 23q8 20 12 28l150 330h100l-261 -570q-28 -63 -78 -101.5t-112 -38.5q-40 0 -70 15zM192.5 576.5q-12.5 11.5 -12.5 31.5
q0 8 1 12q4 24 22.5 39.5t42.5 15.5q21 0 33.5 -12.5t12.5 -32.5q0 -6 -1 -10q-5 -24 -23 -39.5t-42 -15.5q-21 0 -33.5 11.5zM367.5 576.5q-12.5 11.5 -12.5 31.5q0 8 1 12q4 24 22.5 39.5t42.5 15.5q21 0 33.5 -12.5t12.5 -32.5q0 -6 -1 -10q-5 -24 -23 -39.5t-42 -15.5
q-21 0 -33.5 11.5z" />
    <glyph glyph-name="uni04F2" unicode="&#x4f2;" horiz-adv-x="536" 
d="M64 0q-16 6 -26 15l37 65h10q7 -9 14 -13q15 -12 41 -12q29 0 55.5 19.5t42.5 50.5l30 60h-45l-115 515h105l82 -365q4 -18 6 -47l2 -28h4l12 28l8 19l13 28l184 365h100l-286 -575q-29 -59 -84 -99.5t-116 -40.5q-42 0 -74 15zM268 750l72 150h95l-112 -150h-55z
M403 750l72 150h95l-112 -150h-55z" />
    <glyph glyph-name="uni04F3" unicode="&#x4f3;" horiz-adv-x="475" 
d="M2 -195q-14 6 -24 15l36 65h10q7 -9 14 -13q15 -12 37 -12q26 0 49 19.5t38 50.5l33 70h-40l-77 500h100l51 -330q3 -13 5 -51l2 -29h4l12 29l9 23q8 20 12 28l150 330h100l-261 -570q-28 -63 -78 -101.5t-112 -38.5q-40 0 -70 15zM213 550l72 150h95l-112 -150h-55z
M348 550l72 150h95l-112 -150h-55z" />
    <glyph glyph-name="uni04F4" unicode="&#x4f4;" horiz-adv-x="600" 
d="M433 275q-12 -3 -22.5 -4.5t-19.5 -3.5q-47 -7 -101 -7q-85 0 -132 41.5t-47 112.5q0 22 4 41l43 245h100l-43 -245q-2 -9 -2 -27q0 -46 30 -72t85 -26q46 0 83 7l34 8l63 355h100l-123 -700h-100zM269.5 776.5q-12.5 11.5 -12.5 31.5q0 8 1 12q4 24 22.5 39.5t42.5 15.5
q21 0 33.5 -12.5t12.5 -32.5q0 -6 -1 -10q-5 -24 -23 -39.5t-42 -15.5q-21 0 -33.5 11.5zM444.5 776.5q-12.5 11.5 -12.5 31.5q0 8 1 12q4 24 22.5 39.5t42.5 15.5q21 0 33.5 -12.5t12.5 -32.5q0 -6 -1 -10q-5 -24 -23 -39.5t-42 -15.5q-21 0 -33.5 11.5z" />
    <glyph glyph-name="uni04F5" unicode="&#x4f5;" horiz-adv-x="520" 
d="M352 185l-35 -8q-37 -7 -83 -7q-69 0 -108.5 37t-39.5 97q0 15 3 31l29 165h100l-29 -165q-2 -14 -2 -20q0 -34 23 -54.5t62 -20.5q35 0 65 7q28 9 27 8l44 245h100l-88 -500h-100zM194.5 576.5q-12.5 11.5 -12.5 31.5q0 8 1 12q4 24 22.5 39.5t42.5 15.5
q21 0 33.5 -12.5t12.5 -32.5q0 -6 -1 -10q-5 -24 -23 -39.5t-42 -15.5q-21 0 -33.5 11.5zM369.5 576.5q-12.5 11.5 -12.5 31.5q0 8 1 12q4 24 22.5 39.5t42.5 15.5q21 0 33.5 -12.5t12.5 -32.5q0 -6 -1 -10q-5 -24 -23 -39.5t-42 -15.5q-21 0 -33.5 11.5z" />
    <glyph glyph-name="uni04F6" unicode="&#x4f6;" horiz-adv-x="490" 
d="M188 700h390l-12 -70h-290l-99 -560h65l-38 -220h-80l11 150h-70l12 70z" />
    <glyph glyph-name="uni04F7" unicode="&#x4f7;" horiz-adv-x="415" 
d="M455 430h-230l-63 -360h65l-37 -210h-80l10 140h-70l12 70l76 430h330z" />
    <glyph glyph-name="uni04F8" unicode="&#x4f8;" horiz-adv-x="800" 
d="M188 700h100l-46 -260h80q105 0 158 -42.5t53 -123.5q0 -22 -5 -54q-18 -107 -89 -163.5t-194 -56.5h-180zM585 0l123 700h100l-123 -700h-100zM257 70q146 0 171 150q4 21 4 44q0 106 -122 106h-80l-53 -300h80zM389.5 776.5q-12.5 11.5 -12.5 31.5q0 8 1 12
q4 24 22.5 39.5t42.5 15.5q21 0 33.5 -12.5t12.5 -32.5q0 -6 -1 -10q-5 -24 -23 -39.5t-42 -15.5q-21 0 -33.5 11.5zM564.5 776.5q-12.5 11.5 -12.5 31.5q0 8 1 12q4 24 22.5 39.5t42.5 15.5q21 0 33.5 -12.5t12.5 -32.5q0 -6 -1 -10q-5 -24 -23 -39.5t-42 -15.5
q-21 0 -33.5 11.5z" />
    <glyph glyph-name="uni04F9" unicode="&#x4f9;" horiz-adv-x="690" 
d="M138 500h100l-30 -170h60q174 0 174 -127q0 -18 -3 -38q-30 -165 -229 -165h-160zM490 0l88 500h100l-88 -500h-100zM222 70q53 0 81 23t36 72q3 15 3 27q0 35 -21 51.5t-66 16.5h-60l-33 -190h60zM299.5 576.5q-12.5 11.5 -12.5 31.5q0 8 1 12q4 24 22.5 39.5t42.5 15.5
q21 0 33.5 -12.5t12.5 -32.5q0 -6 -1 -10q-5 -24 -23 -39.5t-42 -15.5q-21 0 -33.5 11.5zM474.5 576.5q-12.5 11.5 -12.5 31.5q0 8 1 12q4 24 22.5 39.5t42.5 15.5q21 0 33.5 -12.5t12.5 -32.5q0 -6 -1 -10q-5 -24 -23 -39.5t-42 -15.5q-21 0 -33.5 11.5z" />
    <glyph glyph-name="uni051A" unicode="&#x51a;" horiz-adv-x="600" 
d="M255.5 -124q-34.5 31 -34.5 86q0 15 3 33q-69 12 -107 68t-38 159q0 56 12 128q32 186 113 273t196 87q92 0 142.5 -55.5t50.5 -174.5q0 -56 -12 -130q-29 -164 -96.5 -252t-160.5 -103q-3 -15 -3 -26q0 -54 54 -54q12 0 25 5l11 5h10l9 -65l-24 -8q-26 -7 -54 -7
q-62 0 -96.5 31zM400.5 128.5q52.5 68.5 80.5 221.5q13 69 13 124q0 86 -30 126t-77 40q-64 0 -116 -68t-80 -222q-13 -71 -13 -126q0 -86 29.5 -125t77.5 -39q63 0 115.5 68.5z" />
    <glyph glyph-name="uni051B" unicode="&#x51b;" horiz-adv-x="535" 
d="M305 -170l33 190q-16 -9 -35 -15q-39 -15 -80 -15q-74 0 -118 46.5t-44 135.5q0 32 8 78q14 84 49 142.5t81 88t95 29.5q61 0 104 -35q20 -18 29 -35h5l21 60h70l-124 -700h-70zM320 70q17 5 29 10l52 295q-9 14 -25 30q-32 30 -70 30q-46 0 -83 -45t-54 -140
q-7 -39 -7 -74q0 -116 88 -116q32 0 70 10z" />
    <glyph glyph-name="uni051C" unicode="&#x51c;" horiz-adv-x="860" 
d="M113 700h100l29 -490q0 -19 -2 -51l-3 -29h4l8 29q12 38 18 51l201 490h120l29 -490q0 -19 -2 -51l-2 -29h4l8 29q2 6 7 23t10 28l201 490h100l-288 -700h-120l-29 490l-1 26l1 25q0 19 1 29h-4l-9 -29q-12 -38 -18 -51l-201 -490h-120z" />
    <glyph glyph-name="uni051D" unicode="&#x51d;" horiz-adv-x="710" 
d="M78 500h95l26 -305q1 -8 1 -23q0 -14 -1 -21l-2 -21h4q4 14 7 21q11 34 16 44l134 305h120l26 -305q2 -31 1 -44l-2 -21h4q2 11 6 21q11 34 16 44l134 305h95l-218 -500h-110l-30 315q-2 10 -2 24.5v19.5q0 17 1 26h-4q-2 -6 -4 -12.5t-4 -13.5q-5 -16 -17 -44l-140 -315
h-110z" />
    <glyph glyph-name="uni0524" unicode="&#x524;" horiz-adv-x="630" 
d="M638 700l-111 -630h65l-38 -220h-80l11 150h-70l12 70l99 560h-250l-111 -630h-100l123 700h450z" />
    <glyph glyph-name="uni0525" unicode="&#x525;" horiz-adv-x="550" 
d="M538 500l-76 -430h65l-37 -210h-80l10 140h-70l12 70l63 360h-200l-75 -430h-100l88 500h400z" />
    <glyph glyph-name="endash" unicode="&#x2013;" 
d="M49 250l14 80h450l-14 -80h-450z" />
    <glyph glyph-name="emdash" unicode="&#x2014;" horiz-adv-x="720" 
d="M49 250l14 80h660l-14 -80h-660z" />
    <glyph glyph-name="quoteleft" unicode="&#x2018;" horiz-adv-x="200" 
d="M209 491.5q-20 -21.5 -47 -21.5q-26 0 -40 13.5t-14 38.5q0 4 2 18q15 76 67 128q23 25 53 42l24 -35q-16 -12 -32 -26q-35 -33 -38 -59q20 0 32.5 -13t12.5 -33q0 -31 -20 -52.5z" />
    <glyph glyph-name="quoteright" unicode="&#x2019;" horiz-adv-x="200" 
d="M148 688.5q20 21.5 47 21.5q26 0 40 -13.5t14 -38.5q0 -4 -2 -18q-13 -71 -68 -128q-26 -26 -52 -42l-23 35q16 12 32 26q34 34 38 59q-20 0 -33 13t-13 34q0 30 20 51.5z" />
    <glyph glyph-name="quotesinglbase" unicode="&#x201a;" horiz-adv-x="200" 
d="M42 88.5q20 21.5 47 21.5q26 0 40 -13.5t14 -39.5q0 -11 -1 -17q-13 -71 -68 -128q-25 -26 -52 -42l-24 35q16 12 32 26q34 34 38 59q-20 0 -33 13t-13 34q0 30 20 51.5z" />
    <glyph glyph-name="quotedblleft" unicode="&#x201c;" horiz-adv-x="360" 
d="M209 491.5q-20 -21.5 -47 -21.5q-26 0 -40 13.5t-14 38.5q0 4 2 18q15 76 67 128q23 25 53 42l24 -35q-16 -12 -32 -26q-35 -33 -38 -59q20 0 32.5 -13t12.5 -33q0 -31 -20 -52.5zM369 491.5q-20 -21.5 -47 -21.5q-26 0 -40 13.5t-14 38.5q0 4 2 18q15 76 67 128
q23 25 53 42l24 -35q-16 -12 -32 -26q-35 -33 -38 -59q20 0 32.5 -13t12.5 -33q0 -31 -20 -52.5z" />
    <glyph glyph-name="quotedblright" unicode="&#x201d;" horiz-adv-x="360" 
d="M148 688.5q20 21.5 47 21.5q26 0 40 -13.5t14 -38.5q0 -4 -2 -18q-13 -71 -68 -128q-26 -26 -52 -42l-23 35q16 12 32 26q34 34 38 59q-20 0 -33 13t-13 34q0 30 20 51.5zM308 688.5q20 21.5 47 21.5q26 0 40 -13.5t14 -38.5q0 -4 -2 -18q-13 -71 -68 -128
q-26 -26 -52 -42l-23 35q16 12 32 26q34 34 38 59q-20 0 -33 13t-13 34q0 30 20 51.5z" />
    <glyph glyph-name="quotedblbase" unicode="&#x201e;" horiz-adv-x="360" 
d="M42 88.5q20 21.5 47 21.5q26 0 40 -13.5t14 -39.5q0 -11 -1 -17q-13 -71 -68 -128q-25 -26 -52 -42l-24 35q16 12 32 26q34 34 38 59q-20 0 -33 13t-13 34q0 30 20 51.5zM202 88.5q20 21.5 47 21.5q26 0 40 -13.5t14 -39.5q0 -11 -1 -17q-13 -71 -68 -128
q-25 -26 -52 -42l-24 35q16 12 32 26q34 34 38 59q-20 0 -33 13t-13 34q0 30 20 51.5z" />
    <glyph glyph-name="dagger" unicode="&#x2020;" horiz-adv-x="460" 
d="M119 -200l108 610h-160l12 70h160l39 220h100l-39 -220h160l-12 -70h-160l-108 -610h-100z" />
    <glyph glyph-name="daggerdbl" unicode="&#x2021;" horiz-adv-x="460" 
d="M119 -200l39 220h-160l12 70h160l57 320h-160l12 70h160l39 220h100l-39 -220h160l-12 -70h-160l-57 -320h160l-12 -70h-160l-39 -220h-100z" />
    <glyph glyph-name="bullet" unicode="&#x2022;" horiz-adv-x="370" 
d="M317 261q-19 -33 -52 -52t-72 -19q-47 0 -74 26t-27 70q0 8 2 24q10 53 49 86.5t92 33.5q46 0 73.5 -26t27.5 -69q0 -41 -19 -74z" />
    <glyph glyph-name="ellipsis" unicode="&#x2026;" horiz-adv-x="580" 
d="M43 89q21 21 51 21q22 0 36 -13t14 -34q0 -31 -20.5 -52t-50.5 -21q-23 0 -37 13t-14 34q0 31 21 52zM233 89q21 21 51 21q22 0 36 -13t14 -34q0 -31 -20.5 -52t-50.5 -21q-23 0 -37 13t-14 34q0 31 21 52zM423 89q21 21 51 21q22 0 36 -13t14 -34q0 -31 -20.5 -52
t-50.5 -21q-23 0 -37 13t-14 34q0 31 21 52z" />
    <glyph glyph-name="perthousand" unicode="&#x2030;" horiz-adv-x="1131" 
d="M119 384.5q-35 34.5 -35 99.5q0 23 4 46q15 85 67 132.5t125 47.5q62 0 97 -34.5t35 -99.5q0 -23 -4 -46q-15 -85 -67 -132.5t-125 -47.5q-62 0 -97 34.5zM75 0l593 700h110l-593 -700h-110zM318 530q5 32 5 48q0 72 -54 72q-70 0 -91 -120q-5 -32 -5 -49q0 -71 54 -71
q70 0 91 120zM475.5 25q-35.5 35 -35.5 99q0 25 4 46q16 86 67.5 133t124.5 47q61 0 97 -35t36 -98q0 -19 -5 -47q-15 -86 -66.5 -133t-124.5 -47q-62 0 -97.5 35zM826.5 25q-35.5 35 -35.5 99q0 25 4 46q16 86 67.5 133t124.5 47q61 0 97 -35t36 -98q0 -19 -5 -47
q-15 -86 -66.5 -133t-124.5 -47q-62 0 -97.5 35zM674 170q5 32 5 49q0 71 -53 71q-71 0 -92 -120q-5 -32 -5 -48q0 -72 54 -72q70 0 91 120zM1025 170q5 32 5 49q0 71 -53 71q-71 0 -92 -120q-5 -32 -5 -48q0 -72 54 -72q70 0 91 120z" />
    <glyph glyph-name="guilsinglleft" unicode="&#x2039;" horiz-adv-x="330" 
d="M257 470h120l-227 -210l153 -210h-120l-153 210z" />
    <glyph glyph-name="guilsinglright" unicode="&#x203a;" horiz-adv-x="340" 
d="M340 260l-227 -210h-120l227 210l-153 210h120z" />
    <glyph glyph-name="fraction" unicode="&#x2044;" horiz-adv-x="430" 
d="M-144 0l593 700h110l-593 -700h-110z" />
    <glyph glyph-name="uni2074" unicode="&#x2074;" horiz-adv-x="380" 
d="M244 360l12 70h-170l10 60l207 210h90l-37 -210h50l-10 -60h-50l-12 -70h-90zM266 490l16 90q1 5 8 27l6 16h-4l-9 -17q-10 -18 -18 -26l-89 -90h90z" />
    <glyph glyph-name="Euro" unicode="&#x20ac;" horiz-adv-x="545" 
d="M108 222q0 25 1 38h-79l21 60h65l11 60h-70l20 60h64q78 270 294 270q72 0 124 -28q25 -13 41 -27l-46 -60h-10q-12 10 -30 22q-40 23 -82 23q-62 0 -111.5 -47.5t-79.5 -152.5h220l-20 -60h-214l-11 -60h210l-21 -60h-196q-1 -10 -1 -28q0 -92 34.5 -132t97.5 -40
q44 0 90 22q26 14 38 23h10l24 -60q-21 -15 -51 -28q-58 -27 -133 -27q-210 0 -210 232z" />
    <glyph glyph-name="uni20AE" unicode="&#x20ae;" horiz-adv-x="480" 
d="M537 630h-180l-37 -208l150 38l-11 -60l-149 -38l-11 -60l150 38l-10 -60l-150 -38l-43 -242h-100l38 215l-138 -35l10 60l138 35l11 60l-138 -35l11 60l138 35l41 235h-180l12 70h460z" />
    <glyph glyph-name="uni20B4" unicode="&#x20b4;" horiz-adv-x="521" 
d="M332 342q-17 -7 -47 -22h246l-12 -70h-319q-28 -42 -28 -96q0 -43 29 -68.5t80 -25.5t95 13t70 32h10l29 -60q-35 -23 -91.5 -39t-119.5 -16q-99 0 -155.5 41.5t-56.5 117.5q0 58 26 101h-58l12 70h115q34 23 91 50h-197l13 70h306q26 23 36.5 48t10.5 56
q0 47 -28.5 71.5t-72.5 24.5q-35 0 -72 -11.5t-71 -33.5h-10l-29 60q47 27 100 41t103 14q78 0 129 -42.5t51 -117.5q0 -65 -37 -110h73l-13 -70h-150q-25 -14 -58 -28z" />
    <glyph glyph-name="uni20B8" unicode="&#x20b8;" horiz-adv-x="480" 
d="M96 630l12 70h460l-12 -70h-460zM165 0l90 510h-180l12 70h460l-12 -70h-180l-90 -510h-100z" />
    <glyph glyph-name="uni20BD" unicode="&#x20bd;" horiz-adv-x="544" 
d="M579 531q0 -28 -6 -61q-20 -115 -91.5 -172.5t-198.5 -57.5h-80l-10 -60h105l-13 -70h-105l-19 -110h-100l19 110h-75l13 70h75l10 60h-75l13 70h74l69 390h180q215 0 215 -169zM478 520q0 57 -31 83.5t-95 26.5h-80l-57 -320h80q76 0 120 39t58 121q5 30 5 50z" />
    <glyph glyph-name="uni2116" unicode="&#x2116;" horiz-adv-x="956" 
d="M700 384.5q-35 34.5 -35 99.5q0 23 4 46q15 85 67 132.5t125 47.5q62 0 97 -34.5t35 -99.5q0 -23 -4 -46q-15 -85 -67 -132.5t-125 -47.5q-62 0 -97 34.5zM188 700h110l131 -445q4 -16 11 -54q2 -11 4 -31h4l4 31l3 27q2 18 4 27l79 445h100l-123 -700h-110l-132 445
q-5 14 -11 54q-2 11 -4 31h-4l-4 -31l-3 -26q-2 -20 -4 -28l-78 -445h-100zM899 530q5 32 5 48q0 72 -54 72q-70 0 -91 -120q-5 -32 -5 -49q0 -71 54 -71q70 0 91 120zM634 220l13 70h280l-13 -70h-280z" />
    <glyph glyph-name="trademark" unicode="&#x2122;" horiz-adv-x="850" 
d="M161 320l55 315h-120l12 65h330l-12 -65h-120l-55 -315h-90zM478 700h95l70 -200q3 -7 5 -23q1 -4 1 -12h4q2 6 6 12q2 3 5.5 10t8.5 13l140 200h95l-67 -380h-90l32 180q2 9 3.5 18.5t3.5 18.5q1 9 5 18h-5q-2 -4 -4.5 -8.5t-5.5 -10.5q-11 -20 -22 -36l-81 -115h-80
l-39 115q-3 8 -6 19.5t-4 16.5l-4 19h-5l-2 -18q0 -5 -1 -16.5t-3 -20.5l-32 -180h-90z" />
    <glyph glyph-name="uni2215" unicode="&#x2215;" horiz-adv-x="410" 
d="M408 700h100l-433 -700h-100z" />
    <glyph glyph-name="uniF8FF" unicode="&#xf8ff;" horiz-adv-x="1285" 
d="M40 260l194 165l-29 -165h-165zM268.5 276.5q-20.5 21.5 -20.5 51.5q0 24 15 46.5t38.5 36.5t47.5 14q30 0 50.5 -21t20.5 -51q0 -24 -15 -47t-38.5 -37t-47.5 -14q-30 0 -50.5 21.5zM540 260l119 165l61 -165h-180zM494 255l-60 165h180zM899 280l-115 140h140z
M1095 280l-115 140h140zM1194 255l-60 165h180zM735 260l25 140l115 -140h-140zM931 260l25 140l115 -140h-140z" />
    <glyph glyph-name="brevecombcy" horiz-adv-x="0" 
d="M-244 576.5q-33 26.5 -33 73.5q0 14 3 30h90q-2 -18 -2 -23q0 -25 12.5 -36t37.5 -11q31 0 48.5 16.5t23.5 53.5h90q-12 -61 -56 -95.5t-117 -34.5q-64 0 -97 26.5z" />
    <glyph glyph-name="brevecombcy.case" horiz-adv-x="0" 
d="M-209 776.5q-33 26.5 -33 73.5q0 14 3 30h90q-2 -9 -2 -25q0 -24 12 -34.5t37 -10.5q31 0 48.5 16.5t24.5 53.5h90q-12 -61 -56 -95.5t-117 -34.5q-64 0 -97 26.5z" />
    </font>
</defs>
</svg>
