<svg xmlns="http://www.w3.org/2000/svg" width="54" height="54" viewBox="0 0 54 54" fill="none">
    <path d="M16.2654 21.6409L17.5311 35.3353L11.699 42.7742L10.168 31.2781L16.2654 21.6409Z" fill="black"/>
    <path d="M37.735 21.6409L36.4678 35.3353L42.2999 42.7742L43.8324 31.2781L37.735 21.6409Z" fill="black"/>
    <path d="M34.152 6.56216C32.181 2.46038 29.0729 0 26.9998 0C24.9267 0 21.8187 2.46206 19.8477 6.56216H34.152Z" fill="black"/>
    <path d="M34.9447 8.48697H19.0552C18.3548 10.5073 17.9378 12.8211 17.9955 15.3623C18.1652 22.6463 19.8989 35.5051 19.8989 35.5051L32.8337 35.5034L34.0993 35.5051C34.0993 35.5051 35.8346 22.6445 36.0011 15.3623C36.062 12.8211 35.6451 10.5056 34.9447 8.48697ZM26.9999 24.3666C24.5132 24.3666 22.4977 22.3527 22.4977 19.866C22.4977 17.3792 24.5148 15.3654 26.9999 15.3654C29.4851 15.3654 31.5005 17.3792 31.4988 19.866C31.5005 22.3528 29.4851 24.3666 26.9999 24.3666Z" fill="black"/>
    <path d="M45.3004 54C44.656 52.1444 42.8894 50.8128 40.8147 50.8128C40.1505 50.8128 39.5177 50.9479 38.9409 51.1952C38.7432 49.0248 36.9172 47.3257 34.6958 47.3257C34.3744 47.3257 34.063 47.3603 33.763 47.4279C33.7663 47.3685 33.7663 47.3093 33.7663 47.2499C33.7663 45.6118 32.438 44.2836 30.8 44.2836C30.3748 44.2836 29.9694 44.3726 29.6035 44.5341C28.5769 42.718 28.2785 37.9785 28.2785 37.9785H25.5891C25.5891 37.9785 25.2446 43.1828 24.0268 44.9066C23.7433 44.7912 23.4303 44.7285 23.1039 44.7285C21.7311 44.7285 20.6188 45.8409 20.6188 47.2137C20.6188 47.3175 20.6254 47.4197 20.6386 47.5202C20.2464 47.3933 20.2926 47.3257 19.8575 47.3257C18.1189 47.3257 16.6374 48.4232 16.0672 49.9624C15.4294 49.6971 14.7307 49.5505 13.9973 49.5505C11.3442 49.5505 9.13913 51.472 8.69922 54H45.3004Z" fill="black"/>
</svg>
