<svg xmlns="http://www.w3.org/2000/svg" width="44" height="44" viewBox="0 0 44 44" fill="none">
    <g clip-path="url(#clip0_402_182)">
        <path d="M22 44C9.9 44 0 34.1 0 22C0 9.9 9.9 0 22 0C34.1 0 44 9.9 44 22C44 34.1 34.1 44 22 44ZM22 3.66667C11.9167 3.66667 3.66667 11.9167 3.66667 22C3.66667 32.0833 11.9167 40.3333 22 40.3333C32.0833 40.3333 40.3333 32.0833 40.3333 22C40.3333 11.9167 32.0833 3.66667 22 3.66667Z" fill="black"/>
        <path d="M14.6663 31.1667C14.1163 31.1667 13.7497 30.9833 13.383 30.6167C12.6497 29.8833 12.6497 28.7833 13.383 28.05L28.0497 13.3833C28.783 12.65 29.883 12.65 30.6163 13.3833C31.3497 14.1167 31.3497 15.2167 30.6163 15.95L15.9497 30.6167C15.583 30.9833 15.2163 31.1667 14.6663 31.1667Z" fill="black"/>
        <path d="M29.333 31.1667C28.783 31.1667 28.4163 30.9833 28.0497 30.6167L13.383 15.95C12.6497 15.2167 12.6497 14.1167 13.383 13.3833C14.1163 12.65 15.2163 12.65 15.9497 13.3833L30.6163 28.05C31.3497 28.7833 31.3497 29.8833 30.6163 30.6167C30.2497 30.9833 29.883 31.1667 29.333 31.1667Z" fill="black"/>
    </g>
    <defs>
        <clipPath id="clip0_402_182">
            <rect width="44" height="44" fill="white"/>
        </clipPath>
    </defs>
</svg>
