<svg xmlns="http://www.w3.org/2000/svg" width="43" height="43" viewBox="0 0 43 43" fill="none">
    <g clip-path="url(#clip0_402_175)">
        <path d="M23.7731 34.0689C23.7731 28.3872 28.379 23.7816 34.0605 23.7816C35.2564 23.7816 36.0301 23.9244 36.8413 24.1641C37.3875 24.3956 37.5964 23.9394 37.6534 23.7267C38.0251 22.3385 38.2335 20.9227 38.2335 19.4964C38.2335 19.4009 38.1801 7.25859 38.1801 7.10861C38.1801 5.91114 37.494 5.91396 37.1877 5.91551C34.9897 5.92596 32.7493 5.92694 30.3924 5.24757C25.4959 3.83579 21.1427 0 19.4878 0C17.8849 0 14.6527 3.83593 9.75599 5.24757C6.99478 6.04363 4.34686 5.8959 1.86967 5.78105C1.57859 5.76765 1.11524 5.69047 0.96822 6.69929C0.931113 6.95354 0.742188 19.3598 0.742188 19.4964C0.742188 31.6161 15.7364 43 19.4875 43C20.6878 43 22.6218 42.036 25.2247 40.099C25.5715 39.7994 25.3857 39.6008 25.2831 39.4334C24.3262 37.8715 23.7731 36.0352 23.7731 34.0689Z" fill="black"/>
        <path d="M34.1246 39.3143C33.7781 39.6878 33.1595 39.7457 32.7499 39.4427L26.2352 34.6254C25.8257 34.3226 25.7412 33.7418 26.0475 33.3349L26.8835 32.2252C27.1898 31.8183 27.7765 31.7319 28.1872 32.0333L32.3649 35.099C32.7754 35.4003 33.3949 35.3413 33.7412 34.9677L39.6376 28.7959C39.9839 28.4223 40.5725 28.4006 40.9454 28.7477L41.9622 29.6941C42.3351 30.0412 42.3569 30.6307 42.0105 31.0042L34.1246 39.3143Z" fill="black"/>
    </g>
    <defs>
        <clipPath id="clip0_402_175">
            <rect width="43" height="43" fill="white"/>
        </clipPath>
    </defs>
</svg>
