<svg xmlns="http://www.w3.org/2000/svg" width="51" height="51" viewBox="0 0 51 51" fill="none">
    <path d="M25.5003 2.49023C27.5921 2.49023 28.9803 3.53434 30.8424 4.56878C32.6071 5.54924 34.8257 6.39004 37.9545 5.75115C39.4393 7.23533 40.9477 8.71981 42.5564 9.72516C43.8729 10.5479 45.3522 11.038 46.8277 10.8064C46.4043 14.1374 44.3817 17.3956 42.2672 19.1011C36.691 17.2531 31.101 16.3288 25.5109 16.3288C19.9156 16.3288 14.3205 17.2548 8.73924 19.1062C6.62255 17.4021 4.59649 14.1406 4.17285 10.8065C5.64807 11.0382 7.12766 10.5479 8.4441 9.72526C10.0528 8.71991 11.5611 7.23553 13.0461 5.75135C16.1745 6.39014 18.3934 5.54934 20.1582 4.56898C22.0205 3.53414 23.4085 2.49023 25.5003 2.49023ZM25.5108 4.4366C23.537 4.4366 20.2145 7.10394 20.2145 7.10394C20.2145 7.10394 22.3283 15.106 25.5108 15.106C28.6935 15.106 30.8072 7.10394 30.8072 7.10394C30.8072 7.10394 27.4845 4.4366 25.5108 4.4366ZM25.5108 18.115C30.7692 18.115 36.0279 18.9746 41.2993 20.6783C41.5164 22.0201 41.1488 23.0171 40.3582 23.9391C39.4756 24.9684 37.9942 25.842 36.2383 26.5001C32.7261 27.8167 28.1716 28.2827 25.5107 28.2827C22.8498 28.2827 18.2956 27.8167 14.7834 26.5002C13.0273 25.8421 11.5461 24.9685 10.6636 23.9392C9.8727 23.0171 9.50494 22.0202 9.72229 20.6784C14.9936 18.9746 20.2523 18.115 25.5107 18.115H25.5108ZM42.7658 23.8072C43.744 24.0445 45.4485 24.5817 45.7547 25.5C46.5916 28.0099 44.0693 31.8546 42.1618 34.2806C42.6873 32.0888 42.9706 29.7573 42.9706 27.3398C42.9706 26.1387 42.9003 24.9591 42.7658 23.8072ZM8.25614 23.8072C8.1195 24.9798 8.05112 26.1592 8.05134 27.3397C8.05134 29.7572 8.33453 32.0887 8.86017 34.2805C6.95265 31.8545 4.43024 28.0098 5.26726 25.4999C5.57336 24.5815 7.27797 24.0444 8.25604 23.8071L8.25614 23.8072ZM41.1302 25.717C41.1606 26.2526 41.1775 26.7933 41.1775 27.3396C41.1775 33.2538 39.3716 38.5913 36.5056 42.411C33.6396 46.2307 29.7617 48.5183 25.5107 48.5183C21.2599 48.5183 17.382 46.2307 14.5161 42.411C11.6501 38.5913 9.84441 33.2539 9.84441 27.3397C9.84441 26.7932 9.86134 26.2525 9.89163 25.7169C10.7084 26.4795 11.7061 27.0982 12.8037 27.6124C12.3784 29.4253 12.8302 31.6803 14.0088 32.8583C16.1777 35.0263 21.0417 35.0263 23.2107 32.8583C23.8825 32.1867 24.1706 31.1165 24.1326 30.0426C24.6241 30.0641 25.0888 30.0755 25.5109 30.0755C25.933 30.0755 26.3979 30.0641 26.8895 30.0426C26.8513 31.1164 27.1395 32.1867 27.8115 32.8583C29.9804 35.0263 34.8443 35.0263 37.0132 32.8583C38.1917 31.6803 38.6436 29.4256 38.2182 27.6127C39.3159 27.0985 40.3138 26.4796 41.1304 25.717H41.1302ZM25.5108 37.4574C23.2104 41.1366 18.6096 41.5965 16.3093 41.5965C18.6095 43.4361 25.5107 43.4361 25.5107 41.5965C25.5107 43.4361 32.4121 43.4361 34.7126 41.5965C32.4121 41.5965 27.8112 41.1366 25.5107 37.4574H25.5108Z" fill="black"/>
</svg>
